M48
;Layer_Color=9474304
;FILE_FORMAT=2:4
INCH
;TYPE=PLATED
T1F00S00C0.0120
T2F00S00C0.0160
T3F00S00C0.0200
T4F00S00C0.0276
T5F00S00C0.0299
T6F00S00C0.0300
T7F00S00C0.0315
T8F00S00C0.0394
T9F00S00C0.1900
%
T01
X020290Y011040
X020680Y011270
X022130Y010910
X023330Y010770
X023200Y011200
X023600Y012000
X024400
X024050Y011600
X025600Y011200
X026700Y011300
Y011700
X027100Y011300
X027600Y012600
X028000Y012200
X028400
X028450Y012750
Y013300
Y013900
X028800Y014400
X027650Y014350
X026100Y014300
X026000Y015200
X025200Y013600
X026000Y012000
X023200Y012800
X022400
X021580Y012570
X021200Y013600
X021600Y014400
X022400
X023200Y014700
X021200Y015200
X030050Y014700
X030400Y014400
Y013900
Y013300
Y012800
X031200
X030800Y013600
X031000Y011600
X031500Y011000
X031900
X032300
X033253Y012432
X033600Y012800
X033200Y013600
X032600
Y014100
X031400
Y013600
X037200
X038800
X039200Y014400
X040000Y015100
X038000Y015200
X036000Y015550
X036400Y012000
X036460Y010910
X037880Y011250
X038260Y011030
X034770Y010640
X034500Y017450
X033300Y017435
X033100Y019900
Y020450
Y020950
X033200Y021600
X032800Y021700
X033050Y022350
X033450
Y022750
X033050
X032200Y022700
Y022300
X031750
Y022700
X032400Y024800
X033200
X032800Y025600
X033450Y025900
X031950Y026050
X031500Y026700
X033050Y028550
X033600Y028800
X034400
X035200
X034800Y028000
X034000
Y029600
X033200
X032550Y029850
Y030150
X032150
Y029850
X031523Y031050
X033177
X034000Y031200
X034800
X035600
X036400
X036000Y030400
X035200
X034400
X033600
X034800Y029600
X035600
X036400
X038000
X038800
X039600
X039800Y030356
X039200
X038400Y030400
X038000Y031200
X040600Y029800
X040800Y027200
X040000
X039200
X038400
X037600
X036800
X037200Y027850
Y026400
X036400
X036800Y025600
X037600
X038400
X039200
X040000
X040800
X040400Y026400
X039600
X038800
X038000
Y024800
X037200
X036400
X036800Y024000
X037600
X038800Y024800
X039600
X041200Y026400
X042000
X041600Y027200
X042400
X042000Y028000
X042800
X043200Y027900
X042100Y017500
X041800Y016900
X040800Y016000
X036400Y016450
Y017900
Y018400
X036100Y018650
X035600Y018400
X036800Y017600
X034800Y023200
X034000
X034400Y024000
X035200
X031150Y021900
X030800
X030450
X029900
X030150Y021650
X029300Y021850
X028500Y021950
Y022600
Y023000
Y023400
X027750Y023800
X027900Y024100
X027500
X027100
X027300Y023800
X025800Y022100
Y021500
X025200Y021600
X024400
X023900Y021150
X023200Y021250
X022800Y021200
X022500Y021700
X021850Y023191
X022400Y024000
X023200
Y025600
X022400
X021600
X020800
X020400Y026400
X021200
X022000
X021600Y027200
X020800
X020000
X017600
X016800
X016000
X016400Y026400
X017200
X018000
X017600Y025600
X018400
X018800Y024800
X019600
X022000
X022400Y027200
X023200
X024000
X024800
X025600
X025200Y026400
X024400
X023600
X024000Y025600
X024800
X025600
X026000Y026400
X027650Y029050
X028680Y028770
X030400Y028800
X030800Y028000
Y027450
X030400Y027200
X030550Y026750
X030250Y026600
X031150Y026750
X030750Y029850
X030400Y030400
X030000Y031200
X027600
X026894Y031206
Y030694
X027200Y030400
X026400
X023200
X022400
X022000Y029600
X021200
X020400
X019600
X020000Y030400
X020800
X022750Y029250
X018700Y028950
X018150Y028650
X017850Y029856
X017000Y029450
X022000Y018400
X023700Y018300
Y017800
Y017300
X023900Y016900
X024300
X024700
X025100Y017000
X025400Y017300
Y018300
X025100Y018600
X024700Y018700
X024300
X023900
X023300Y016200
X025000Y016000
X020800
X021200Y016800
X026000Y020000
X025600Y020800
X026300Y021000
X029800Y016700
X030250Y016690
X015250Y026800
X014850Y027200
X014450Y027650
X014200Y028300
X014400Y030400
X014800Y032800
X015600Y034400
Y036000
Y042400
Y044000
X015200Y044800
X016400Y044000
X016000Y043200
X016800
X016400Y042400
X017200
X016800Y041600
X016000
X016400Y040800
X017200
X018000
X018800
X019600
X020400
X021200
X022000
X021600Y040000
X022400
X021750Y039100
X021450
X021150
X021100Y038550
X021150Y037950
X021450
X021750
X021800Y038550
X022400Y038400
X024000
X024800
X025600
X026400
X027200
X028000
X028800
X029600
X029200Y037600
X028400
X027600
X026800
X026000
X025200
X024400
X023600
Y036000
X024400
X025200
X024800Y035200
X024000
X022400
X021600
X020900Y035150
Y034550
Y033950
Y035750
Y036300
X020500
X020100
X020900Y036850
X021600Y036800
X022000Y036000
X020250Y037950
X020150Y038650
X020400Y039200
X019200Y040000
X018400
X017600
X016800
X017200Y039200
X018000
X017600Y038400
X017200Y037600
X016400
X016000Y036800
X016800
X017600
X017500Y036300
X018000Y036000
X016400
X016000Y035200
X016800
X016850Y034600
X017300
X017750
X018300Y034100
X018700Y033850
X018380Y033490
X018600Y033150
X018300Y032900
X018600Y032580
X019250Y032650
X020000Y032000
X020800
X018000Y031750
X017350Y032250
X016950
X016100Y032550
Y033005
Y033400
X016400Y034550
X019250
X018000Y037600
X018400Y041600
X019200
X020000
X020800
X020400Y042400
X019600
X018800
Y044000
X018000
X018068Y044768
X018000Y045600
X017568Y045268
X017600Y046400
X017249Y046149
X016800Y046400
X018800Y045600
X019200Y044800
X020000
X019600Y044000
X020400
X021200
Y042400
X022000
X022800
X023600
X023200Y041600
X022400
X023600Y040800
X024400
X025200
X026000
X025600Y040000
X024800
X024000
X023600Y039200
X024400
X025200
X026000
X026800
X027600
X028400
Y040800
X028000Y041600
X027600Y042400
X026800
X026400Y040000
X027200
Y036800
X026400
X025600
Y035200
X027200
X028000
X028800
X029600
X029200Y034400
X028400
X028800Y033600
X029600
X030400
X031200
X030800Y032800
X030000
X030400Y032000
X028400Y032800
X027200Y032000
X026400
X025600
X024800
X024400Y032800
X025200
X026000
X026800Y034400
Y036000
X027600
X028400
X028000Y036800
X028800
X029600
X030400
X031200
X030800Y036000
X031200Y035200
X030000Y034400
Y037600
Y039200
X031200Y038400
X030800Y040800
X031200Y041600
X030800Y042400
X017600Y041600
X032000
X032800
X033250Y041750
X033600Y041600
X033200Y040800
X032400
X031600
X032000Y040000
X032800
X033600
X034400
X035200
X036000
X036800
X037600
X037200Y040800
X036400
X035600
X034800
X034000
Y039200
X033200
X032400
X033600Y038400
X034400
X035200
X036000
X036800
X037600
X038400
X039200
X040000
X040800
X041600
X041200Y037600
X040400
X039600
X038800
X038000
X037600Y036800
X036800
X036000
X035200
X034800Y037600
X034000
X035600
X036400
Y036000
X035600
X035200Y035200
X036000
X036800
X037600
X038400
X039200
X040000
X040800
X041600
X042400
X043200
X042800Y034400
X042000
X041200
X040400
X039600
X038800
X038000
X037600Y033600
X036800
X036000
X035600Y032800
X034800
X034000
X033177Y033023
X032800Y033600
X032000
X031523Y033023
X032400Y034400
X032000Y035200
X032800
X033600
X033200Y036000
X032800Y036800
X031600Y036000
Y037600
Y042400
X032400
X033250Y042500
X035500
Y041750
X036000Y041600
X036800
X037600
X038400
X039200
X038800Y042400
X038000
X037200
X036400
X037200Y044000
X038000
X038800
X039600
X039200Y044800
X038400
X040000
X039600Y045600
X040400
X040800Y046400
Y043200
X041600
X042400
X042000Y042400
X041200
X040800Y041600
X041600
X042400
X042000Y040800
X041200
X040400
X039600
X039200Y040000
X040000
X040800
X041600
X041200Y039200
X040400
X039600
X038800
X038000
X036400
X035600
X034800
X038000Y040800
X039600Y042400
X042800
Y044000
X042268Y044332
X041818Y043882
X042949Y044751
X042000Y037600
X041600Y036800
X040800
X040000
X039200
X038400
X038000Y036000
X038800
X039600
X040400
X041200
X042000
X042800
X042400Y036800
Y033600
X041600
X040800
X040000
X039200
X038400
X038000Y032800
X038800
X039600
X040400
X041600Y032000
X038400
X036000
X036400Y032800
Y034400
X035600
X034400Y032000
X032665Y031465
X043200Y033600
T02
X013800Y031700
X015450Y046200
X044450Y032850
X042700Y047000
T03
X033700Y015050
X036030Y014630
X036580Y013670
X037620
X038170Y014630
T04
X028446Y011661
X030080Y011661
T05
X035300Y011750
Y012600
Y013500
T06
X042344Y018556
X037200Y030624
X021900Y032176
X018948Y043362
X040644Y042356
T07
X041996Y018904
X041648Y019252
X041300Y019600
X037200Y031116
X021900Y031192
Y030700
Y031684
X018600Y043014
X018252Y042666
X017904Y042318
X040296Y042704
X039948Y043052
X039600Y043400
X037200Y032100
Y031608
T08
X029350Y036254
Y039246
T09
X029400Y041800
M30
