G04 Layer_Color=65535*
%FSAX24Y24*%
%MOIN*%
G70*
G01*
G75*
%ADD74C,0.0080*%
%ADD75C,0.0039*%
%ADD76C,0.0060*%
%ADD77C,0.0079*%
D74*
X020122Y012410D02*
G03*
X020239Y012447I-000320J001201D01*
G01*
X020466Y012467D02*
G03*
X020239Y012447I-000015J-001122D01*
G01*
X020615Y012455D02*
G03*
X020466Y012467I-000161J-001061D01*
G01*
X020686Y012442D02*
G03*
X020615Y012455I-000215J-000922D01*
G01*
X020754Y012423D02*
G03*
X020686Y012442I-000258J-000797D01*
G01*
X020818Y012399D02*
G03*
X020754Y012423I-000286J-000662D01*
G01*
X020930Y012335D02*
G03*
X020818Y012399I-000329J-000447D01*
G01*
X020930Y012335D02*
G03*
X021216Y012068I004817J004875D01*
G01*
X021216Y012068D02*
G03*
X021510Y011826I003890J004414D01*
G01*
D02*
G03*
X022470Y011241I003041J003916D01*
G01*
D02*
G03*
X023203Y010971I002125J004632D01*
G01*
Y010971D02*
G03*
X023606Y010871I001615J005661D01*
G01*
Y010871D02*
G03*
X024501Y010742I001497J007216D01*
G01*
X024551Y010858D02*
G03*
X024400Y010200I002035J-000815D01*
G01*
X024648Y011059D02*
G03*
X024551Y010858I001561J-000875D01*
G01*
X024769Y011244D02*
G03*
X024648Y011059I001242J-000948D01*
G01*
X024915Y011406D02*
G03*
X024769Y011244I000944J-000996D01*
G01*
X025763Y011744D02*
G03*
X024915Y011406I000003J-001238D01*
G01*
X033316Y011636D02*
G03*
X032810Y011757I-000634J-001540D01*
G01*
X033514Y011529D02*
G03*
X033316Y011636I-000669J-001002D01*
G01*
X033918Y011051D02*
G03*
X033514Y011529I-001060J-000486D01*
G01*
X033999Y010847D02*
G03*
X033918Y011051I-001552J-000495D01*
G01*
X034057Y010625D02*
G03*
X033999Y010847I-002063J-000418D01*
G01*
X034094Y010387D02*
G03*
X034057Y010625I-002763J-000315D01*
G01*
X034114Y010136D02*
G03*
X034094Y010387I-003710J-000171D01*
G01*
X034050Y010642D02*
G03*
X034944Y010771I-000603J007345D01*
G01*
Y010771D02*
G03*
X035347Y010871I-001211J005761D01*
G01*
Y010871D02*
G03*
X036081Y011141I-001392J004903D01*
G01*
D02*
G03*
X037041Y011726I-002081J004500D01*
G01*
D02*
G03*
X037334Y011968I-003596J004657D01*
G01*
X037334Y011968D02*
G03*
X037620Y012235I-004532J005142D01*
G01*
X037732Y012299D02*
G03*
X037620Y012235I000217J-000511D01*
G01*
X037796Y012323D02*
G03*
X037732Y012299I000222J-000686D01*
G01*
X037864Y012342D02*
G03*
X037796Y012323I000190J-000816D01*
G01*
X037935Y012355D02*
G03*
X037864Y012342I000143J-000936D01*
G01*
X038085Y012367D02*
G03*
X037935Y012355I000012J-001073D01*
G01*
X038311Y012347D02*
G03*
X038085Y012367I-000212J-001102D01*
G01*
X038496Y012305D02*
G03*
X038311Y012347I-000708J-002679D01*
G01*
X038579Y012281D02*
G03*
X038496Y012305I-000646J-002095D01*
G01*
X038657Y012255D02*
G03*
X038579Y012281I-000636J-001785D01*
G01*
X038730Y012227D02*
G03*
X038657Y012255I-000629J-001531D01*
G01*
X038798Y012197D02*
G03*
X038730Y012227I-000625J-001325D01*
G01*
X038861Y012165D02*
G03*
X038798Y012197I-000625J-001160D01*
G01*
X038976Y012095D02*
G03*
X038861Y012165I-000667J-000957D01*
G01*
X039027Y012057D02*
G03*
X038976Y012095I-000672J-000850D01*
G01*
X024368Y031421D02*
G03*
X024368Y031421I-003100J000000D01*
G01*
X040300Y031400D02*
G03*
X040300Y031400I-003100J000000D01*
G01*
X042501D02*
G03*
X042501Y031400I-004501J000000D01*
G01*
X025001D02*
G03*
X025001Y031400I-004501J000000D01*
G01*
X036360Y014890D02*
G03*
X036360Y014890I-000050J000000D01*
G01*
X024363Y017319D02*
X025763Y011744D01*
X032773Y011757D02*
X034125Y017271D01*
X029215Y015917D02*
X029230Y010164D01*
X025763Y011744D02*
X032810Y011757D01*
D75*
X021942Y039180D02*
G03*
X021942Y039180I-000020J000000D01*
G01*
D76*
X038187Y030131D02*
G03*
X036252Y030107I-000983J001230D01*
G01*
X020913Y032669D02*
G03*
X022848Y032693I000983J-001230D01*
G01*
X041690Y042706D02*
G03*
X040339Y041321I-001565J000175D01*
G01*
X018599Y044408D02*
G03*
X019984Y043057I-000175J-001565D01*
G01*
X043390Y018906D02*
G03*
X042039Y017521I-001565J000175D01*
G01*
X036300Y013900D02*
Y014900D01*
X037900D01*
X037900Y013900D01*
X036300D02*
X037900D01*
X036258Y030113D02*
X038166D01*
X020934Y032687D02*
X022842D01*
X040339Y041329D02*
X041688Y042678D01*
X018626Y044406D02*
X019975Y043057D01*
X042039Y017529D02*
X043388Y018878D01*
D77*
X021913Y039022D02*
X021922D01*
X020978Y039022D02*
X020987Y039022D01*
X021913Y038078D02*
X021922Y038078D01*
X020978D02*
X020987D01*
X021922Y038824D02*
Y039022D01*
X021922Y038078D02*
X021922Y038276D01*
X020978Y038824D02*
Y039022D01*
Y038078D02*
Y038276D01*
M02*
