G04 Layer_Physical_Order=1*
G04 Layer_Color=255*
%FSAX24Y24*%
%MOIN*%
G70*
G01*
G75*
%ADD10C,0.0010*%
%ADD11C,0.0150*%
%ADD12R,0.0984X0.0472*%
%ADD13R,0.0985X0.0470*%
%ADD14C,0.0276*%
%ADD15R,0.0374X0.0551*%
%ADD16R,0.0453X0.0295*%
%ADD17O,0.0098X0.0197*%
%ADD18R,0.0532X0.0256*%
%ADD19C,0.0100*%
%ADD20C,0.0400*%
%ADD21C,0.0200*%
%ADD22O,0.0200X0.0500*%
%ADD23C,0.0709*%
%ADD24C,0.0524*%
%ADD25O,0.0600X0.0200*%
%ADD26O,0.0700X0.0350*%
G04:AMPARAMS|DCode=27|XSize=70mil|YSize=35mil|CornerRadius=0mil|HoleSize=0mil|Usage=FLASHONLY|Rotation=45.000|XOffset=0mil|YOffset=0mil|HoleType=Round|Shape=Round|*
%AMOVALD27*
21,1,0.0350,0.0350,0.0000,0.0000,45.0*
1,1,0.0350,-0.0124,-0.0124*
1,1,0.0350,0.0124,0.0124*
%
%ADD27OVALD27*%

G04:AMPARAMS|DCode=28|XSize=70mil|YSize=35mil|CornerRadius=0mil|HoleSize=0mil|Usage=FLASHONLY|Rotation=135.000|XOffset=0mil|YOffset=0mil|HoleType=Round|Shape=Round|*
%AMOVALD28*
21,1,0.0350,0.0350,0.0000,0.0000,135.0*
1,1,0.0350,0.0124,-0.0124*
1,1,0.0350,-0.0124,0.0124*
%
%ADD28OVALD28*%

%ADD29C,0.0250*%
%ADD30C,0.1900*%
%ADD31C,0.0350*%
%ADD32C,0.0300*%
G36*
X028098Y024326D02*
X028098D01*
Y022450D01*
X028106Y022411D01*
X028128Y022378D01*
X028161Y022356D01*
X028200Y022348D01*
X028616D01*
X028636Y022302D01*
X028511Y022177D01*
X028500Y022179D01*
X028412Y022162D01*
X028338Y022112D01*
X028288Y022038D01*
X028271Y021950D01*
X028288Y021862D01*
X028338Y021788D01*
X028412Y021738D01*
X028500Y021721D01*
X028588Y021738D01*
X028662Y021788D01*
X028712Y021862D01*
X028729Y021950D01*
X028727Y021961D01*
X029101Y022335D01*
X029147Y022315D01*
Y022018D01*
X029138Y022012D01*
X029088Y021938D01*
X029071Y021850D01*
X029088Y021762D01*
X029138Y021688D01*
X029212Y021638D01*
X029300Y021621D01*
X029388Y021638D01*
X029462Y021688D01*
X029512Y021762D01*
X029529Y021850D01*
X029512Y021938D01*
X029462Y022012D01*
X029453Y022018D01*
Y022337D01*
X029701Y022585D01*
X029747Y022565D01*
Y022068D01*
X029738Y022062D01*
X029688Y021988D01*
X029671Y021900D01*
X029688Y021812D01*
X029738Y021738D01*
X029812Y021688D01*
X029900Y021671D01*
X029921Y021650D01*
X029938Y021562D01*
X029988Y021488D01*
X030062Y021438D01*
X030150Y021421D01*
X030184Y021427D01*
D01*
X030238Y021438D01*
X030299Y021479D01*
X030308Y021477D01*
X030316Y021467D01*
X030323Y021457D01*
X030330Y021453D01*
X030335Y021447D01*
X030346Y021442D01*
X030356Y021435D01*
X030364Y021434D01*
X030371Y021430D01*
X030383Y021430D01*
X030395Y021427D01*
X031286Y021427D01*
X031298D01*
Y020102D01*
X027100D01*
X027061Y020094D01*
X027048Y020085D01*
X027037Y020092D01*
X026998Y020100D01*
X026900D01*
Y020110D01*
Y024321D01*
Y024332D01*
X028098D01*
Y024326D01*
D02*
G37*
G36*
X021273Y034983D02*
X028850Y027406D01*
X028850Y022459D01*
X028841Y022450D01*
X028200D01*
X028200Y026225D01*
X025341Y029090D01*
X025043Y029375D01*
X022303Y032118D01*
X022315Y032176D01*
X022296Y032268D01*
X022244Y032346D01*
X022167Y032398D01*
X022075Y032416D01*
X022006D01*
X019800Y034623D01*
X019800Y036572D01*
X019835Y036607D01*
X021250Y036607D01*
X021273Y034983D01*
D02*
G37*
G36*
X032700Y021904D02*
X032638Y021862D01*
X032588Y021788D01*
X032571Y021700D01*
X032588Y021612D01*
X032638Y021538D01*
X032682Y021508D01*
Y013200D01*
X031300D01*
X031300Y018895D01*
X027100Y018895D01*
X027100Y020000D01*
X031400D01*
Y023000D01*
X032700D01*
Y021904D01*
D02*
G37*
G36*
X041534Y047289D02*
X041534Y047289D01*
X041535Y047288D01*
X041576Y047265D01*
X041596Y047253D01*
X041637Y047229D01*
X041678Y047205D01*
X041678Y047205D01*
X041699Y047193D01*
Y047193D01*
X041738Y047163D01*
X041739Y047162D01*
X043414Y045552D01*
X043448Y045520D01*
X043448Y045520D01*
X043448Y045520D01*
X043449Y045428D01*
X043451Y045245D01*
X043451Y045062D01*
X043449Y044879D01*
X043448Y044787D01*
X043420Y044182D01*
X043326Y043483D01*
X042893Y041693D01*
X042769Y041315D01*
X042509Y040563D01*
X042238Y039815D01*
X041957Y039071D01*
X041811Y038701D01*
X041890Y038311D01*
X041994Y037908D01*
X042207Y037509D01*
X042207Y037509D01*
X042207Y037509D01*
X042254Y037444D01*
X042351Y037316D01*
X042450Y037190D01*
X042551Y037064D01*
X042602Y037002D01*
X042602Y037002D01*
X042625Y036963D01*
X042670Y036885D01*
X042717Y036807D01*
X042765Y036730D01*
X042789Y036692D01*
X042798Y036672D01*
X042798Y036672D01*
X042800Y036667D01*
X042805Y036656D01*
X042809Y036645D01*
X042813Y036634D01*
X042814Y036628D01*
X042821Y036603D01*
X042821Y036603D01*
X042824Y036594D01*
X042830Y036575D01*
X042835Y036556D01*
X042841Y036538D01*
X042844Y036529D01*
X042860Y036479D01*
X042868Y036455D01*
X042876Y036430D01*
X042893Y036379D01*
X042912Y036327D01*
X042951Y036219D01*
X042993Y036107D01*
X042993Y036107D01*
X043007Y036070D01*
X043036Y035997D01*
X043065Y035923D01*
X043095Y035850D01*
X043110Y035814D01*
X043110Y035814D01*
X043138Y035746D01*
X043194Y035610D01*
X043248Y035474D01*
X043300Y035337D01*
X043326Y035268D01*
X043326Y035268D01*
X043353Y035197D01*
X043406Y035054D01*
X043457Y034910D01*
X043508Y034767D01*
X043532Y034695D01*
X043532Y034695D01*
X043662Y034312D01*
X043896Y033540D01*
X044104Y032760D01*
X044287Y031973D01*
X044365Y031577D01*
X044365Y031577D01*
X044354Y031355D01*
X044324Y030912D01*
X044283Y030470D01*
X044234Y030029D01*
X044204Y029809D01*
X044204Y029809D01*
X044147Y029606D01*
X044025Y029204D01*
X043897Y028804D01*
X043761Y028406D01*
X043690Y028209D01*
X043690Y028209D01*
X043637Y028096D01*
X043527Y027873D01*
X043415Y027650D01*
X043301Y027429D01*
X043242Y027319D01*
X043242Y027319D01*
X043166Y027231D01*
X043006Y027059D01*
X042841Y026894D01*
X042670Y026735D01*
X042581Y026658D01*
X042581Y026658D01*
X042463Y026548D01*
X042221Y026335D01*
X041972Y026130D01*
X041717Y025932D01*
X041587Y025837D01*
X041516Y025785D01*
X041442Y025732D01*
X041145Y025516D01*
X041078Y025467D01*
X041016Y025422D01*
X040914Y025348D01*
X040914Y025347D01*
X040860Y025308D01*
X040751Y025232D01*
X040641Y025157D01*
X040530Y025085D01*
X040473Y025050D01*
X040473Y025050D01*
X040444Y025031D01*
X040384Y024995D01*
X040324Y024959D01*
X040264Y024924D01*
X040234Y024906D01*
X040106Y024834D01*
X039971Y024761D01*
X039971Y024760D01*
X039935Y024741D01*
X039862Y024703D01*
X039789Y024665D01*
X039715Y024627D01*
X039679Y024609D01*
X039679Y024608D01*
X039676Y024607D01*
X039670Y024604D01*
X039665Y024602D01*
X039659Y024599D01*
X039657Y024597D01*
X039656Y024597D01*
X039543Y024537D01*
X039315Y024422D01*
X039085Y024312D01*
X038852Y024206D01*
X038735Y024155D01*
X038735Y024155D01*
X038617Y024104D01*
X038380Y024007D01*
X038141Y023913D01*
X037901Y023824D01*
X037780Y023782D01*
X037320Y023637D01*
X037096Y023570D01*
X037096Y023570D01*
X037070Y023562D01*
X037018Y023546D01*
X036967Y023530D01*
X036915Y023514D01*
X036889Y023505D01*
X036889Y023505D01*
X036865Y023497D01*
X036817Y023481D01*
X036770Y023464D01*
X036722Y023447D01*
X036698Y023438D01*
X036698Y023438D01*
X036676Y023429D01*
X036631Y023411D01*
X036587Y023392D01*
X036543Y023372D01*
X036521Y023362D01*
X036521Y023362D01*
X036457Y023330D01*
X036333Y023258D01*
X036217Y023175D01*
X036110Y023080D01*
X036059Y023029D01*
X036059Y023029D01*
X036041Y023010D01*
X036006Y022970D01*
X035972Y022928D01*
X035940Y022886D01*
X035924Y022865D01*
X035924Y022865D01*
X035888Y022812D01*
X035819Y022704D01*
X035756Y022593D01*
X035699Y022479D01*
X035672Y022421D01*
X035672Y022421D01*
X035669Y022407D01*
X035663Y022379D01*
X035658Y022350D01*
X035653Y022322D01*
X035651Y022307D01*
X035651Y022307D01*
X035649Y022294D01*
X035645Y022268D01*
X035642Y022242D01*
X035639Y022216D01*
X035637Y022203D01*
X035634Y022162D01*
X035631Y022079D01*
X035632Y021996D01*
X035639Y021914D01*
X035645Y021872D01*
X035645Y021872D01*
X035646Y021864D01*
X035649Y021847D01*
X035652Y021831D01*
X035655Y021814D01*
X035657Y021806D01*
X035657Y021806D01*
X035658Y021798D01*
X035661Y021783D01*
X035665Y021768D01*
X035668Y021752D01*
X035670Y021745D01*
X035697Y021632D01*
X035697Y021632D01*
X035705Y021599D01*
X035722Y021535D01*
X035740Y021470D01*
X035760Y021406D01*
X035770Y021374D01*
X035770Y021374D01*
X035776Y021356D01*
X035788Y021321D01*
X035800Y021285D01*
X035813Y021249D01*
X035819Y021232D01*
X035843Y021168D01*
X035866Y021109D01*
X035889Y021053D01*
X035929Y020952D01*
X035929Y020952D01*
X035931Y020947D01*
X035933Y020936D01*
X035935Y020926D01*
X035938Y020916D01*
X035939Y020911D01*
X035939Y020911D01*
X035943Y020895D01*
X035951Y020862D01*
X035961Y020830D01*
X035970Y020798D01*
X035976Y020782D01*
X035985Y020756D01*
X035993Y020732D01*
X036002Y020708D01*
X036018Y020662D01*
X036029Y020630D01*
X036040Y020599D01*
X036051Y020569D01*
X036061Y020540D01*
X036070Y020513D01*
X036079Y020488D01*
X036087Y020466D01*
X036093Y020445D01*
X036093Y020445D01*
X036095Y020441D01*
X036097Y020433D01*
X036100Y020426D01*
X036102Y020418D01*
X036103Y020414D01*
X036103Y020414D01*
X036105Y020408D01*
X036108Y020398D01*
X036111Y020388D01*
X036114Y020377D01*
X036116Y020372D01*
X036133Y020310D01*
X036154Y020232D01*
X036179Y020139D01*
X036265Y019807D01*
X036295Y019689D01*
X036352Y019459D01*
X036432Y019129D01*
X036479Y018940D01*
X036488Y018901D01*
X036496Y018869D01*
X036502Y018841D01*
X036508Y018816D01*
X036514Y018793D01*
X036519Y018769D01*
X036526Y018743D01*
X036534Y018712D01*
X036557Y018633D01*
X036557Y018633D01*
X036561Y018620D01*
X036568Y018596D01*
X036576Y018572D01*
X036583Y018548D01*
X036588Y018536D01*
X036588Y018536D01*
X036591Y018526D01*
X036598Y018505D01*
X036606Y018485D01*
X036614Y018465D01*
X036618Y018455D01*
X036618Y018455D01*
X036621Y018446D01*
X036628Y018429D01*
X036635Y018413D01*
X036643Y018396D01*
X036647Y018388D01*
X036647Y018388D01*
X036650Y018381D01*
X036657Y018367D01*
X036664Y018353D01*
X036672Y018339D01*
X036675Y018332D01*
X036675Y018332D01*
X036682Y018322D01*
X036694Y018301D01*
X036708Y018280D01*
X036722Y018260D01*
X036729Y018250D01*
X036729Y018250D01*
X036732Y018246D01*
X036739Y018239D01*
X036745Y018231D01*
X036751Y018223D01*
X036755Y018220D01*
X036755Y018219D01*
X036758Y018216D01*
X036763Y018210D01*
X036769Y018203D01*
X036775Y018197D01*
X036778Y018193D01*
X036778Y018193D01*
X036784Y018187D01*
X036795Y018176D01*
X036805Y018164D01*
X036816Y018153D01*
X036821Y018147D01*
X036840Y018124D01*
X036840Y018124D01*
X036849Y018114D01*
X036866Y018095D01*
X036876Y018084D01*
X036884Y018076D01*
X036884Y018076D01*
X036901Y018058D01*
X036907Y018051D01*
X036910Y018048D01*
X036910Y018048D01*
X036914Y018044D01*
X036922Y018037D01*
X036922Y018037D01*
X036930Y018029D01*
X036930Y018029D01*
X036938Y018021D01*
X036938Y018021D01*
X036942Y018017D01*
X036942Y018017D01*
X036945Y018014D01*
X036958Y018002D01*
X036989Y017974D01*
X036989Y017974D01*
X037004Y017961D01*
X037033Y017934D01*
X037064Y017909D01*
X037094Y017884D01*
X037105Y017875D01*
X037110Y017871D01*
X037110Y017871D01*
X037121Y017862D01*
X037144Y017845D01*
X037144Y017845D01*
X037146Y017843D01*
X037168Y017827D01*
X037191Y017810D01*
X037196Y017807D01*
X037196Y017807D01*
X037196Y017807D01*
X037201Y017803D01*
X037203Y017802D01*
X037215Y017793D01*
X037239Y017776D01*
X037240Y017776D01*
X037241Y017775D01*
X037264Y017759D01*
X037301Y017735D01*
X037331Y017715D01*
X037360Y017695D01*
X037366Y017691D01*
X037376Y017684D01*
X037399Y017667D01*
X037414Y017656D01*
X037443Y017633D01*
X037456Y017622D01*
X037467Y017613D01*
X037470Y017610D01*
X037507Y017576D01*
X037526Y017559D01*
X037560Y017522D01*
X037592Y017483D01*
X037607Y017463D01*
X037606Y017463D01*
X037614Y017452D01*
X037629Y017430D01*
X037644Y017408D01*
X037657Y017386D01*
X037664Y017374D01*
X037664Y017374D01*
X037671Y017361D01*
X037685Y017336D01*
X037697Y017311D01*
X037710Y017285D01*
X037715Y017271D01*
X037715Y017271D01*
X037722Y017257D01*
X037734Y017227D01*
X037745Y017197D01*
X037756Y017167D01*
X037761Y017152D01*
X037761Y017152D01*
X037767Y017135D01*
X037778Y017100D01*
X037788Y017065D01*
X037798Y017031D01*
X037802Y017013D01*
X037802Y017013D01*
X037813Y016970D01*
X037833Y016884D01*
X037850Y016797D01*
X037866Y016710D01*
X037873Y016666D01*
X037879Y016630D01*
X037890Y016561D01*
X037901Y016495D01*
X037913Y016432D01*
X037930Y016344D01*
X037932Y016330D01*
X037935Y016317D01*
X037938Y016303D01*
X037941Y016290D01*
X037941Y016290D01*
X037943Y016279D01*
X037948Y016258D01*
X037952Y016237D01*
X037957Y016216D01*
X037960Y016205D01*
X037962Y016197D01*
X037964Y016189D01*
X037966Y016181D01*
X037966Y016181D01*
X037966Y016178D01*
X037968Y016171D01*
X037970Y016164D01*
X037972Y016157D01*
X037973Y016153D01*
X037976Y016142D01*
X037979Y016130D01*
X037988Y016103D01*
X037990Y016095D01*
X037993Y016087D01*
X037993Y016087D01*
X037994Y016081D01*
X037998Y016071D01*
X038001Y016061D01*
X038005Y016051D01*
X038006Y016046D01*
X038011Y016034D01*
X038016Y016020D01*
X038016Y016020D01*
X038018Y016016D01*
X038021Y016008D01*
X038024Y016000D01*
X038028Y015992D01*
X038029Y015988D01*
X038029Y015987D01*
X038030Y015985D01*
X038032Y015981D01*
X038033Y015976D01*
X038035Y015972D01*
X038035Y015969D01*
X038035Y015969D01*
X038036Y015967D01*
X038037Y015962D01*
X038038Y015957D01*
X038039Y015952D01*
X038040Y015950D01*
X038040Y015950D01*
X038041Y015944D01*
X038044Y015931D01*
X038048Y015919D01*
X038052Y015907D01*
X038054Y015901D01*
X038054Y015901D01*
X038055Y015897D01*
X038059Y015889D01*
X038062Y015881D01*
X038066Y015874D01*
X038068Y015870D01*
X038068Y015870D01*
X038070Y015865D01*
X038075Y015855D01*
X038081Y015846D01*
X038086Y015836D01*
X038089Y015832D01*
X038089Y015831D01*
X038093Y015826D01*
X038101Y015814D01*
X038109Y015802D01*
X038117Y015791D01*
X038121Y015785D01*
X038121Y015785D01*
X038126Y015778D01*
X038137Y015764D01*
X038148Y015751D01*
X038159Y015737D01*
X038164Y015730D01*
X038164Y015730D01*
X038180Y015712D01*
X038213Y015675D01*
X038246Y015640D01*
X038280Y015605D01*
X038297Y015587D01*
X038297Y015587D01*
X038305Y015579D01*
X038321Y015564D01*
X038338Y015549D01*
X038339Y015549D01*
X038356Y015534D01*
X038361Y015530D01*
X038364Y015527D01*
X038374Y015520D01*
X038374Y015520D01*
X038394Y015505D01*
X038394Y015505D01*
X038401Y015499D01*
X038414Y015490D01*
X038414Y015490D01*
X038434Y015476D01*
X038441Y015472D01*
X038444Y015469D01*
X038444Y015469D01*
X038444D01*
X038455Y015462D01*
X038477Y015448D01*
X038478Y015448D01*
X038484Y015444D01*
X038500Y015434D01*
X038523Y015421D01*
X038535Y015414D01*
X038535Y015414D01*
X038559Y015401D01*
X038610Y015375D01*
X038661Y015352D01*
X038695Y015337D01*
X038713Y015330D01*
X038736Y015321D01*
X038739Y015320D01*
X038739Y015320D01*
X038739Y015320D01*
X038766Y015310D01*
X038783Y015304D01*
X038821Y015291D01*
X038877Y015275D01*
X038917Y015264D01*
X038934Y015260D01*
X038960Y015254D01*
X038962Y015254D01*
Y015254D01*
X038962D01*
X038976Y015251D01*
X039004Y015246D01*
X039004Y015245D01*
X039008Y015245D01*
X039028Y015241D01*
X039033Y015241D01*
X039033Y015241D01*
X039061Y015237D01*
X039074Y015235D01*
X039075Y015235D01*
Y015235D01*
X039076D01*
X039103Y015232D01*
X039123Y015230D01*
X039159Y015228D01*
X039214Y015227D01*
X039247Y015228D01*
X039248Y015228D01*
X039248Y015228D01*
X039270Y015229D01*
X039297Y015231D01*
Y015231D01*
X039299Y015231D01*
X039310Y015233D01*
X039335Y015236D01*
X039336Y015236D01*
X039345Y015237D01*
X039361Y015239D01*
X039362Y015239D01*
X039387Y015243D01*
X039400Y015245D01*
X039400D01*
X039400Y015246D01*
X039458Y015257D01*
X039572Y015288D01*
X039683Y015332D01*
X039788Y015386D01*
X039839Y015418D01*
X039839D01*
X039856Y015429D01*
X039857Y015430D01*
X039869Y015438D01*
X039874Y015442D01*
X039881Y015447D01*
X039887Y015451D01*
X039887D01*
X039895Y015457D01*
X039897Y015459D01*
X039917Y015474D01*
X039918Y015474D01*
X039924Y015480D01*
X039938Y015490D01*
X039938Y015490D01*
X039957Y015506D01*
X039967Y015515D01*
X039967D01*
X039991Y015535D01*
X039991Y015535D01*
X039999Y015542D01*
X040007Y015549D01*
X040007Y015549D01*
X040023Y015563D01*
X040031Y015570D01*
X040031D01*
X040050Y015588D01*
X040051Y015588D01*
X040064Y015601D01*
X040064Y015601D01*
X040077Y015613D01*
X040083Y015619D01*
X040083Y015619D01*
X040099Y015636D01*
X040100Y015636D01*
X040110Y015647D01*
X040114Y015651D01*
X040121Y015658D01*
X040126Y015664D01*
X040126Y015664D01*
X040139Y015679D01*
X040139Y015679D01*
X040148Y015689D01*
X040157Y015699D01*
X040161Y015704D01*
X040161Y015704D01*
X040161Y015704D01*
X040165Y015710D01*
X040167Y015712D01*
X040180Y015729D01*
X040180Y015729D01*
X040186Y015738D01*
X040192Y015746D01*
X040192Y015746D01*
X040204Y015764D01*
X040210Y015773D01*
X040210D01*
X040216Y015784D01*
X040221Y015791D01*
X040221Y015791D01*
X040225Y015798D01*
X040227Y015802D01*
X040227Y015802D01*
X040235Y015816D01*
X040266Y015874D01*
X040281Y015902D01*
X040281Y015902D01*
X040281Y015902D01*
X040286Y015912D01*
X040287Y015912D01*
X040290Y015918D01*
X040290Y015919D01*
X040297Y015932D01*
X040297Y015932D01*
X040297Y015932D01*
X040302Y015941D01*
X040302Y015941D01*
X040302Y015941D01*
X040303Y015942D01*
X040307Y015951D01*
X040307Y015951D01*
X040310Y015956D01*
X040315Y015965D01*
X040317Y015970D01*
X040332Y016000D01*
X040332Y016000D01*
X040336Y016010D01*
X040346Y016030D01*
X040359Y016061D01*
X040365Y016077D01*
X040371Y016092D01*
X040374Y016099D01*
X040375Y016102D01*
X040375Y016102D01*
X040384Y016127D01*
X040402Y016175D01*
X040419Y016225D01*
X040419D01*
X040432Y016262D01*
X040441Y016287D01*
X040449Y016312D01*
X040453Y016324D01*
X040469Y016375D01*
X040485Y016426D01*
X040501Y016478D01*
X040516Y016530D01*
X040531Y016584D01*
X040561Y016694D01*
X040592Y016809D01*
X040592D01*
X040603Y016854D01*
X040614Y016896D01*
X040629Y016954D01*
X040639Y016996D01*
X040643Y017013D01*
X040650Y017042D01*
X040661Y017089D01*
X040671Y017132D01*
X040685Y017191D01*
X040698Y017251D01*
X040705Y017281D01*
X040730Y017401D01*
X040753Y017521D01*
X040753D01*
X040761Y017566D01*
X040766Y017594D01*
X040766Y017596D01*
X040766Y017596D01*
X040771Y017626D01*
X040774Y017641D01*
X040788Y017729D01*
X040796Y017788D01*
X040804Y017847D01*
X040808Y017877D01*
X040818Y017960D01*
X040828Y018051D01*
X040838Y018149D01*
X040847Y018251D01*
X040847Y018251D01*
X040847Y018251D01*
X040854Y018331D01*
X040868Y018492D01*
X040881Y018653D01*
X040892Y018814D01*
X040897Y018895D01*
X040904Y019004D01*
X040911Y019094D01*
X040914Y019122D01*
X040914Y019128D01*
X040918Y019175D01*
X040921Y019201D01*
X040925Y019238D01*
X040926Y019243D01*
X040929Y019265D01*
X040953Y019279D01*
X040958Y019280D01*
X040974Y019281D01*
X040980Y019280D01*
X041038Y019236D01*
X041104Y019208D01*
X041176Y019199D01*
X041206Y019203D01*
X041251Y019158D01*
X041247Y019128D01*
X041256Y019056D01*
X041284Y018990D01*
X041328Y018932D01*
X041386Y018888D01*
X041452Y018860D01*
X041524Y018851D01*
X041554Y018855D01*
X041599Y018810D01*
X041595Y018780D01*
X041604Y018708D01*
X041631Y018645D01*
X041943Y018957D01*
X042255Y019269D01*
X042192Y019296D01*
X042120Y019305D01*
X042090Y019301D01*
X042045Y019346D01*
X042047Y019363D01*
X042376Y019691D01*
X042394Y019695D01*
X042437Y019682D01*
X042439Y019680D01*
X042456Y019648D01*
X042472Y019616D01*
X042488Y019583D01*
X042496Y019567D01*
X042532Y019491D01*
X042532Y019491D01*
X042536Y019483D01*
X042544Y019467D01*
X042551Y019450D01*
X042558Y019434D01*
X042562Y019426D01*
X042562Y019426D01*
X042565Y019419D01*
X042571Y019404D01*
X042577Y019390D01*
X042583Y019375D01*
X042585Y019367D01*
X042585Y019367D01*
X042587Y019360D01*
X042592Y019346D01*
X042597Y019332D01*
X042601Y019318D01*
X042602Y019311D01*
X042602Y019311D01*
X042604Y019304D01*
X042608Y019289D01*
X042611Y019274D01*
X042613Y019260D01*
X042614Y019252D01*
X042614Y019252D01*
X042615Y019244D01*
X042618Y019227D01*
X042620Y019211D01*
X042621Y019195D01*
X042622Y019186D01*
X042621Y019186D01*
X042622Y019176D01*
X042623Y019157D01*
X042624Y019138D01*
X042624Y019119D01*
X042624Y019109D01*
X042624Y019109D01*
X042624Y019106D01*
X042625Y019100D01*
X042625Y019094D01*
X042625Y019088D01*
X042625Y019085D01*
X042624Y019084D01*
X042624Y019076D01*
X042624Y019059D01*
X042624Y019041D01*
X042624Y019024D01*
X042624Y019016D01*
X042623Y019015D01*
X042623Y018984D01*
X042622Y018968D01*
X042571Y018935D01*
X042539Y018948D01*
X042468Y018957D01*
X042438Y018953D01*
X042393Y018998D01*
X042397Y019028D01*
X042388Y019100D01*
X042361Y019163D01*
X042049Y018851D01*
X041737Y018539D01*
X041800Y018512D01*
X041872Y018503D01*
X041902Y018507D01*
X041947Y018462D01*
X041943Y018432D01*
X041952Y018361D01*
X041980Y018294D01*
X042024Y018236D01*
X042082Y018192D01*
X042148Y018164D01*
X042220Y018155D01*
X042292Y018164D01*
X042359Y018192D01*
X042416Y018236D01*
X042528Y018348D01*
X042573Y018326D01*
X042565Y018256D01*
X042503Y017922D01*
X042418Y017593D01*
X042365Y017431D01*
X042365Y017431D01*
X042324Y017305D01*
X042229Y017057D01*
X042122Y016814D01*
X042005Y016576D01*
X041940Y016460D01*
X041940Y016460D01*
X041871Y016337D01*
X041723Y016096D01*
X041564Y015862D01*
X041395Y015635D01*
X041306Y015526D01*
X041306Y015526D01*
X041296Y015513D01*
X041276Y015489D01*
X041255Y015464D01*
X041234Y015440D01*
X041223Y015428D01*
X041223Y015428D01*
X041210Y015413D01*
X041185Y015385D01*
X041159Y015356D01*
X041134Y015328D01*
X041121Y015314D01*
X041120Y015314D01*
X041106Y015298D01*
X041076Y015267D01*
X041047Y015235D01*
X041017Y015204D01*
X041002Y015188D01*
X041002Y015188D01*
X040951Y015136D01*
X040849Y015031D01*
X040745Y014928D01*
X040640Y014826D01*
X040587Y014776D01*
X040440Y014638D01*
X040440Y014638D01*
X040422Y014622D01*
X040385Y014589D01*
X040349Y014556D01*
X040313Y014523D01*
X040295Y014507D01*
X040294Y014507D01*
X040261Y014477D01*
X040194Y014419D01*
X040126Y014361D01*
X040058Y014304D01*
X040023Y014276D01*
X040023Y014276D01*
X040009Y014265D01*
X039979Y014242D01*
X039950Y014219D01*
X039921Y014196D01*
X039906Y014185D01*
X039760Y014078D01*
X039595Y013959D01*
X039595Y013959D01*
X039528Y013912D01*
X039395Y013819D01*
X039261Y013726D01*
X039127Y013634D01*
X039059Y013589D01*
X038895Y013479D01*
X038751Y013385D01*
X038751Y013385D01*
X038727Y013369D01*
X038680Y013339D01*
X038632Y013309D01*
X038621Y013303D01*
X036375D01*
X035964Y013714D01*
X035901Y013762D01*
X035828Y013792D01*
X035750Y013803D01*
X035500D01*
X035482Y013816D01*
X035394Y013852D01*
X035300Y013865D01*
X035206Y013852D01*
X035118Y013816D01*
X035042Y013758D01*
X034984Y013682D01*
X034948Y013594D01*
X034935Y013500D01*
X034948Y013406D01*
X034984Y013318D01*
X035042Y013242D01*
X035118Y013184D01*
X035206Y013147D01*
X035300Y013135D01*
X035394Y013147D01*
X035482Y013184D01*
X035500Y013197D01*
X035625D01*
X036036Y012786D01*
X036099Y012738D01*
X036172Y012708D01*
X036250Y012697D01*
X036250Y012697D01*
X037811D01*
X037824Y012688D01*
X037830Y012680D01*
X037843Y012647D01*
X037841Y012645D01*
X037831Y012620D01*
X037821Y012594D01*
X037813Y012569D01*
X037809Y012556D01*
X037809Y012556D01*
X037804Y012540D01*
X037795Y012507D01*
X037788Y012475D01*
X037781Y012442D01*
X037778Y012425D01*
X037778Y012425D01*
X037771Y012379D01*
X037761Y012287D01*
X037760Y012279D01*
X037679Y012271D01*
X037531Y012226D01*
X037457Y012186D01*
X037443Y012179D01*
X037439Y012178D01*
X037413Y012163D01*
X037382Y012140D01*
X037382Y012140D01*
X037381Y012139D01*
X037347Y012105D01*
X037105Y011881D01*
X037104Y011881D01*
X037104D01*
X037039Y011821D01*
X036821Y011649D01*
X036743Y011593D01*
X036540Y011481D01*
X036508Y011464D01*
X036504Y011463D01*
X036480Y011451D01*
X036452Y011435D01*
X036251Y011324D01*
X036142Y011279D01*
X036104Y011263D01*
X036098Y011257D01*
X036053Y011235D01*
X035654Y011070D01*
X035219Y010933D01*
X034856Y010852D01*
X034770Y010869D01*
X034682Y010852D01*
X034608Y010802D01*
X034558Y010728D01*
X034541Y010640D01*
X034558Y010552D01*
X034590Y010505D01*
X034563Y010455D01*
X032500Y010453D01*
X032408Y010441D01*
X032323Y010406D01*
X032257Y010355D01*
X030910D01*
Y010314D01*
X027960D01*
Y010355D01*
X026843D01*
X026777Y010406D01*
X026691Y010441D01*
X026600Y010453D01*
X025107Y010453D01*
X023740Y010455D01*
X022524Y010457D01*
X022270Y010458D01*
X022242Y010500D01*
X022281Y010594D01*
X022301Y010744D01*
X022288Y010843D01*
X022316Y010885D01*
X022319Y010902D01*
X022376Y010931D01*
X022564Y010844D01*
X022975Y010693D01*
X023143Y010645D01*
X023168Y010608D01*
X023242Y010558D01*
X023330Y010541D01*
X023418Y010558D01*
X023492Y010608D01*
X023542Y010682D01*
X023559Y010770D01*
X023542Y010858D01*
X023492Y010932D01*
X023418Y010982D01*
X023330Y010999D01*
X023248Y010983D01*
X022912Y011089D01*
X022513Y011254D01*
X022469Y011276D01*
X022462Y011282D01*
X022424Y011298D01*
X022315Y011343D01*
X022114Y011454D01*
X022086Y011470D01*
X022062Y011482D01*
X022059Y011483D01*
X022026Y011500D01*
X021823Y011612D01*
X021745Y011667D01*
X021527Y011839D01*
X021462Y011899D01*
X021462D01*
X021461Y011899D01*
X021295Y012054D01*
X021299Y012070D01*
X021304Y012095D01*
X021308Y012120D01*
X021310Y012132D01*
X021314Y012161D01*
X021321Y012218D01*
X021325Y012276D01*
X021327Y012325D01*
X021327Y012335D01*
X021327Y012335D01*
X021327Y012364D01*
X021327Y012365D01*
Y012365D01*
X021328Y012368D01*
X021328Y012368D01*
X021328Y012370D01*
X021327Y012373D01*
X021327Y012374D01*
X021327Y012374D01*
X021327Y012374D01*
X021327Y012382D01*
X021327Y012399D01*
X021327Y012415D01*
X021327Y012431D01*
X021327Y012439D01*
X021327Y012446D01*
X021326Y012459D01*
X021326Y012472D01*
X021325Y012485D01*
X021325Y012486D01*
X021325Y012486D01*
X021325Y012492D01*
X021325Y012498D01*
X021325Y012498D01*
X021324Y012508D01*
X021324Y012508D01*
X021324Y012518D01*
X021324Y012519D01*
X021323Y012529D01*
X021322Y012534D01*
X021322Y012538D01*
X021321Y012546D01*
X021321Y012546D01*
X021321Y012554D01*
X021321Y012554D01*
X021320Y012562D01*
X021320Y012562D01*
X021319Y012565D01*
X021319Y012569D01*
X021318Y012574D01*
X021318Y012575D01*
X021317Y012581D01*
X021317Y012582D01*
X021316Y012586D01*
X021316Y012587D01*
X021315Y012589D01*
X021315Y012593D01*
X021315Y012593D01*
X021313Y012601D01*
X021313Y012601D01*
X021311Y012609D01*
X021311Y012609D01*
X021308Y012616D01*
X021308Y012617D01*
X021302Y012636D01*
X021294Y012664D01*
X021293Y012668D01*
X021290Y012679D01*
X021290Y012680D01*
X021288Y012691D01*
X021288Y012691D01*
X021285Y012703D01*
X021285Y012703D01*
X021283Y012709D01*
X021281Y012717D01*
X021279Y012725D01*
X021275Y012740D01*
X021271Y012755D01*
X021263Y012785D01*
X021258Y012800D01*
X021254Y012814D01*
X021250Y012829D01*
X021246Y012844D01*
X021241Y012858D01*
X021232Y012889D01*
X021222Y012921D01*
X021202Y012987D01*
X021179Y013057D01*
X021118Y013243D01*
X021097Y013307D01*
X021073Y013380D01*
X021047Y013462D01*
X020967Y013728D01*
X020941Y013816D01*
X020917Y013899D01*
X020917Y013899D01*
X020904Y013944D01*
X020902Y013953D01*
X020892Y013989D01*
X020882Y014025D01*
X020877Y014043D01*
X020866Y014085D01*
X020844Y014169D01*
X020823Y014254D01*
X020802Y014339D01*
X020792Y014382D01*
X020792D01*
X020783Y014422D01*
X020765Y014503D01*
X020747Y014583D01*
X020730Y014664D01*
X020722Y014705D01*
X020714Y014743D01*
X020699Y014820D01*
X020685Y014897D01*
X020671Y014974D01*
X020664Y015013D01*
X020658Y015049D01*
X020647Y015122D01*
X020635Y015195D01*
X020625Y015267D01*
X020620Y015304D01*
X020616Y015338D01*
X020607Y015407D01*
X020599Y015476D01*
X020592Y015544D01*
X020588Y015579D01*
X020585Y015611D01*
X020580Y015675D01*
X020575Y015740D01*
X020571Y015804D01*
X020569Y015837D01*
X020567Y015867D01*
X020564Y015927D01*
X020562Y015987D01*
X020561Y016047D01*
X020560Y016077D01*
X020560Y016105D01*
X020560Y016161D01*
X020561Y016217D01*
X020562Y016251D01*
X020563Y016300D01*
X020563Y016300D01*
X020563D01*
X020565Y016349D01*
X020571Y016447D01*
X020580Y016545D01*
X020592Y016642D01*
X020599Y016691D01*
X020602Y016712D01*
X020609Y016754D01*
X020617Y016796D01*
X020625Y016837D01*
X020629Y016858D01*
X020633Y016877D01*
X020641Y016914D01*
X020650Y016951D01*
X020653Y016961D01*
X020664Y017006D01*
X020677Y017051D01*
X020678Y017056D01*
X020689Y017089D01*
X020699Y017121D01*
X020705Y017138D01*
X020710Y017152D01*
X020721Y017182D01*
X020733Y017211D01*
X020745Y017240D01*
X020751Y017254D01*
X020763Y017280D01*
X020788Y017330D01*
X020816Y017378D01*
X020846Y017425D01*
X020862Y017448D01*
X020877Y017469D01*
X020910Y017510D01*
X020944Y017548D01*
X020980Y017585D01*
X020999Y017603D01*
X021018Y017621D01*
X021058Y017655D01*
X021099Y017687D01*
X021142Y017718D01*
X021163Y017732D01*
X021165Y017734D01*
X021169Y017736D01*
X021172Y017738D01*
X021176Y017741D01*
X021178Y017742D01*
X021212Y017763D01*
X021212Y017763D01*
X021221Y017769D01*
X021239Y017780D01*
X021239Y017781D01*
X021256Y017792D01*
X021274Y017804D01*
X021282Y017810D01*
X021286Y017813D01*
X021294Y017818D01*
X021301Y017824D01*
X021308Y017829D01*
X021312Y017832D01*
X021316Y017835D01*
X021325Y017842D01*
X021333Y017848D01*
X021341Y017855D01*
X021345Y017858D01*
X021355Y017866D01*
X021375Y017882D01*
X021395Y017898D01*
X021414Y017915D01*
X021424Y017923D01*
X021430Y017928D01*
X021441Y017938D01*
X021452Y017948D01*
X021463Y017959D01*
X021469Y017964D01*
X021475Y017970D01*
X021486Y017981D01*
X021486Y017981D01*
X021498Y017993D01*
X021498Y017993D01*
X021509Y018005D01*
X021515Y018011D01*
X021521Y018017D01*
X021532Y018029D01*
X021532Y018030D01*
X021544Y018042D01*
X021544Y018043D01*
X021548Y018047D01*
X021555Y018056D01*
X021561Y018062D01*
X021573Y018076D01*
X021596Y018104D01*
X021619Y018132D01*
X021641Y018161D01*
X021652Y018175D01*
X021663Y018190D01*
X021684Y018220D01*
X021705Y018250D01*
X021725Y018280D01*
X021735Y018296D01*
X021735D01*
X021740Y018303D01*
X021749Y018317D01*
X021749Y018318D01*
X021758Y018333D01*
X021758Y018333D01*
X021760Y018335D01*
X021760Y018335D01*
X021760Y018336D01*
X021767Y018348D01*
X021772Y018356D01*
X021780Y018370D01*
X021796Y018398D01*
X021811Y018427D01*
X021825Y018456D01*
X021832Y018471D01*
X021832Y018471D01*
X021838Y018484D01*
X021849Y018510D01*
X021849Y018510D01*
X021851Y018513D01*
X021861Y018536D01*
X021871Y018563D01*
X021877Y018576D01*
X021890Y018609D01*
X021915Y018675D01*
X021938Y018742D01*
X021959Y018810D01*
X021968Y018844D01*
X021971Y018855D01*
X021977Y018875D01*
X021982Y018896D01*
X021987Y018917D01*
X021989Y018927D01*
X021989Y018927D01*
X021992Y018938D01*
X021997Y018959D01*
X022002Y018980D01*
X022006Y019001D01*
X022008Y019011D01*
X022046Y019194D01*
X022046D01*
X022055Y019240D01*
X022062Y019276D01*
X022074Y019330D01*
X022086Y019385D01*
X022093Y019412D01*
X022130Y019571D01*
X022130Y019571D01*
X022130Y019571D01*
X022143Y019628D01*
X022171Y019742D01*
X022200Y019855D01*
X022229Y019969D01*
X022244Y020025D01*
X022288Y020182D01*
X022335Y020348D01*
X022388Y020527D01*
X022447Y020722D01*
X022555Y021072D01*
X022610Y021079D01*
X022638Y021038D01*
X022712Y020988D01*
X022800Y020971D01*
X022888Y020988D01*
X022962Y021038D01*
X022987Y021074D01*
X023038Y021088D01*
X023112Y021038D01*
X023200Y021021D01*
X023288Y021038D01*
X023362Y021088D01*
X023412Y021162D01*
X023429Y021250D01*
X023412Y021338D01*
X023362Y021412D01*
X023353Y021418D01*
Y022760D01*
X023403Y022781D01*
X023747Y022437D01*
Y021318D01*
X023738Y021312D01*
X023688Y021238D01*
X023671Y021150D01*
X023688Y021062D01*
X023738Y020988D01*
X023812Y020938D01*
X023900Y020921D01*
X023988Y020938D01*
X024062Y020988D01*
X024112Y021062D01*
X024129Y021150D01*
X024112Y021238D01*
X024062Y021312D01*
X024053Y021318D01*
Y022500D01*
X024041Y022559D01*
X024008Y022608D01*
X022903Y023713D01*
Y029082D01*
X022912Y029088D01*
X022962Y029162D01*
X022979Y029250D01*
X022962Y029338D01*
X022912Y029412D01*
X022838Y029462D01*
X022750Y029479D01*
X022662Y029462D01*
X022588Y029412D01*
X022538Y029338D01*
X022521Y029250D01*
X022538Y029162D01*
X022588Y029088D01*
X022597Y029082D01*
Y023690D01*
X022547Y023669D01*
X019403Y026813D01*
Y032482D01*
X019412Y032488D01*
X019462Y032562D01*
X019479Y032650D01*
X019462Y032738D01*
X019412Y032812D01*
X019403Y032818D01*
Y033987D01*
X019658Y034242D01*
X019691Y034291D01*
X019703Y034350D01*
Y034506D01*
X019753Y034526D01*
X021777Y032500D01*
X021758Y032454D01*
X021725D01*
X021653Y032444D01*
X021586Y032417D01*
X021529Y032373D01*
X021485Y032315D01*
X021457Y032248D01*
X021448Y032176D01*
X021457Y032105D01*
X021485Y032038D01*
X021529Y031980D01*
X021553Y031962D01*
Y031899D01*
X021529Y031880D01*
X021485Y031823D01*
X021458Y031759D01*
X021900D01*
X022342D01*
X022315Y031823D01*
X022271Y031880D01*
X022247Y031899D01*
Y031962D01*
X022271Y031980D01*
X022295Y031982D01*
X024971Y029303D01*
X024972Y029303D01*
X024973Y029302D01*
X025270Y029017D01*
X028098Y026183D01*
Y024483D01*
X028091Y024433D01*
X026900D01*
X026861Y024426D01*
X026828Y024404D01*
X026806Y024371D01*
X026798Y024332D01*
Y020100D01*
X026806Y020061D01*
X026828Y020028D01*
X026861Y020006D01*
X026900Y019998D01*
X026998D01*
X026998Y018895D01*
X027006Y018856D01*
X027028Y018823D01*
X027061Y018801D01*
X027100Y018793D01*
X027635D01*
Y018191D01*
X028820D01*
Y018793D01*
X029801D01*
Y018190D01*
X030985D01*
Y018793D01*
X031198D01*
X031198Y014203D01*
X031188Y014188D01*
X031171Y014100D01*
X031188Y014012D01*
X031198Y013997D01*
Y013703D01*
X031188Y013688D01*
X031171Y013600D01*
X031188Y013512D01*
X031198Y013497D01*
Y013200D01*
X031206Y013161D01*
X031228Y013128D01*
X031261Y013106D01*
X031300Y013098D01*
X032682D01*
Y012865D01*
X032694Y012806D01*
X032727Y012757D01*
X033028Y012455D01*
X033024Y012432D01*
X033041Y012344D01*
X033091Y012269D01*
X033165Y012220D01*
X033253Y012202D01*
X033341Y012220D01*
X033415Y012269D01*
X033465Y012344D01*
X033482Y012432D01*
X033465Y012519D01*
X033415Y012594D01*
X033341Y012644D01*
X033256Y012660D01*
X032988Y012928D01*
Y021576D01*
X033012Y021612D01*
X033029Y021700D01*
X033012Y021788D01*
X032962Y021862D01*
X032888Y021912D01*
X032802Y021929D01*
Y023000D01*
X032794Y023039D01*
X032772Y023072D01*
X032739Y023094D01*
X032700Y023102D01*
X031400D01*
X031361Y023094D01*
X031328Y023072D01*
X031306Y023039D01*
X031298Y023000D01*
Y021529D01*
X030395Y021529D01*
X030365Y021579D01*
X030376Y021634D01*
X030421Y021676D01*
X030450Y021671D01*
X030538Y021688D01*
X030612Y021738D01*
X030662Y021812D01*
X030679Y021900D01*
X030662Y021988D01*
X030612Y022062D01*
X030603Y022068D01*
Y024087D01*
X032058Y025542D01*
X032091Y025591D01*
X032103Y025650D01*
Y025882D01*
X032112Y025888D01*
X032162Y025962D01*
X032179Y026050D01*
X032162Y026138D01*
X032112Y026212D01*
X032038Y026262D01*
X031950Y026279D01*
X031862Y026262D01*
X031788Y026212D01*
X031738Y026138D01*
X031721Y026050D01*
X031738Y025962D01*
X031788Y025888D01*
X031797Y025882D01*
Y025713D01*
X031699Y025615D01*
X031653Y025635D01*
Y026532D01*
X031662Y026538D01*
X031712Y026612D01*
X031729Y026700D01*
X031712Y026788D01*
X031662Y026862D01*
X031588Y026912D01*
X031546Y026920D01*
X031027Y027439D01*
X031029Y027450D01*
X031012Y027538D01*
X030962Y027612D01*
X030888Y027662D01*
X030800Y027679D01*
X030712Y027662D01*
X030638Y027612D01*
X030588Y027538D01*
X030571Y027450D01*
X030588Y027362D01*
X030638Y027288D01*
X030712Y027238D01*
X030800Y027221D01*
X030811Y027223D01*
X031032Y027002D01*
X031026Y026937D01*
X030988Y026912D01*
X030938Y026838D01*
X030921Y026750D01*
X030938Y026662D01*
X030988Y026588D01*
X030997Y026582D01*
Y025613D01*
X030749Y025365D01*
X030703Y025385D01*
Y026582D01*
X030712Y026588D01*
X030762Y026662D01*
X030779Y026750D01*
X030762Y026838D01*
X030712Y026912D01*
X030638Y026962D01*
X030550Y026979D01*
X030462Y026962D01*
X030388Y026912D01*
X030338Y026838D01*
X030333Y026813D01*
X030250Y026829D01*
X030162Y026812D01*
X030088Y026762D01*
X030038Y026688D01*
X030021Y026600D01*
X030038Y026512D01*
X030088Y026438D01*
X030097Y026432D01*
Y025335D01*
X029542Y024779D01*
X029509Y024730D01*
X029497Y024671D01*
Y023163D01*
X028998Y022664D01*
X028952Y022684D01*
X028952Y027406D01*
X028944Y027445D01*
X028922Y027478D01*
X028769Y027631D01*
X029444Y028306D01*
X029488Y028372D01*
X029504Y028450D01*
Y029566D01*
X029534Y029596D01*
X029830D01*
Y029447D01*
X029594D01*
Y029275D01*
X029920D01*
X030246D01*
Y029424D01*
X030404D01*
Y029646D01*
X030650D01*
X030662Y029638D01*
X030750Y029621D01*
X030838Y029638D01*
X030912Y029688D01*
X030962Y029762D01*
X030979Y029850D01*
X030962Y029938D01*
X030912Y030012D01*
X030838Y030062D01*
X030750Y030079D01*
X030662Y030062D01*
X030650Y030054D01*
X030404D01*
Y030176D01*
X030246D01*
Y030325D01*
X029920D01*
X029594D01*
Y030153D01*
X029830D01*
Y030004D01*
X029450D01*
X029372Y029988D01*
X029306Y029944D01*
X029156Y029794D01*
X029112Y029728D01*
X029096Y029650D01*
Y028534D01*
X028481Y027919D01*
X027623Y028777D01*
X027647Y028821D01*
X027650Y028821D01*
X027738Y028838D01*
X027812Y028888D01*
X027862Y028962D01*
X027879Y029050D01*
X027862Y029138D01*
X027812Y029212D01*
X027803Y029218D01*
Y029487D01*
X027963Y029647D01*
X028196D01*
Y029424D01*
X028354D01*
Y029275D01*
X029006D01*
Y029447D01*
X028770D01*
Y030153D01*
X029006D01*
Y030325D01*
X028354D01*
Y030176D01*
X028196D01*
Y029953D01*
X027900D01*
X027841Y029941D01*
X027792Y029908D01*
X027542Y029658D01*
X027509Y029609D01*
X027497Y029550D01*
Y029218D01*
X027488Y029212D01*
X027438Y029138D01*
X027421Y029050D01*
X027421Y029047D01*
X027377Y029023D01*
X021375Y035026D01*
X021351Y036608D01*
X021347Y036627D01*
X021344Y036646D01*
X021343Y036647D01*
X021343Y036647D01*
X021332Y036663D01*
X021322Y036679D01*
X021321Y036679D01*
X021321Y036680D01*
X021305Y036690D01*
X021289Y036701D01*
X021288Y036701D01*
X021287Y036702D01*
X021268Y036705D01*
X021250Y036709D01*
X021129D01*
X021106Y036753D01*
X021112Y036762D01*
X021129Y036850D01*
X021112Y036938D01*
X021062Y037012D01*
X020988Y037062D01*
X020900Y037079D01*
X020812Y037062D01*
X020738Y037012D01*
X020732Y037003D01*
X019790D01*
X019769Y037053D01*
X020358Y037642D01*
X020391Y037691D01*
X020403Y037750D01*
Y037782D01*
X020412Y037788D01*
X020462Y037862D01*
X020479Y037950D01*
X020462Y038038D01*
X020412Y038112D01*
X020338Y038162D01*
X020250Y038179D01*
X020162Y038162D01*
X020088Y038112D01*
X020038Y038038D01*
X020021Y037950D01*
X020038Y037862D01*
X020081Y037798D01*
X019142Y036858D01*
X019109Y036809D01*
X019097Y036750D01*
Y034718D01*
X019088Y034712D01*
X019038Y034638D01*
X019021Y034550D01*
X019023Y034539D01*
X018892Y034408D01*
X018859Y034359D01*
X018847Y034300D01*
Y034075D01*
X018803Y034052D01*
X018788Y034062D01*
X018700Y034079D01*
X018612Y034062D01*
X018567Y034032D01*
X018522Y034062D01*
X018529Y034100D01*
X018512Y034188D01*
X018462Y034262D01*
X018388Y034312D01*
X018300Y034329D01*
X018212Y034312D01*
X018138Y034262D01*
X018088Y034188D01*
X018071Y034100D01*
X018088Y034012D01*
X018138Y033938D01*
X018212Y033888D01*
X018300Y033871D01*
X018388Y033888D01*
X018433Y033918D01*
X018478Y033888D01*
X018471Y033850D01*
X018488Y033762D01*
X018505Y033738D01*
X018469Y033701D01*
X018468Y033702D01*
X018380Y033719D01*
X018292Y033702D01*
X018218Y033652D01*
X018168Y033578D01*
X018151Y033490D01*
X018168Y033402D01*
X018218Y033328D01*
X018292Y033278D01*
X018347Y033267D01*
X018381Y033243D01*
X018383Y033213D01*
X018374Y033166D01*
X018329Y033124D01*
X018300Y033129D01*
X018212Y033112D01*
X018138Y033062D01*
X018088Y032988D01*
X018082Y032955D01*
X018027Y032939D01*
X017003Y033963D01*
Y034432D01*
X017012Y034438D01*
X017046Y034488D01*
X017104D01*
X017138Y034438D01*
X017212Y034388D01*
X017300Y034371D01*
X017388Y034388D01*
X017462Y034438D01*
X017496Y034488D01*
X017554D01*
X017588Y034438D01*
X017662Y034388D01*
X017750Y034371D01*
X017838Y034388D01*
X017912Y034438D01*
X017962Y034512D01*
X017979Y034600D01*
X017962Y034688D01*
X017912Y034762D01*
X017838Y034812D01*
X017750Y034829D01*
X017662Y034812D01*
X017588Y034762D01*
X017554Y034712D01*
X017496D01*
X017462Y034762D01*
X017388Y034812D01*
X017300Y034829D01*
X017212Y034812D01*
X017138Y034762D01*
X017104Y034712D01*
X017046D01*
X017012Y034762D01*
X016938Y034812D01*
X016850Y034829D01*
X016762Y034812D01*
X016688Y034762D01*
X016638Y034688D01*
X016585Y034678D01*
X016562Y034712D01*
X016488Y034762D01*
X016400Y034779D01*
X016312Y034762D01*
X016238Y034712D01*
X016188Y034638D01*
X016171Y034550D01*
X016188Y034462D01*
X016238Y034388D01*
X016247Y034382D01*
Y034050D01*
X016259Y033991D01*
X016292Y033942D01*
X018247Y031987D01*
Y028911D01*
X018197Y028870D01*
X018150Y028879D01*
X018062Y028862D01*
X017988Y028812D01*
X017938Y028738D01*
X017921Y028650D01*
X017938Y028562D01*
X017988Y028488D01*
X017997Y028482D01*
Y026982D01*
X018009Y026924D01*
X018042Y026874D01*
X021214Y023702D01*
X021188Y023659D01*
X021016Y023714D01*
X020437Y023923D01*
X019865Y024152D01*
X019302Y024402D01*
X019025Y024536D01*
X018918Y024588D01*
X018706Y024695D01*
X018495Y024805D01*
X018287Y024918D01*
X018183Y024976D01*
X018134Y025003D01*
X018035Y025059D01*
X017938Y025116D01*
X017840Y025174D01*
X017792Y025203D01*
X017701Y025257D01*
X017523Y025369D01*
X017347Y025485D01*
X017173Y025604D01*
X017087Y025665D01*
Y025665D01*
X017087Y025665D01*
X016995Y025732D01*
X016812Y025869D01*
X016631Y026009D01*
X016453Y026152D01*
X016365Y026225D01*
X016267Y026306D01*
X016074Y026471D01*
X015883Y026640D01*
X015696Y026812D01*
X015604Y026900D01*
X015556Y026945D01*
X015462Y027037D01*
X015368Y027130D01*
X015276Y027224D01*
X015230Y027271D01*
X015184Y027319D01*
X015094Y027416D01*
X015005Y027513D01*
X014916Y027612D01*
X014873Y027662D01*
X014837Y027729D01*
X014769Y027865D01*
X014702Y028002D01*
X014637Y028139D01*
X014606Y028209D01*
X014545Y028366D01*
X014440Y028687D01*
X014350Y029013D01*
X014276Y029342D01*
X014246Y029509D01*
X014237Y029749D01*
X014221Y030231D01*
X014209Y030713D01*
X014200Y031194D01*
X014197Y031435D01*
X014223Y031686D01*
X014293Y032187D01*
X014380Y032684D01*
X014485Y033179D01*
X014546Y033424D01*
X014633Y033740D01*
X014827Y034366D01*
X015040Y034986D01*
X015272Y035599D01*
X015397Y035901D01*
X015897Y036996D01*
X015897Y036996D01*
X015911Y037040D01*
X015932Y037076D01*
X016013Y037224D01*
X016089Y037376D01*
X016160Y037530D01*
X016193Y037607D01*
X016504Y038004D01*
X016888Y038593D01*
X016385Y039399D01*
X016119Y039810D01*
X015785Y040516D01*
X015511Y041400D01*
X015311Y042311D01*
X015097Y043372D01*
X015097Y043372D01*
X015094Y043420D01*
X015090Y043476D01*
X015086Y043546D01*
X015082Y043615D01*
X015081Y043650D01*
X015067Y044015D01*
X015056Y044440D01*
X015053Y045113D01*
X015053Y045113D01*
X015053D01*
Y045113D01*
X015299Y045381D01*
X015799Y045911D01*
X016306Y046435D01*
X016819Y046953D01*
X017045Y047175D01*
X017079Y047208D01*
Y047208D01*
X017079D01*
X017143Y047183D01*
X017269Y047132D01*
X017395Y047079D01*
X017520Y047024D01*
X017582Y046997D01*
X017582Y046997D01*
Y046997D01*
X017674Y046947D01*
X017857Y046845D01*
X018039Y046742D01*
X018220Y046637D01*
X018310Y046584D01*
Y046584D01*
X018422Y046499D01*
X018646Y046328D01*
X018869Y046155D01*
X019090Y045981D01*
X019200Y045892D01*
X019200Y045892D01*
X019289Y045821D01*
X019466Y045676D01*
X019642Y045529D01*
X019818Y045382D01*
X019904Y045307D01*
X019904Y045307D01*
X019904Y045307D01*
X019905Y045307D01*
X019992Y045246D01*
X020167Y045123D01*
X020340Y044998D01*
X020513Y044872D01*
X020599Y044809D01*
X020599Y044809D01*
X020790Y044661D01*
X021168Y044363D01*
X021542Y044060D01*
X021913Y043753D01*
X022097Y043597D01*
X022388Y043404D01*
X022388Y043404D01*
Y043404D01*
X022525Y043341D01*
X022806Y043230D01*
X023094Y043140D01*
X023388Y043071D01*
X023686Y043023D01*
X023987Y042998D01*
X024289Y042994D01*
X024590Y043013D01*
X024740Y043031D01*
X028822D01*
X028832Y042982D01*
X028804Y042970D01*
X028628Y042862D01*
X028471Y042729D01*
X028338Y042572D01*
X028230Y042396D01*
X028151Y042206D01*
X028103Y042005D01*
X028087Y041800D01*
X028103Y041595D01*
X028151Y041394D01*
X028230Y041204D01*
X028338Y041028D01*
X028471Y040871D01*
X028628Y040738D01*
X028804Y040630D01*
X028994Y040551D01*
X029195Y040503D01*
X029400Y040487D01*
X029605Y040503D01*
X029806Y040551D01*
X029996Y040630D01*
X030172Y040738D01*
X030329Y040871D01*
X030462Y041028D01*
X030570Y041204D01*
X030649Y041394D01*
X030697Y041595D01*
X030713Y041800D01*
X030697Y042005D01*
X030649Y042206D01*
X030570Y042396D01*
X030462Y042572D01*
X030329Y042729D01*
X030172Y042862D01*
X029996Y042970D01*
X029968Y042982D01*
X029978Y043031D01*
X033731D01*
X033888Y043016D01*
X034203Y043003D01*
X034518Y043013D01*
X034832Y043045D01*
X035142Y043101D01*
X035447Y043179D01*
X035746Y043279D01*
X036037Y043400D01*
X036179Y043468D01*
X036502Y043699D01*
X037203Y044306D01*
X038006Y045003D01*
X038603Y045520D01*
X038603Y045520D01*
X038603Y045520D01*
X038762Y045647D01*
X039084Y045895D01*
X039409Y046138D01*
X039739Y046375D01*
X039906Y046491D01*
X039906Y046491D01*
X039906Y046491D01*
X040012Y046553D01*
X040225Y046674D01*
X040440Y046793D01*
X040656Y046909D01*
X040765Y046965D01*
X040765Y046965D01*
X040765Y046965D01*
X040860Y047008D01*
X041051Y047091D01*
X041243Y047172D01*
X041437Y047251D01*
X041534Y047289D01*
X041534Y047289D01*
D02*
G37*
G36*
X014742Y048722D02*
X014803Y048718D01*
X014803Y048718D01*
Y048718D01*
X014804Y048720D01*
X014885Y048714D01*
X014890Y048714D01*
X015298Y048666D01*
X015766Y048573D01*
X016020Y048501D01*
X016068Y048488D01*
X016068Y048488D01*
X016330Y048415D01*
X016731Y048276D01*
X016777Y048260D01*
X016824Y048245D01*
X017447Y048005D01*
X017558Y047956D01*
D01*
X017558Y047956D01*
X017604Y047936D01*
X018238Y047657D01*
X018410Y047572D01*
X018411Y047573D01*
X018495Y047535D01*
X019287Y047135D01*
X019331Y047110D01*
X019331Y047110D01*
X019585Y046980D01*
X020275Y046596D01*
X020319Y046571D01*
X020319Y046571D01*
X020682Y046369D01*
X021331Y045982D01*
X021373Y045956D01*
X021373Y045956D01*
X021374Y045956D01*
X021779Y045715D01*
X022451Y045291D01*
X022493Y045264D01*
X022493Y045265D01*
X022494Y045265D01*
X022872Y045029D01*
X023678Y044497D01*
X023678Y044498D01*
X023679Y044498D01*
X024548Y043923D01*
X024559Y043917D01*
X024569Y043910D01*
X024606Y043894D01*
X024642Y043877D01*
X024654Y043874D01*
X024666Y043869D01*
X024706Y043864D01*
X024746Y043856D01*
X024758Y043857D01*
X024770Y043856D01*
X033762D01*
X033773Y043857D01*
X033785Y043856D01*
X033825Y043864D01*
X033866Y043869D01*
X033877Y043874D01*
X033888Y043876D01*
X033925Y043894D01*
X033963Y043910D01*
X033973Y043917D01*
X033983Y043922D01*
X034937Y044548D01*
X036012Y045244D01*
X036506Y045555D01*
X036978Y045846D01*
X037434Y046119D01*
X037452Y046133D01*
X037462Y046140D01*
X038301Y046618D01*
X038303Y046617D01*
X038303Y046617D01*
X038303Y046617D01*
X038876Y046936D01*
X039581Y047298D01*
X039581Y047298D01*
X039624Y047323D01*
X040409Y047704D01*
X040618Y047795D01*
X040618Y047797D01*
X040714Y047842D01*
X041103Y048003D01*
X041103Y048003D01*
X041147Y048026D01*
X041516Y048168D01*
X041562Y048185D01*
X041608Y048205D01*
X041947Y048325D01*
X041994Y048340D01*
X041994Y048340D01*
X042224Y048420D01*
X042399Y048468D01*
X042399Y048468D01*
X042571Y048520D01*
X042727Y048556D01*
X042774Y048567D01*
X042822Y048582D01*
X042822Y048582D01*
X043070Y048631D01*
X043117Y048640D01*
X043166Y048651D01*
X043379Y048679D01*
X043427Y048685D01*
X043476Y048691D01*
X043638Y048700D01*
X043966Y048596D01*
X044028Y048481D01*
X044044Y048427D01*
X044044Y048427D01*
X044064Y048382D01*
X044111Y048219D01*
X044125Y048172D01*
X044136Y048124D01*
X044184Y047908D01*
X044190Y047858D01*
X044190Y047858D01*
X044225Y047664D01*
X044244Y047481D01*
X044244D01*
X044252Y047432D01*
X044283Y047094D01*
X044286Y047044D01*
X044286Y047044D01*
X044307Y046777D01*
X044313Y046551D01*
X044313D01*
X044315Y046501D01*
X044325Y046053D01*
X044325Y046008D01*
X044325Y046006D01*
X044325Y046003D01*
Y046003D01*
X044325Y046003D01*
X044325Y046003D01*
X044327Y045954D01*
X044329Y045849D01*
X044321Y045454D01*
X044320Y045404D01*
X044320D01*
X044320Y045404D01*
X044319Y045354D01*
X044311Y044905D01*
X044303Y044754D01*
X044301Y044754D01*
X044275Y044105D01*
X044235Y043496D01*
X044235D01*
X044236Y043494D01*
X044192Y042829D01*
X044079Y041435D01*
X044079Y041433D01*
X043935Y039931D01*
X043716Y038064D01*
X043689Y037871D01*
X043686Y037859D01*
X043649Y037562D01*
X043649Y037561D01*
X043649Y037559D01*
X043638Y037468D01*
X043638Y037467D01*
X043638Y037466D01*
X043629Y037381D01*
X043629Y037380D01*
X043628Y037379D01*
X043620Y037302D01*
X043620Y037300D01*
X043620Y037299D01*
X043613Y037231D01*
X043614Y037229D01*
X043613Y037227D01*
X043608Y037171D01*
X043608Y037166D01*
X043607Y037116D01*
X043603Y037092D01*
X043602Y037067D01*
X043602Y037063D01*
X043608Y037020D01*
X043616Y036941D01*
X043618Y036935D01*
X043629Y036887D01*
X043632Y036873D01*
X043635Y036862D01*
X043649Y036814D01*
X043652Y036804D01*
X043667Y036760D01*
X043668Y036756D01*
X043676Y036736D01*
X043692Y036689D01*
X043701Y036660D01*
X043704Y036646D01*
X043736Y036557D01*
X043737Y036555D01*
X043737Y036552D01*
X043773Y036457D01*
X043773Y036454D01*
X043781Y036433D01*
X043791Y036408D01*
X043852Y036261D01*
X043857Y036239D01*
X043901Y036133D01*
X043911Y036115D01*
X044225Y035309D01*
X044514Y034456D01*
X044533Y034392D01*
X044540Y034366D01*
X044541Y034359D01*
X044541Y034359D01*
X044545Y034343D01*
X044559Y034297D01*
X044738Y033705D01*
X044987Y032752D01*
X045199Y031789D01*
X045372Y030818D01*
X045507Y029842D01*
X045512Y029787D01*
X045512Y029770D01*
X045570Y029249D01*
X045517Y029119D01*
X045515Y029118D01*
X045515D01*
X045487Y029048D01*
X045484Y029044D01*
X045454Y028984D01*
X045421Y028920D01*
X045384Y028849D01*
X045343Y028774D01*
X045343Y028773D01*
X045343Y028773D01*
X045343Y028773D01*
X045166Y028460D01*
X045166Y028460D01*
X045166Y028460D01*
Y028460D01*
X044919Y028063D01*
X044728Y027797D01*
X044699Y027757D01*
X044670Y027716D01*
X044417Y027380D01*
X044173Y027092D01*
X044141Y027054D01*
X044141Y027054D01*
X043998Y026884D01*
X043528Y026387D01*
X043032Y025918D01*
X042510Y025477D01*
X042100Y025169D01*
X042100Y025169D01*
X042100Y025169D01*
X042100Y025168D01*
X041957Y025064D01*
X041957Y025064D01*
X041957Y025064D01*
X041661Y024849D01*
X041660Y024849D01*
X041660Y024849D01*
X041593Y024800D01*
X041593Y024800D01*
X041593Y024800D01*
X041531Y024755D01*
X041531Y024755D01*
X041531Y024755D01*
X041477Y024715D01*
X041476Y024715D01*
X041476Y024715D01*
X041431Y024682D01*
X041429Y024683D01*
X041429Y024683D01*
Y024683D01*
X041156Y024487D01*
X040721Y024216D01*
X040677Y024194D01*
X040633Y024170D01*
X040399Y024038D01*
X040395Y024036D01*
X040240Y023954D01*
X040121Y023893D01*
X040117Y023892D01*
X040073Y023870D01*
X040031Y023847D01*
X039888Y023769D01*
X039215Y023448D01*
X038533Y023166D01*
X038526Y023164D01*
X038525Y023164D01*
X038525Y023164D01*
X038485Y023152D01*
X038485Y023152D01*
X038175Y023033D01*
X038095Y023006D01*
X038088Y023005D01*
X037598Y022851D01*
X037577Y022841D01*
X037206Y022738D01*
X037206Y022738D01*
Y022738D01*
X037206Y022736D01*
X037138Y022719D01*
X037076Y022703D01*
X037071Y022702D01*
X037022Y022691D01*
X036975Y022682D01*
X036958Y022678D01*
X036958Y022678D01*
X036909Y022667D01*
X036899Y022666D01*
X036768Y022612D01*
X036657Y022526D01*
X036571Y022415D01*
X036545Y022351D01*
X036545D01*
X036541Y022348D01*
X036533Y022323D01*
X036524Y022301D01*
X036522Y022287D01*
X036506Y022234D01*
X036502Y022192D01*
X036498Y022154D01*
X036497Y022143D01*
X036497D01*
X036494Y022122D01*
X036494Y022118D01*
X036492Y022095D01*
X036493Y022092D01*
X036498Y022033D01*
X036498Y022028D01*
X036502Y021994D01*
X036504Y021976D01*
X036503Y021975D01*
X036505Y021941D01*
X036509Y021926D01*
X036522Y021873D01*
X036530Y021828D01*
X036531Y021825D01*
X036531Y021825D01*
X036532Y021816D01*
X036533Y021813D01*
X036540Y021777D01*
X036541Y021776D01*
X036557Y021729D01*
X036565Y021702D01*
X036565Y021697D01*
X036568Y021692D01*
X036571Y021681D01*
X036571Y021681D01*
X036604Y021588D01*
X036607Y021580D01*
X036608Y021571D01*
X036614Y021556D01*
X036619Y021540D01*
X036619Y021540D01*
X036649Y021449D01*
X036651Y021444D01*
X036668Y021403D01*
X036668Y021403D01*
X036668Y021403D01*
X036717Y021274D01*
X036752Y021181D01*
X036766Y021136D01*
X036768Y021116D01*
X036772Y021108D01*
X036787Y021060D01*
X036789Y021047D01*
X036806Y020995D01*
X036808Y020993D01*
X036808Y020991D01*
X036827Y020935D01*
X036828Y020934D01*
X036828Y020933D01*
X036849Y020874D01*
X036849Y020874D01*
X036849Y020874D01*
X036869Y020814D01*
X036889Y020757D01*
X036908Y020701D01*
X036922Y020654D01*
D01*
X036935Y020607D01*
X036958Y020525D01*
X036958Y020525D01*
X036958D01*
X036960Y020524D01*
X036984Y020438D01*
X037010Y020340D01*
X037038Y020233D01*
X037067Y020122D01*
X037185Y019651D01*
X037264Y019325D01*
X037264Y019325D01*
X037264Y019325D01*
X037288Y019227D01*
X037288Y019227D01*
X037288Y019227D01*
X037310Y019138D01*
X037310Y019138D01*
X037310Y019138D01*
X037329Y019059D01*
X037329Y019059D01*
X037329Y019059D01*
X037346Y018992D01*
X037346Y018992D01*
X037346Y018991D01*
X037359Y018938D01*
X037360Y018937D01*
X037360Y018936D01*
X037370Y018898D01*
X037375Y018886D01*
X037375Y018885D01*
X037376Y018873D01*
X037390Y018840D01*
X037390Y018839D01*
X037390Y018839D01*
X037423Y018759D01*
X037447Y018729D01*
X037468Y018702D01*
X037468Y018702D01*
X037477Y018689D01*
X037480Y018686D01*
X037499Y018662D01*
X037499Y018662D01*
X037502Y018659D01*
X037508Y018651D01*
X037515Y018643D01*
X037522Y018634D01*
X037531Y018624D01*
X037537Y018619D01*
X037558Y018599D01*
X037558Y018599D01*
X037574Y018587D01*
X037585Y018576D01*
X037585Y018576D01*
X037612Y018555D01*
X037615Y018552D01*
X037651Y018521D01*
X037667Y018507D01*
X037691Y018491D01*
X037768Y018440D01*
X037782Y018428D01*
X037781Y018426D01*
X037912Y018338D01*
X038096Y018176D01*
X038258Y017992D01*
X038394Y017788D01*
X038450Y017675D01*
X038470Y017635D01*
X038491Y017590D01*
X038549Y017450D01*
X038549Y017450D01*
X038575Y017387D01*
X038615Y017251D01*
X038615Y017251D01*
X038629Y017203D01*
X038660Y017082D01*
X038672Y017034D01*
X038672Y017034D01*
X038672Y017034D01*
X038694Y016945D01*
X038716Y016798D01*
X038716Y016798D01*
X038728Y016749D01*
X038742Y016657D01*
X038749Y016610D01*
X038749Y016610D01*
X038758Y016561D01*
X038759Y016556D01*
X038760Y016555D01*
X038760Y016553D01*
X038769Y016506D01*
X038769Y016504D01*
X038770Y016502D01*
X038778Y016461D01*
X038779Y016459D01*
X038779Y016456D01*
X038784Y016432D01*
X038786Y016422D01*
X038786Y016422D01*
X038797Y016381D01*
X038797Y016377D01*
X038797Y016377D01*
X038800Y016367D01*
X038802Y016359D01*
X038820Y016317D01*
X038839Y016270D01*
X038845Y016256D01*
X038866Y016229D01*
X038866Y016229D01*
X038910Y016171D01*
X038994Y016107D01*
X039091Y016066D01*
X039196Y016053D01*
X039289Y016065D01*
X039300Y016066D01*
X039335Y016081D01*
Y016081D01*
X039412Y016113D01*
X039515Y016192D01*
X039595Y016295D01*
X039644Y016416D01*
X039648Y016441D01*
X039669Y016492D01*
X039672Y016499D01*
X039683Y016539D01*
X039692Y016561D01*
X039693Y016574D01*
X039722Y016665D01*
X039732Y016698D01*
X039738Y016712D01*
X039738Y016712D01*
X039742Y016721D01*
X039744Y016733D01*
X039751Y016760D01*
X039796Y016910D01*
X039796D01*
X039806Y016958D01*
X039852Y017124D01*
X039852D01*
X039856Y017139D01*
X039863Y017173D01*
X039940Y017534D01*
X039945Y017545D01*
X039949Y017570D01*
X039958Y017619D01*
X039979Y017734D01*
X039980Y017739D01*
X039983Y017746D01*
X039991Y017782D01*
X039991Y017782D01*
X040010Y017931D01*
X040017Y017980D01*
X040017Y017980D01*
X040023Y018028D01*
X040023Y018030D01*
X040031Y018107D01*
X040037Y018134D01*
X040046Y018222D01*
X040046Y018223D01*
X040046Y018224D01*
X040055Y018319D01*
X040055Y018320D01*
X040055Y018321D01*
X040064Y018422D01*
X040064Y018424D01*
X040065Y018426D01*
X040097Y018843D01*
X040097Y018846D01*
X040098Y018848D01*
X040104Y018946D01*
X040103Y018969D01*
X040103Y018982D01*
X040122Y019174D01*
X040122D01*
X040124Y019218D01*
X040130Y019267D01*
X040136Y019315D01*
X040141Y019350D01*
X040148Y019398D01*
X040152Y019423D01*
D01*
X040160Y019471D01*
X040163Y019488D01*
X040163Y019488D01*
X040175Y019546D01*
X040176Y019546D01*
X040176D01*
X040176Y019546D01*
X040202Y019659D01*
X040221Y019705D01*
X040221Y019705D01*
X040261Y019822D01*
X040342Y019987D01*
X040342Y019987D01*
X040342D01*
X040370Y020043D01*
X040464Y020183D01*
X040492Y020223D01*
X040492Y020223D01*
X040492Y020223D01*
X040626Y020376D01*
X040787Y020518D01*
X040793Y020522D01*
X040793Y020522D01*
X040833Y020550D01*
X040923Y020610D01*
X040923Y020610D01*
X040923Y020610D01*
X040963Y020639D01*
X041065Y020695D01*
Y020695D01*
X041065Y020695D01*
X041179Y020758D01*
X041225Y020778D01*
X041225Y020778D01*
X041350Y020841D01*
X041397Y020859D01*
X041454Y020882D01*
X041495Y020897D01*
X041495Y020897D01*
X041536Y020908D01*
X041583Y020915D01*
X041633Y020918D01*
X041633Y020918D01*
X041694Y020922D01*
X041700Y020921D01*
X041796Y020921D01*
X041811Y020924D01*
X041822Y020924D01*
X041956Y020918D01*
X042005Y020915D01*
X042052Y020908D01*
X042060Y020906D01*
X042095Y020897D01*
X042095Y020897D01*
X042137Y020884D01*
X042142Y020882D01*
X042144Y020882D01*
X042153Y020877D01*
X042199Y020857D01*
Y020857D01*
X042244Y020838D01*
X042263Y020830D01*
X042277Y020821D01*
X042381Y020772D01*
X042399Y020766D01*
X042632Y020638D01*
X042632Y020635D01*
X042632Y020635D01*
X042632Y020635D01*
X042699Y020591D01*
X042740Y020563D01*
X042740Y020563D01*
X042790Y020530D01*
X042925Y020411D01*
X042961Y020377D01*
X043108Y020206D01*
X043207Y020043D01*
X043207Y020043D01*
X043231Y019999D01*
X043267Y019926D01*
X043290Y019882D01*
X043361Y019712D01*
X043360Y019710D01*
X043360Y019710D01*
X043360Y019710D01*
X043411Y019561D01*
X043421Y019508D01*
X043421Y019508D01*
X043454Y019341D01*
X043459Y019292D01*
X043463Y019242D01*
X043467Y019170D01*
X043467D01*
X043467Y019170D01*
X043474Y019046D01*
X043474Y019042D01*
X043475Y019036D01*
X043475D01*
X043475Y019034D01*
X043478Y018977D01*
X043473Y018887D01*
X043473Y018887D01*
X043473Y018887D01*
X043471Y018838D01*
X043466Y018722D01*
X043466Y018722D01*
X043460Y018570D01*
X043405Y018099D01*
X043312Y017635D01*
X043184Y017179D01*
X043020Y016734D01*
X042900Y016475D01*
X042880Y016431D01*
X042858Y016386D01*
X042709Y016089D01*
X042456Y015662D01*
X042269Y015393D01*
X042240Y015352D01*
X042240Y015352D01*
X042159Y015234D01*
X041977Y015008D01*
X041977Y015008D01*
X041898Y014907D01*
X041758Y014756D01*
D01*
X041725Y014719D01*
X041661Y014651D01*
X041627Y014615D01*
X041627Y014615D01*
X041496Y014476D01*
X041488Y014469D01*
X041486Y014468D01*
X041480Y014459D01*
X041438Y014415D01*
X040948Y013952D01*
X040715Y013755D01*
Y013755D01*
X040714Y013754D01*
X040569Y013634D01*
X040570Y013633D01*
X040511Y013583D01*
X040284Y013416D01*
Y013416D01*
X040283Y013414D01*
X040114Y013290D01*
X039932Y013161D01*
X039917Y013147D01*
X039897Y013132D01*
X039569Y012913D01*
Y012913D01*
X039568Y012911D01*
X039396Y012797D01*
X039234Y012692D01*
X039227Y012687D01*
X039097Y012609D01*
X039096Y012609D01*
X038987Y012544D01*
X038987Y012544D01*
X038982Y012541D01*
X038973Y012535D01*
X038947Y012517D01*
X038923Y012502D01*
X038916Y012498D01*
X038902Y012492D01*
X038881Y012477D01*
X038846Y012455D01*
X038847Y012452D01*
X038841Y012447D01*
X038795Y012412D01*
X038731Y012329D01*
X038691Y012232D01*
X038686Y012192D01*
X038669Y012151D01*
X038659Y012077D01*
X038659D01*
X038656Y012056D01*
X038663Y012005D01*
X038654Y011995D01*
X038616Y011976D01*
X038603Y011985D01*
X038513Y012029D01*
X038469Y012053D01*
X038432Y012075D01*
X038426Y012078D01*
X038115Y012225D01*
X038112Y012227D01*
X038087Y012243D01*
X038072Y012246D01*
X038072Y012245D01*
X037987Y012271D01*
X037898Y012280D01*
X037867Y012319D01*
X037872Y012366D01*
X037879Y012410D01*
Y012410D01*
X037881Y012423D01*
X037887Y012453D01*
X037894Y012483D01*
X037902Y012512D01*
X037907Y012527D01*
X037907Y012527D01*
X037910Y012538D01*
X037917Y012560D01*
X037926Y012582D01*
X037935Y012604D01*
X037936Y012605D01*
X037936Y012606D01*
X037936Y012607D01*
X037940Y012626D01*
X037945Y012644D01*
X037944Y012645D01*
X037945Y012646D01*
X037941Y012665D01*
X037938Y012683D01*
X037938Y012684D01*
X037937Y012685D01*
X037924Y012718D01*
X037917Y012729D01*
X037911Y012741D01*
X037905Y012749D01*
X037895Y012759D01*
X037885Y012769D01*
X037873Y012779D01*
X037861Y012784D01*
X037850Y012792D01*
X037843Y012793D01*
X037837Y012796D01*
X037824Y012797D01*
X037811Y012799D01*
X036257D01*
X036198Y012807D01*
X036150Y012827D01*
X036103Y012863D01*
X035697Y013270D01*
X035664Y013292D01*
X035657Y013293D01*
X035657Y013293D01*
X035628Y013347D01*
X035629Y013348D01*
X035652Y013406D01*
X035655Y013425D01*
X035300D01*
Y013575D01*
X035655D01*
X035652Y013594D01*
X035629Y013651D01*
X035663Y013701D01*
X035743D01*
X035802Y013693D01*
X035850Y013673D01*
X035897Y013637D01*
X036303Y013230D01*
X036336Y013208D01*
X036375Y013201D01*
X038621D01*
X038628Y013202D01*
X038636Y013202D01*
X038647Y013206D01*
X038660Y013208D01*
X038666Y013213D01*
X038673Y013215D01*
X038684Y013222D01*
X038685Y013222D01*
X038685Y013222D01*
X038733Y013252D01*
X038734Y013253D01*
X038735Y013253D01*
X038782Y013284D01*
X038783Y013284D01*
X038784Y013284D01*
X038804Y013298D01*
X038804Y013298D01*
X038804Y013298D01*
X038807Y013300D01*
X038807Y013300D01*
X038951Y013394D01*
X038951Y013394D01*
X038951Y013394D01*
X039116Y013504D01*
X039116Y013504D01*
X039116Y013504D01*
X039183Y013550D01*
X039184Y013550D01*
X039184Y013550D01*
X039318Y013642D01*
X039319Y013642D01*
X039319Y013642D01*
X039453Y013735D01*
X039453Y013735D01*
X039453Y013735D01*
X039587Y013828D01*
X039587Y013829D01*
X039587Y013829D01*
X039654Y013876D01*
X039654Y013876D01*
X039654Y013876D01*
X039820Y013995D01*
X039820Y013996D01*
X039821Y013996D01*
X039966Y014103D01*
X039967Y014104D01*
X039967Y014104D01*
X039982Y014115D01*
X039982Y014115D01*
X039983Y014115D01*
X040012Y014138D01*
X040012Y014138D01*
X040013Y014138D01*
X040042Y014161D01*
X040042Y014161D01*
X040043Y014162D01*
X040072Y014184D01*
X040072Y014185D01*
X040072Y014185D01*
X040087Y014197D01*
X040087Y014197D01*
X040122Y014225D01*
X040122Y014225D01*
X040123Y014226D01*
X040191Y014282D01*
X040192Y014283D01*
X040192Y014283D01*
X040260Y014341D01*
X040261Y014341D01*
X040261Y014342D01*
X040328Y014400D01*
X040329Y014401D01*
X040329Y014401D01*
X040362Y014430D01*
X040362Y014431D01*
X040381Y014447D01*
X040381Y014447D01*
X040381Y014447D01*
X040417Y014480D01*
X040418Y014480D01*
X040418Y014480D01*
X040454Y014513D01*
X040454Y014513D01*
X040454Y014513D01*
X040490Y014546D01*
X040491Y014547D01*
X040491Y014547D01*
X040509Y014563D01*
X040509Y014563D01*
X040509Y014564D01*
X040656Y014701D01*
X040657Y014702D01*
X040657Y014702D01*
X040710Y014752D01*
X040710Y014753D01*
X040711Y014753D01*
X040816Y014855D01*
X040816Y014856D01*
X040817Y014856D01*
X040920Y014959D01*
X040921Y014959D01*
X040921Y014960D01*
X041024Y015064D01*
X041024Y015065D01*
X041025Y015065D01*
X041075Y015117D01*
X041076Y015118D01*
X041091Y015133D01*
X041091Y015134D01*
X041091Y015134D01*
X041121Y015165D01*
X041121Y015165D01*
X041121Y015165D01*
X041151Y015197D01*
X041151Y015197D01*
X041151Y015197D01*
X041181Y015229D01*
X041181Y015229D01*
X041181Y015229D01*
X041195Y015244D01*
X041195Y015245D01*
X041208Y015259D01*
X041209Y015259D01*
X041209Y015259D01*
X041235Y015288D01*
X041235Y015288D01*
X041235Y015288D01*
X041261Y015316D01*
X041261Y015317D01*
X041261Y015317D01*
X041287Y015346D01*
X041287Y015346D01*
X041287Y015346D01*
X041299Y015360D01*
X041300Y015360D01*
X041310Y015372D01*
X041311Y015373D01*
X041311Y015373D01*
X041332Y015397D01*
X041332Y015398D01*
X041333Y015398D01*
X041353Y015423D01*
X041354Y015423D01*
X041354Y015424D01*
X041375Y015448D01*
X041375Y015449D01*
X041375Y015449D01*
X041385Y015461D01*
X041385Y015461D01*
X041475Y015571D01*
X041476Y015573D01*
X041477Y015575D01*
X041646Y015801D01*
X041647Y015803D01*
X041649Y015805D01*
X041807Y016039D01*
X041808Y016041D01*
X041810Y016043D01*
X041958Y016283D01*
X041959Y016285D01*
X041960Y016287D01*
X042028Y016410D01*
X042029Y016411D01*
X042094Y016527D01*
X042094Y016529D01*
X042096Y016531D01*
X042214Y016769D01*
X042214Y016771D01*
X042216Y016773D01*
X042322Y017016D01*
X042323Y017019D01*
X042324Y017021D01*
X042419Y017269D01*
X042419Y017271D01*
X042421Y017273D01*
X042462Y017399D01*
X042462Y017400D01*
X042515Y017561D01*
X042516Y017564D01*
X042517Y017567D01*
X042601Y017896D01*
X042602Y017900D01*
X042603Y017903D01*
X042665Y018237D01*
X042665Y018240D01*
X042666Y018244D01*
X042674Y018314D01*
X042674Y018317D01*
X042675Y018320D01*
X042673Y018337D01*
X042671Y018354D01*
X042670Y018357D01*
X042669Y018360D01*
X042661Y018374D01*
X042653Y018389D01*
X042651Y018391D01*
X042649Y018394D01*
X042647Y018396D01*
X042637Y018434D01*
X042639Y018455D01*
X042641Y018461D01*
X042664Y018484D01*
X042708Y018541D01*
X042736Y018608D01*
X042745Y018680D01*
X042736Y018752D01*
X042708Y018818D01*
X042690Y018842D01*
X042692Y018893D01*
X042698Y018902D01*
X042706Y018910D01*
X042710Y018918D01*
X042715Y018926D01*
X042717Y018936D01*
X042722Y018946D01*
X042722Y018955D01*
X042724Y018964D01*
X042724Y018980D01*
X042724Y018981D01*
X042725Y018981D01*
X042725Y019011D01*
X042726Y019012D01*
X042726Y019021D01*
X042726Y019021D01*
X042726Y019022D01*
X042726Y019039D01*
X042726Y019040D01*
X042726Y019040D01*
X042726Y019058D01*
X042726Y019058D01*
X042726Y019059D01*
X042726Y019076D01*
X042726Y019077D01*
X042726Y019077D01*
X042726Y019082D01*
X042726Y019083D01*
X042727Y019086D01*
X042726Y019087D01*
X042727Y019088D01*
X042727Y019094D01*
X042726Y019094D01*
X042727Y019095D01*
X042726Y019101D01*
X042726Y019102D01*
X042726Y019103D01*
X042726Y019108D01*
X042726Y019109D01*
X042726Y019119D01*
X042726Y019120D01*
X042726Y019121D01*
X042726Y019140D01*
X042726Y019141D01*
X042726Y019142D01*
X042725Y019161D01*
X042725Y019162D01*
X042725Y019163D01*
X042724Y019183D01*
X042724Y019184D01*
X042724Y019185D01*
X042723Y019191D01*
X042723Y019192D01*
X042723Y019201D01*
X042722Y019202D01*
X042723Y019203D01*
X042721Y019220D01*
X042721Y019221D01*
X042721Y019222D01*
X042719Y019239D01*
X042719Y019240D01*
X042719Y019241D01*
X042716Y019258D01*
X042716Y019259D01*
X042716Y019261D01*
X042716Y019263D01*
X042716Y019264D01*
X042715Y019265D01*
X042715Y019265D01*
X042715Y019267D01*
X042714Y019274D01*
X042714Y019276D01*
X042714Y019277D01*
X042711Y019292D01*
X042711Y019293D01*
X042711Y019295D01*
X042707Y019310D01*
X042707Y019311D01*
X042707Y019313D01*
X042703Y019327D01*
X042703Y019328D01*
X042703Y019329D01*
X042703Y019329D01*
X042703Y019330D01*
X042701Y019334D01*
X042701Y019336D01*
X042700Y019343D01*
X042699Y019344D01*
X042699Y019346D01*
X042695Y019360D01*
X042694Y019361D01*
X042694Y019363D01*
X042690Y019377D01*
X042689Y019378D01*
X042689Y019380D01*
X042684Y019394D01*
X042683Y019395D01*
X042683Y019396D01*
X042682Y019400D01*
X042681Y019401D01*
X042679Y019409D01*
X042678Y019410D01*
X042678Y019411D01*
X042672Y019425D01*
X042672Y019426D01*
X042672Y019428D01*
X042666Y019442D01*
X042665Y019443D01*
X042665Y019444D01*
X042659Y019459D01*
X042658Y019460D01*
X042658Y019461D01*
X042656Y019465D01*
X042656Y019466D01*
X042652Y019474D01*
X042652Y019475D01*
X042652Y019475D01*
X042644Y019492D01*
X042644Y019492D01*
X042644Y019493D01*
X042636Y019509D01*
X042636Y019510D01*
X042636Y019511D01*
X042628Y019527D01*
X042628Y019527D01*
X042627Y019528D01*
X042625Y019534D01*
X042624Y019535D01*
X042588Y019611D01*
X042581Y019627D01*
X042580Y019627D01*
X042580Y019628D01*
X042564Y019661D01*
X042563Y019662D01*
X042563Y019662D01*
X042546Y019695D01*
X042546Y019695D01*
X042546Y019696D01*
X042528Y019728D01*
X042528Y019729D01*
X042528Y019730D01*
X042526Y019732D01*
X042514Y019747D01*
X042502Y019761D01*
X042501Y019762D01*
X042500Y019762D01*
X042483Y019771D01*
X042467Y019780D01*
X042423Y019793D01*
X042417Y019793D01*
X042412Y019796D01*
X042398Y019795D01*
X042384Y019797D01*
X042378Y019795D01*
X042372Y019795D01*
X042354Y019791D01*
X042346Y019787D01*
X042337Y019785D01*
X042327Y019779D01*
X042317Y019775D01*
X042311Y019768D01*
X042304Y019763D01*
X042059Y019519D01*
X042027Y019525D01*
X041701Y019199D01*
X041595Y019305D01*
X041907Y019617D01*
X041844Y019644D01*
X041772Y019653D01*
X041742Y019649D01*
X041697Y019694D01*
X041701Y019724D01*
X041692Y019796D01*
X041664Y019862D01*
X041620Y019920D01*
X041562Y019964D01*
X041496Y019992D01*
X041424Y020001D01*
X041352Y019992D01*
X041285Y019964D01*
X041228Y019920D01*
X040980Y019672D01*
X040936Y019615D01*
X040908Y019548D01*
X040899Y019476D01*
X040908Y019404D01*
X040904Y019368D01*
X040880Y019355D01*
X040874Y019350D01*
X040866Y019346D01*
X040858Y019337D01*
X040849Y019329D01*
X040845Y019322D01*
X040840Y019316D01*
X040836Y019305D01*
X040831Y019294D01*
X040830Y019286D01*
X040828Y019278D01*
X040825Y019256D01*
X040825Y019256D01*
X040825Y019256D01*
X040824Y019251D01*
X040824Y019250D01*
X040824Y019249D01*
X040820Y019212D01*
X040820Y019212D01*
X040820Y019211D01*
X040817Y019185D01*
X040817Y019185D01*
X040817Y019184D01*
X040813Y019137D01*
X040813Y019137D01*
X040813Y019137D01*
X040812Y019131D01*
X040812Y019131D01*
X040812Y019131D01*
X040810Y019103D01*
X040810Y019103D01*
X040810Y019102D01*
X040803Y019011D01*
X040803Y019011D01*
X040803Y019011D01*
X040795Y018901D01*
X040796Y018901D01*
X040795Y018901D01*
X040790Y018821D01*
X040779Y018660D01*
X040767Y018500D01*
X040753Y018340D01*
X040746Y018260D01*
X040746Y018259D01*
X040736Y018159D01*
X040727Y018062D01*
X040717Y017972D01*
X040707Y017889D01*
X040703Y017860D01*
X040696Y017802D01*
X040687Y017744D01*
X040673Y017657D01*
X040671Y017643D01*
X040666Y017613D01*
Y017613D01*
X040666Y017613D01*
X040666Y017613D01*
X040666Y017613D01*
X040666Y017612D01*
X040666Y017612D01*
X040666Y017612D01*
X040661Y017584D01*
X040653Y017540D01*
X040630Y017421D01*
X040605Y017302D01*
X040599Y017273D01*
X040586Y017214D01*
X040572Y017155D01*
X040562Y017112D01*
X040562Y017112D01*
X040562Y017112D01*
X040551Y017066D01*
X040544Y017037D01*
X040530Y016979D01*
X040515Y016921D01*
X040505Y016880D01*
X040505Y016880D01*
X040505Y016880D01*
X040493Y016834D01*
X040463Y016721D01*
X040433Y016611D01*
X040418Y016558D01*
X040403Y016506D01*
X040387Y016455D01*
X040372Y016405D01*
X040356Y016355D01*
X040352Y016343D01*
X040344Y016319D01*
X040336Y016295D01*
X040323Y016259D01*
X040306Y016210D01*
X040288Y016162D01*
X040279Y016137D01*
X040279Y016137D01*
X040279Y016137D01*
X040278Y016134D01*
X040276Y016129D01*
X040270Y016114D01*
X040265Y016100D01*
X040252Y016072D01*
X040244Y016053D01*
X040244Y016053D01*
X040244Y016053D01*
X040240Y016044D01*
X040226Y016016D01*
X040224Y016012D01*
X040224Y016011D01*
X040223Y016011D01*
X040219Y016001D01*
X040217Y015997D01*
X040212Y015989D01*
X040207Y015980D01*
X040207Y015980D01*
X040207Y015980D01*
X040201Y015967D01*
X040201Y015967D01*
X040201Y015967D01*
X040200Y015966D01*
X040197Y015961D01*
X040197Y015961D01*
X040197Y015961D01*
X040197Y015961D01*
X040192Y015951D01*
X040177Y015924D01*
X040176Y015923D01*
X040176Y015922D01*
X040145Y015864D01*
X040145Y015864D01*
X040138Y015851D01*
X040136Y015848D01*
X040133Y015843D01*
X040129Y015836D01*
X040123Y015827D01*
X040119Y015820D01*
X040109Y015805D01*
X040104Y015797D01*
X040104Y015797D01*
X040104Y015797D01*
X040098Y015790D01*
X040087Y015776D01*
X040086Y015774D01*
X040086Y015773D01*
X040085Y015773D01*
X040081Y015768D01*
X040078Y015764D01*
X040070Y015755D01*
X040063Y015746D01*
X040051Y015733D01*
X040046Y015728D01*
X040040Y015721D01*
X040040Y015721D01*
X040040Y015721D01*
X040036Y015717D01*
X040027Y015707D01*
X040011Y015692D01*
X040006Y015686D01*
X039993Y015674D01*
X039981Y015663D01*
X039981Y015663D01*
X039962Y015645D01*
X039955Y015639D01*
X039940Y015625D01*
X039933Y015619D01*
X039933Y015619D01*
X039933Y015619D01*
X039925Y015612D01*
X039902Y015593D01*
X039892Y015585D01*
X039874Y015570D01*
X039861Y015560D01*
X039861Y015560D01*
X039861Y015560D01*
X039855Y015555D01*
X039836Y015541D01*
X039834Y015539D01*
X039834Y015539D01*
X039833Y015538D01*
X039826Y015533D01*
X039821Y015530D01*
X039815Y015525D01*
X039815Y015525D01*
X039815Y015525D01*
X039810Y015522D01*
X039799Y015514D01*
X039799Y015514D01*
X039799Y015514D01*
X039799Y015514D01*
X039799Y015514D01*
X039783Y015503D01*
X039738Y015475D01*
X039641Y015425D01*
X039540Y015385D01*
X039435Y015356D01*
X039380Y015346D01*
X039370Y015344D01*
X039346Y015340D01*
X039331Y015338D01*
X039331Y015338D01*
X039331Y015338D01*
X039323Y015337D01*
X039299Y015334D01*
X039288Y015333D01*
X039288Y015333D01*
X039263Y015331D01*
X039244Y015330D01*
X039244Y015330D01*
X039244Y015330D01*
X039243Y015330D01*
X039243Y015330D01*
X039243D01*
X039243Y015330D01*
X039213Y015329D01*
X039163Y015330D01*
X039113Y015333D01*
X039087Y015336D01*
X039087Y015336D01*
X039075Y015338D01*
X039048Y015342D01*
X039045Y015342D01*
X039045D01*
X039045Y015342D01*
X039025Y015345D01*
X039025Y015345D01*
X039025Y015345D01*
X039022Y015346D01*
X038996Y015351D01*
X038984Y015353D01*
X038983Y015354D01*
X038983Y015354D01*
X038983Y015354D01*
X038982Y015354D01*
X038982Y015354D01*
X038957Y015359D01*
X038904Y015373D01*
X038852Y015388D01*
X038816Y015401D01*
X038816Y015401D01*
X038800Y015406D01*
X038776Y015415D01*
X038774Y015416D01*
X038773Y015416D01*
X038773Y015416D01*
X038751Y015424D01*
X038702Y015445D01*
X038654Y015467D01*
X038607Y015491D01*
X038584Y015504D01*
X038574Y015509D01*
X038552Y015522D01*
X038537Y015531D01*
X038537Y015531D01*
X038537Y015531D01*
X038531Y015534D01*
X038510Y015548D01*
X038501Y015554D01*
X038498Y015556D01*
X038498Y015556D01*
X038497Y015556D01*
X038491Y015560D01*
X038473Y015573D01*
X038461Y015582D01*
X038461Y015582D01*
X038461Y015582D01*
X038455Y015586D01*
X038436Y015600D01*
X038428Y015606D01*
X038426Y015608D01*
X038426Y015609D01*
X038425Y015609D01*
X038420Y015613D01*
X038405Y015626D01*
X038390Y015639D01*
X038375Y015653D01*
X038369Y015659D01*
X038369Y015659D01*
X038352Y015676D01*
X038320Y015710D01*
X038288Y015744D01*
X038257Y015779D01*
X038243Y015795D01*
X038243Y015796D01*
X038237Y015802D01*
X038227Y015814D01*
X038217Y015827D01*
X038207Y015840D01*
X038203Y015845D01*
X038203Y015846D01*
X038199Y015851D01*
X038192Y015861D01*
X038185Y015871D01*
X038179Y015881D01*
X038176Y015885D01*
X038176Y015885D01*
X038174Y015889D01*
X038169Y015897D01*
X038165Y015904D01*
X038161Y015912D01*
X038159Y015915D01*
X038159Y015915D01*
X038158Y015918D01*
X038155Y015924D01*
X038152Y015929D01*
X038150Y015935D01*
X038150Y015936D01*
X038148Y015940D01*
X038145Y015949D01*
X038143Y015958D01*
X038140Y015967D01*
X038140Y015969D01*
X038140Y015971D01*
X038139Y015973D01*
X038139Y015974D01*
X038138Y015979D01*
X038137Y015980D01*
X038137Y015982D01*
X038136Y015987D01*
X038135Y015988D01*
X038135Y015989D01*
X038135Y015991D01*
X038135Y015991D01*
X038135Y015992D01*
X038135Y015992D01*
X038135Y015992D01*
X038134Y015995D01*
X038133Y015997D01*
X038133Y015997D01*
X038133Y015998D01*
X038133Y016000D01*
X038131Y016005D01*
X038130Y016007D01*
X038130Y016010D01*
X038128Y016014D01*
X038127Y016017D01*
X038126Y016019D01*
X038124Y016024D01*
X038124Y016025D01*
X038124Y016026D01*
X038122Y016030D01*
X038119Y016038D01*
X038116Y016046D01*
X038113Y016054D01*
X038112Y016056D01*
X038111Y016056D01*
X038106Y016070D01*
X038102Y016081D01*
X038101Y016085D01*
X038097Y016094D01*
X038094Y016104D01*
X038091Y016113D01*
X038090Y016117D01*
X038090Y016117D01*
X038087Y016125D01*
X038085Y016132D01*
X038077Y016159D01*
X038074Y016170D01*
X038071Y016180D01*
X038070Y016183D01*
X038069Y016190D01*
X038067Y016196D01*
X038065Y016203D01*
X038065Y016205D01*
X038065Y016206D01*
X038063Y016214D01*
X038061Y016221D01*
X038061Y016221D01*
X038059Y016229D01*
X038056Y016239D01*
X038052Y016259D01*
X038047Y016280D01*
X038043Y016301D01*
X038040Y016310D01*
X038040Y016310D01*
X038038Y016324D01*
X038035Y016337D01*
X038032Y016350D01*
X038030Y016364D01*
X038013Y016451D01*
X038002Y016513D01*
X037991Y016579D01*
X037979Y016647D01*
X037974Y016682D01*
X037967Y016725D01*
X037966Y016726D01*
X037966Y016727D01*
X037951Y016815D01*
X037950Y016816D01*
X037950Y016817D01*
X037933Y016904D01*
X037932Y016905D01*
X037932Y016906D01*
X037912Y016993D01*
X037912Y016994D01*
X037912Y016995D01*
X037901Y017037D01*
X037901Y017038D01*
X037897Y017056D01*
X037896Y017057D01*
X037896Y017058D01*
X037886Y017093D01*
X037886Y017094D01*
X037886Y017095D01*
X037875Y017129D01*
X037875Y017130D01*
X037875Y017131D01*
X037864Y017166D01*
X037863Y017167D01*
X037863Y017168D01*
X037858Y017182D01*
X037858Y017184D01*
X037853Y017199D01*
X037852Y017200D01*
X037852Y017201D01*
X037841Y017232D01*
X037841Y017233D01*
X037840Y017234D01*
X037829Y017264D01*
X037828Y017265D01*
X037828Y017266D01*
X037816Y017296D01*
X037815Y017297D01*
X037815Y017298D01*
X037809Y017310D01*
X037809Y017312D01*
X037803Y017325D01*
X037802Y017326D01*
X037802Y017328D01*
X037790Y017354D01*
X037789Y017355D01*
X037789Y017356D01*
X037776Y017382D01*
X037775Y017383D01*
X037774Y017385D01*
X037761Y017410D01*
X037760Y017411D01*
X037759Y017413D01*
X037753Y017423D01*
X037753Y017424D01*
X037746Y017436D01*
X037745Y017437D01*
X037745Y017438D01*
X037731Y017461D01*
X037730Y017462D01*
X037729Y017464D01*
X037715Y017486D01*
X037714Y017487D01*
X037713Y017489D01*
X037698Y017511D01*
X037697Y017512D01*
X037696Y017513D01*
X037689Y017522D01*
X037689Y017523D01*
X037674Y017543D01*
X037672Y017545D01*
X037670Y017548D01*
X037638Y017587D01*
X037636Y017589D01*
X037634Y017591D01*
X037600Y017628D01*
X037598Y017630D01*
X037596Y017632D01*
X037578Y017650D01*
X037577Y017651D01*
X037576Y017652D01*
X037539Y017685D01*
X037537Y017686D01*
X037536Y017688D01*
X037533Y017690D01*
X037533Y017690D01*
X037533Y017690D01*
X037521Y017700D01*
X037521Y017700D01*
X037521Y017701D01*
X037508Y017711D01*
X037507Y017712D01*
X037506Y017713D01*
X037477Y017736D01*
X037476Y017736D01*
X037475Y017738D01*
X037460Y017749D01*
X037459Y017749D01*
X037459Y017750D01*
X037436Y017766D01*
X037436Y017766D01*
X037436Y017767D01*
X037425Y017774D01*
X037425Y017774D01*
X037425Y017774D01*
X037419Y017778D01*
X037418Y017779D01*
X037418Y017779D01*
X037389Y017799D01*
X037388Y017800D01*
X037387Y017801D01*
X037358Y017820D01*
X037321Y017844D01*
X037298Y017860D01*
X037298Y017860D01*
X037298Y017860D01*
X037297Y017860D01*
X037273Y017877D01*
X037262Y017885D01*
X037261Y017885D01*
X037261Y017885D01*
X037261Y017885D01*
X037256Y017889D01*
X037255Y017889D01*
X037255Y017890D01*
X037255Y017890D01*
X037255Y017890D01*
X037255Y017890D01*
X037251Y017893D01*
X037228Y017909D01*
X037207Y017925D01*
X037207Y017925D01*
X037207Y017925D01*
X037206Y017926D01*
X037184Y017943D01*
X037173Y017951D01*
X037169Y017955D01*
X037168Y017955D01*
X037168Y017955D01*
X037158Y017963D01*
X037129Y017987D01*
X037100Y018012D01*
X037071Y018037D01*
X037058Y018049D01*
X037028Y018077D01*
X037015Y018088D01*
X037015Y018088D01*
X037015Y018088D01*
X037013Y018091D01*
X037009Y018094D01*
X037009Y018094D01*
X037002Y018102D01*
X037002Y018102D01*
X036994Y018109D01*
X036994Y018109D01*
X036994Y018109D01*
X036994Y018109D01*
X036994Y018109D01*
X036994Y018109D01*
X036986Y018117D01*
X036983Y018120D01*
X036981Y018122D01*
X036981Y018122D01*
X036980Y018123D01*
X036975Y018129D01*
X036958Y018146D01*
X036951Y018154D01*
X036951Y018154D01*
X036951Y018154D01*
X036941Y018164D01*
X036925Y018182D01*
X036918Y018190D01*
X036918Y018190D01*
X036899Y018213D01*
X036893Y018219D01*
X036893Y018219D01*
X036892Y018220D01*
X036882Y018232D01*
X036881Y018233D01*
X036880Y018234D01*
X036870Y018245D01*
X036869Y018246D01*
X036868Y018247D01*
X036857Y018258D01*
X036856Y018259D01*
X036856Y018260D01*
X036854Y018262D01*
X036853Y018263D01*
X036850Y018266D01*
X036845Y018272D01*
X036839Y018278D01*
X036834Y018284D01*
X036832Y018286D01*
X036832Y018286D01*
X036829Y018290D01*
X036823Y018296D01*
X036818Y018303D01*
X036812Y018310D01*
X036811Y018311D01*
X036811Y018312D01*
X036804Y018320D01*
X036792Y018338D01*
X036781Y018355D01*
X036769Y018373D01*
X036765Y018382D01*
X036765Y018382D01*
X036761Y018388D01*
X036755Y018400D01*
X036748Y018413D01*
X036742Y018426D01*
X036739Y018431D01*
X036739Y018431D01*
X036736Y018439D01*
X036729Y018454D01*
X036722Y018470D01*
X036715Y018485D01*
X036712Y018492D01*
X036712Y018492D01*
X036709Y018502D01*
X036701Y018521D01*
X036694Y018540D01*
X036687Y018559D01*
X036684Y018568D01*
X036684Y018568D01*
X036680Y018580D01*
X036673Y018603D01*
X036665Y018626D01*
X036658Y018650D01*
X036655Y018661D01*
X036655Y018661D01*
X036633Y018740D01*
X036625Y018769D01*
X036618Y018794D01*
X036613Y018817D01*
X036607Y018840D01*
X036602Y018864D01*
X036602Y018864D01*
X036602Y018864D01*
X036595Y018892D01*
X036595Y018892D01*
X036595Y018892D01*
X036587Y018925D01*
X036587Y018925D01*
X036587Y018925D01*
X036578Y018964D01*
X036578Y018964D01*
X036578Y018964D01*
X036531Y019153D01*
X036451Y019484D01*
X036451Y019484D01*
X036451Y019484D01*
X036394Y019713D01*
X036394Y019714D01*
X036394Y019714D01*
X036364Y019832D01*
X036364Y019833D01*
X036364Y019833D01*
X036278Y020165D01*
X036278Y020165D01*
X036277Y020165D01*
X036253Y020258D01*
X036253Y020258D01*
X036253Y020258D01*
X036231Y020337D01*
X036231Y020337D01*
X036231Y020338D01*
X036214Y020399D01*
X036213Y020404D01*
X036212Y020405D01*
X036212Y020405D01*
X036209Y020416D01*
X036209Y020416D01*
X036209Y020417D01*
X036206Y020427D01*
X036205Y020428D01*
X036205Y020429D01*
X036202Y020439D01*
X036202Y020440D01*
X036202Y020440D01*
X036201Y020441D01*
X036201Y020442D01*
X036200Y020446D01*
X036200Y020447D01*
X036200Y020448D01*
X036197Y020456D01*
X036197Y020457D01*
X036197Y020458D01*
X036194Y020466D01*
X036194Y020466D01*
X036193Y020467D01*
X036191Y020475D01*
X036190Y020476D01*
X036190Y020476D01*
X036190Y020478D01*
X036183Y020498D01*
X036183Y020498D01*
X036183Y020498D01*
X036175Y020521D01*
X036175Y020521D01*
X036175Y020522D01*
X036167Y020547D01*
X036166Y020547D01*
X036166Y020547D01*
X036157Y020574D01*
X036157Y020574D01*
X036157Y020574D01*
X036147Y020603D01*
X036147Y020603D01*
X036147Y020603D01*
X036137Y020633D01*
X036137Y020633D01*
Y020633D01*
X036126Y020664D01*
X036126Y020664D01*
X036115Y020696D01*
X036114Y020696D01*
X036114Y020697D01*
X036098Y020742D01*
X036098Y020743D01*
X036098Y020743D01*
X036089Y020766D01*
X036081Y020790D01*
X036072Y020814D01*
X036068Y020829D01*
X036058Y020859D01*
X036050Y020889D01*
X036042Y020920D01*
X036038Y020935D01*
X036038Y020935D01*
X036037Y020940D01*
X036034Y020950D01*
X036032Y020959D01*
X036030Y020969D01*
X036029Y020974D01*
X036028Y020975D01*
X036028Y020977D01*
X036025Y020983D01*
X036024Y020990D01*
X035983Y021091D01*
X035983Y021091D01*
X035983Y021091D01*
X035961Y021146D01*
X035938Y021205D01*
X035915Y021267D01*
X035908Y021284D01*
X035896Y021319D01*
X035884Y021353D01*
X035872Y021388D01*
X035867Y021405D01*
X035867Y021405D01*
X035857Y021436D01*
X035838Y021499D01*
X035821Y021561D01*
X035804Y021624D01*
X035796Y021656D01*
X035796Y021656D01*
X035769Y021768D01*
X035767Y021775D01*
X035764Y021790D01*
X035761Y021804D01*
X035758Y021819D01*
X035757Y021826D01*
Y021826D01*
X035755Y021834D01*
X035752Y021849D01*
X035749Y021865D01*
X035747Y021880D01*
X035746Y021886D01*
X035741Y021925D01*
X035734Y022002D01*
X035733Y022078D01*
X035736Y022156D01*
X035739Y022194D01*
X035740Y022206D01*
X035743Y022230D01*
X035746Y022255D01*
X035749Y022279D01*
X035751Y022291D01*
X035751Y022292D01*
X035754Y022305D01*
X035758Y022332D01*
X035763Y022359D01*
X035769Y022386D01*
X035769Y022389D01*
X035791Y022435D01*
X035846Y022545D01*
X035907Y022652D01*
X035973Y022756D01*
X036008Y022807D01*
X036008Y022807D01*
X036021Y022825D01*
X036052Y022865D01*
X036084Y022904D01*
X036117Y022941D01*
X036134Y022960D01*
X036135Y022960D01*
X036180Y023006D01*
X036281Y023095D01*
X036389Y023173D01*
X036505Y023240D01*
X036566Y023270D01*
X036567Y023271D01*
X036586Y023280D01*
X036628Y023299D01*
X036670Y023317D01*
X036713Y023334D01*
X036735Y023342D01*
X036736Y023343D01*
X036758Y023351D01*
X036804Y023368D01*
X036850Y023385D01*
X036897Y023400D01*
X036921Y023408D01*
X036922Y023409D01*
X036946Y023417D01*
X036997Y023433D01*
X037048Y023449D01*
X037099Y023464D01*
X037125Y023472D01*
X037126Y023472D01*
X037349Y023540D01*
X037350Y023540D01*
X037350Y023540D01*
X037811Y023685D01*
X037812Y023686D01*
X037814Y023686D01*
X037935Y023728D01*
X037936Y023729D01*
X037936Y023729D01*
X038177Y023818D01*
X038178Y023818D01*
X038179Y023818D01*
X038417Y023912D01*
X038418Y023912D01*
X038419Y023912D01*
X038656Y024010D01*
X038657Y024010D01*
X038658Y024011D01*
X038775Y024061D01*
X038776Y024061D01*
X038893Y024112D01*
X038894Y024113D01*
X038895Y024113D01*
X039127Y024219D01*
X039128Y024220D01*
X039129Y024220D01*
X039359Y024330D01*
X039360Y024331D01*
X039361Y024331D01*
X039589Y024446D01*
X039590Y024447D01*
X039591Y024447D01*
X039701Y024505D01*
X039701Y024505D01*
X039701Y024505D01*
X039704Y024507D01*
X039704Y024507D01*
X039705Y024508D01*
X039707Y024509D01*
X039712Y024511D01*
X039716Y024513D01*
X039720Y024515D01*
X039722Y024516D01*
X039724Y024517D01*
X039724Y024518D01*
X039726Y024518D01*
X039726Y024518D01*
X039727Y024519D01*
X039761Y024536D01*
X039761Y024536D01*
X039762Y024536D01*
X039835Y024574D01*
X039835Y024574D01*
X039836Y024574D01*
X039909Y024612D01*
X039909Y024612D01*
X039909Y024612D01*
X039982Y024651D01*
X039983Y024651D01*
X039983Y024651D01*
X040018Y024670D01*
X040018Y024670D01*
X040019Y024670D01*
X040019Y024671D01*
X040019Y024671D01*
X040020Y024671D01*
X040155Y024744D01*
X040155Y024745D01*
X040156Y024745D01*
X040284Y024817D01*
X040284Y024818D01*
X040285Y024818D01*
X040315Y024835D01*
X040315Y024836D01*
X040316Y024836D01*
X040376Y024871D01*
X040376Y024871D01*
X040377Y024872D01*
X040437Y024907D01*
X040437Y024908D01*
X040437Y024908D01*
X040497Y024944D01*
X040497Y024945D01*
X040498Y024945D01*
X040527Y024963D01*
X040527Y024963D01*
X040584Y024999D01*
X040584Y024999D01*
X040585Y025000D01*
X040697Y025072D01*
X040697Y025073D01*
X040698Y025073D01*
X040808Y025147D01*
X040809Y025148D01*
X040810Y025148D01*
X040919Y025225D01*
X040919Y025226D01*
X040920Y025226D01*
X040973Y025265D01*
X040974Y025265D01*
X041076Y025339D01*
X041138Y025385D01*
X041205Y025434D01*
X041205Y025434D01*
X041502Y025649D01*
X041576Y025703D01*
X041647Y025755D01*
X041647Y025755D01*
X041647Y025755D01*
X041778Y025850D01*
X041779Y025851D01*
X041780Y025852D01*
X042035Y026049D01*
X042036Y026051D01*
X042037Y026051D01*
X042286Y026257D01*
X042287Y026258D01*
X042288Y026259D01*
X042530Y026472D01*
X042531Y026473D01*
X042533Y026474D01*
X042648Y026581D01*
X042648Y026581D01*
X042736Y026657D01*
X042737Y026659D01*
X042739Y026660D01*
X042910Y026819D01*
X042912Y026821D01*
X042913Y026822D01*
X043079Y026987D01*
X043080Y026989D01*
X043081Y026990D01*
X043240Y027161D01*
X043241Y027163D01*
X043243Y027164D01*
X043319Y027253D01*
X043321Y027256D01*
X043324Y027258D01*
X043327Y027265D01*
X043332Y027272D01*
X043391Y027381D01*
X043391Y027382D01*
X043391Y027382D01*
X043506Y027604D01*
X043506Y027604D01*
X043506Y027605D01*
X043618Y027827D01*
X043618Y027827D01*
X043618Y027828D01*
X043728Y028051D01*
X043728Y028052D01*
X043729Y028052D01*
X043780Y028161D01*
X043780Y028161D01*
X043780Y028161D01*
X043782Y028165D01*
X043783Y028169D01*
X043786Y028174D01*
X043857Y028372D01*
X043857Y028373D01*
X043858Y028374D01*
X043993Y028771D01*
X043993Y028772D01*
X043994Y028773D01*
X044122Y029173D01*
X044122Y029174D01*
X044123Y029175D01*
X044244Y029577D01*
X044244Y029578D01*
X044245Y029579D01*
X044302Y029781D01*
X044303Y029788D01*
X044305Y029795D01*
X044335Y030015D01*
X044335Y030016D01*
X044335Y030017D01*
X044385Y030459D01*
X044385Y030460D01*
X044385Y030461D01*
X044425Y030903D01*
X044425Y030904D01*
X044425Y030905D01*
X044456Y031348D01*
X044456Y031350D01*
X044456Y031351D01*
X044467Y031572D01*
X044466Y031577D01*
X044467Y031583D01*
X044465Y031590D01*
X044465Y031597D01*
X044387Y031993D01*
X044386Y031995D01*
X044386Y031996D01*
X044203Y032783D01*
X044203Y032784D01*
X044203Y032786D01*
X043994Y033566D01*
X043993Y033567D01*
X043993Y033569D01*
X043759Y034342D01*
X043758Y034343D01*
X043758Y034345D01*
X043629Y034727D01*
X043629Y034727D01*
X043604Y034800D01*
X043604Y034800D01*
X043604Y034800D01*
X043554Y034944D01*
X043553Y034945D01*
X043553Y034945D01*
X043502Y035088D01*
X043502Y035089D01*
X043501Y035089D01*
X043449Y035232D01*
X043449Y035232D01*
X043448Y035233D01*
X043422Y035303D01*
X043422Y035304D01*
X043396Y035373D01*
X043396Y035373D01*
X043396Y035373D01*
X043343Y035510D01*
X043343Y035511D01*
X043342Y035511D01*
X043288Y035648D01*
X043288Y035648D01*
X043288Y035648D01*
X043233Y035784D01*
X043232Y035785D01*
X043232Y035785D01*
X043204Y035852D01*
X043204Y035853D01*
X043189Y035889D01*
X043160Y035961D01*
X043131Y036034D01*
X043102Y036107D01*
X043088Y036143D01*
X043088Y036143D01*
X043046Y036254D01*
X043008Y036361D01*
X042990Y036412D01*
X042973Y036462D01*
X042965Y036487D01*
X042957Y036511D01*
X042941Y036559D01*
X042938Y036568D01*
X042933Y036586D01*
X042927Y036604D01*
X042922Y036623D01*
X042920Y036631D01*
X042920Y036631D01*
X042912Y036656D01*
X042911Y036661D01*
X042910Y036663D01*
X042910Y036665D01*
X042906Y036676D01*
X042905Y036679D01*
X042905Y036681D01*
X042900Y036692D01*
X042899Y036694D01*
X042899Y036696D01*
X042894Y036707D01*
X042893Y036709D01*
X042892Y036711D01*
X042891Y036713D01*
X042891Y036713D01*
X042882Y036733D01*
X042878Y036739D01*
X042875Y036747D01*
X042851Y036784D01*
X042804Y036860D01*
X042758Y036937D01*
X042713Y037014D01*
X042691Y037053D01*
X042686Y037058D01*
X042683Y037065D01*
X042682Y037066D01*
X042681Y037067D01*
X042630Y037129D01*
X042530Y037253D01*
X042432Y037378D01*
X042336Y037505D01*
X042293Y037563D01*
X042090Y037945D01*
X041990Y038334D01*
X041917Y038691D01*
X042052Y039034D01*
X042052Y039034D01*
X042053Y039035D01*
X042334Y039779D01*
X042334Y039780D01*
X042334Y039780D01*
X042605Y040529D01*
X042605Y040529D01*
X042605Y040530D01*
X042865Y041282D01*
X042865Y041283D01*
X042866Y041283D01*
X042990Y041661D01*
X042991Y041665D01*
X042993Y041669D01*
X043425Y043459D01*
X043426Y043464D01*
X043427Y043470D01*
X043521Y044168D01*
X043520Y044173D01*
X043521Y044177D01*
X043550Y044782D01*
X043549Y044784D01*
X043550Y044785D01*
X043551Y044877D01*
X043551Y044877D01*
X043551Y044878D01*
X043553Y045061D01*
X043553Y045061D01*
X043553Y045062D01*
X043553Y045245D01*
X043553Y045246D01*
X043553Y045246D01*
X043551Y045429D01*
X043551Y045430D01*
X043551Y045430D01*
X043550Y045522D01*
X043550Y045522D01*
X043550Y045522D01*
X043546Y045540D01*
X043546Y045540D01*
X043542Y045559D01*
X043541Y045560D01*
X043541Y045561D01*
X043541Y045561D01*
X043541Y045561D01*
X043530Y045576D01*
X043520Y045592D01*
X043519Y045593D01*
X043519Y045593D01*
X043518Y045593D01*
X043518Y045594D01*
X043485Y045626D01*
X043485Y045626D01*
X043485Y045626D01*
X041809Y047236D01*
X041809Y047236D01*
X041809Y047236D01*
X041808Y047237D01*
X041803Y047240D01*
X041799Y047245D01*
X041760Y047274D01*
X041755Y047276D01*
X041752Y047280D01*
X041731Y047292D01*
X041731Y047292D01*
X041731Y047293D01*
X041690Y047317D01*
X041689Y047317D01*
X041689Y047317D01*
X041648Y047341D01*
X041647Y047342D01*
X041647Y047342D01*
X041626Y047354D01*
X041626Y047354D01*
X041626Y047354D01*
X041585Y047377D01*
X041585Y047377D01*
X041585Y047377D01*
X041584Y047378D01*
X041579Y047379D01*
X041575Y047382D01*
X041574Y047382D01*
X041573Y047383D01*
X041563Y047385D01*
X041554Y047389D01*
X041550Y047389D01*
X041546Y047390D01*
X041541Y047390D01*
X041536Y047391D01*
X041535Y047391D01*
X041534Y047391D01*
X041524Y047389D01*
X041514Y047389D01*
X041510Y047387D01*
X041506Y047387D01*
X041502Y047385D01*
X041497Y047384D01*
X041400Y047346D01*
X041399Y047345D01*
X041398Y047345D01*
X041205Y047267D01*
X041205Y047267D01*
X041204Y047266D01*
X041012Y047185D01*
X041011Y047185D01*
X041010Y047185D01*
X040819Y047102D01*
X040818Y047101D01*
X040818Y047101D01*
X040723Y047058D01*
X040720Y047057D01*
X040717Y047056D01*
X040609Y046999D01*
X040608Y046999D01*
X040608Y046998D01*
X040391Y046882D01*
X040391Y046882D01*
X040390Y046882D01*
X040176Y046763D01*
X040175Y046763D01*
X040175Y046763D01*
X039961Y046641D01*
X039961Y046641D01*
X039960Y046641D01*
X039854Y046579D01*
X039851Y046576D01*
X039848Y046574D01*
X039681Y046459D01*
X039680Y046458D01*
X039680Y046458D01*
X039350Y046220D01*
X039349Y046220D01*
X039348Y046219D01*
X039023Y045977D01*
X039022Y045976D01*
X039021Y045976D01*
X038700Y045727D01*
X038699Y045727D01*
X038698Y045726D01*
X038540Y045600D01*
X038538Y045598D01*
X038537Y045597D01*
X037940Y045080D01*
X037136Y044383D01*
X036439Y043779D01*
X036127Y043556D01*
X035995Y043493D01*
X035710Y043374D01*
X035418Y043277D01*
X035120Y043201D01*
X034817Y043146D01*
X034511Y043114D01*
X034204Y043105D01*
X033895Y043117D01*
X033741Y043132D01*
X033736Y043132D01*
X033731Y043133D01*
X029978D01*
X029968Y043131D01*
X029958D01*
X029949Y043127D01*
X029939Y043125D01*
X029931Y043119D01*
X029921Y043115D01*
X029914Y043108D01*
X029906Y043103D01*
X029900Y043094D01*
X029893Y043087D01*
X029889Y043078D01*
X029884Y043070D01*
X029840Y043035D01*
X029806Y043049D01*
X029605Y043097D01*
X029400Y043113D01*
X029195Y043097D01*
X028994Y043049D01*
X028960Y043035D01*
X028916Y043070D01*
X028911Y043078D01*
X028907Y043087D01*
X028900Y043094D01*
X028894Y043103D01*
X028886Y043108D01*
X028879Y043115D01*
X028869Y043119D01*
X028861Y043125D01*
X028851Y043127D01*
X028842Y043131D01*
X028832D01*
X028822Y043133D01*
X024740D01*
X024734Y043131D01*
X024728Y043132D01*
X024581Y043115D01*
X024286Y043096D01*
X023992Y043100D01*
X023698Y043125D01*
X023407Y043171D01*
X023121Y043238D01*
X022840Y043326D01*
X022565Y043435D01*
X022437Y043494D01*
X022158Y043679D01*
X021979Y043830D01*
X021979Y043831D01*
X021978Y043831D01*
X021607Y044138D01*
X021607Y044139D01*
X021606Y044139D01*
X021232Y044442D01*
X021231Y044442D01*
X021231Y044443D01*
X020853Y044741D01*
X020852Y044742D01*
X020852Y044742D01*
X020661Y044889D01*
X020660Y044890D01*
X020659Y044891D01*
X020574Y044954D01*
X020573Y044954D01*
X020573Y044954D01*
X020400Y045080D01*
X020400Y045080D01*
X020400Y045081D01*
X020226Y045205D01*
X020226Y045205D01*
X020225Y045206D01*
X020051Y045329D01*
X020051Y045329D01*
X020050Y045330D01*
X019967Y045388D01*
X019884Y045459D01*
X019883Y045459D01*
X019883Y045460D01*
X019708Y045607D01*
X019708Y045607D01*
X019708Y045608D01*
X019532Y045754D01*
X019531Y045754D01*
X019531Y045754D01*
X019354Y045899D01*
X019353Y045900D01*
X019353Y045900D01*
X019264Y045972D01*
X019264Y045972D01*
X019264Y045972D01*
X019154Y046060D01*
X019154Y046060D01*
X019153Y046061D01*
X018932Y046235D01*
X018932Y046236D01*
X018932Y046236D01*
X018709Y046409D01*
X018709Y046409D01*
X018708Y046409D01*
X018484Y046581D01*
X018484Y046581D01*
X018484Y046581D01*
X018371Y046666D01*
X018366Y046668D01*
X018362Y046672D01*
X018272Y046725D01*
X018271Y046725D01*
X018271Y046726D01*
X018090Y046830D01*
X018090Y046831D01*
X018089Y046831D01*
X017907Y046934D01*
X017907Y046934D01*
X017907Y046934D01*
X017724Y047036D01*
X017723Y047036D01*
X017723Y047036D01*
X017631Y047086D01*
X017629Y047087D01*
X017628Y047088D01*
X017626Y047088D01*
X017624Y047090D01*
X017562Y047118D01*
X017561Y047118D01*
X017561Y047118D01*
X017435Y047172D01*
X017435Y047172D01*
X017434Y047173D01*
X017309Y047226D01*
X017308Y047226D01*
X017308Y047226D01*
X017181Y047277D01*
X017181Y047278D01*
X017180Y047278D01*
X017117Y047303D01*
X017098Y047306D01*
X017080Y047310D01*
X017080Y047310D01*
X017079Y047310D01*
X017078Y047310D01*
X017077Y047310D01*
X017059Y047306D01*
X017041Y047303D01*
X017041Y047302D01*
X017040Y047302D01*
X017039Y047302D01*
X017039Y047302D01*
X017023Y047291D01*
X017008Y047281D01*
X016974Y047247D01*
X016974Y047247D01*
X016974Y047247D01*
X016748Y047025D01*
X016747Y047025D01*
X016747Y047024D01*
X016234Y046507D01*
X016233Y046506D01*
X016233Y046506D01*
X015726Y045982D01*
X015726Y045981D01*
X015725Y045981D01*
X015225Y045451D01*
X015225Y045450D01*
X015224Y045450D01*
X014977Y045182D01*
X014968Y045166D01*
X014958Y045152D01*
X014958Y045152D01*
X014958Y045151D01*
X014958Y045151D01*
X014958Y045149D01*
X014957Y045148D01*
X014954Y045130D01*
X014951Y045113D01*
X014951Y045112D01*
X014951Y045112D01*
X014954Y044440D01*
X014954Y044439D01*
X014954Y044438D01*
X014965Y044012D01*
X014965Y044011D01*
X014965Y044011D01*
X014979Y043646D01*
X014979Y043646D01*
X014979Y043646D01*
X014981Y043611D01*
X014981Y043611D01*
X014981Y043610D01*
X014984Y043540D01*
X014984Y043540D01*
X014984Y043540D01*
X014988Y043470D01*
X014988Y043470D01*
X014988Y043469D01*
X014992Y043414D01*
X014992Y043413D01*
X014992Y043413D01*
X014996Y043364D01*
X014997Y043358D01*
X014997Y043352D01*
X015211Y042291D01*
X015211Y042290D01*
X015211Y042289D01*
X015411Y041378D01*
X015413Y041374D01*
X015413Y041370D01*
X015688Y040486D01*
X015691Y040479D01*
X015693Y040472D01*
X016027Y039766D01*
X016031Y039761D01*
X016034Y039755D01*
X016299Y039344D01*
X016767Y038595D01*
X016421Y038064D01*
X016113Y037670D01*
X016107Y037659D01*
X016100Y037648D01*
X016067Y037571D01*
X015997Y037420D01*
X015923Y037272D01*
X015843Y037126D01*
X015823Y037091D01*
X015820Y037081D01*
X015815Y037072D01*
X015802Y037033D01*
X015304Y035944D01*
X015304Y035942D01*
X015303Y035940D01*
X015177Y035638D01*
X015177Y035636D01*
X015176Y035635D01*
X014944Y035022D01*
X014944Y035020D01*
X014943Y035019D01*
X014730Y034399D01*
X014730Y034397D01*
X014729Y034396D01*
X014536Y033770D01*
X014535Y033768D01*
X014535Y033767D01*
X014448Y033451D01*
X014447Y033450D01*
X014447Y033448D01*
X014386Y033203D01*
X014386Y033201D01*
X014385Y033200D01*
X014281Y032705D01*
X014281Y032704D01*
X014280Y032702D01*
X014193Y032204D01*
X014193Y032202D01*
X014192Y032201D01*
X014122Y031700D01*
X014122Y031699D01*
X014122Y031697D01*
X014095Y031446D01*
X014096Y031440D01*
X014095Y031434D01*
X014098Y031193D01*
X014098Y031193D01*
X014098Y031192D01*
X014107Y030711D01*
X014107Y030710D01*
X014107Y030710D01*
X014119Y030228D01*
X014119Y030228D01*
X014119Y030228D01*
X014135Y029746D01*
X014135Y029746D01*
X014135Y029745D01*
X014145Y029505D01*
X014146Y029498D01*
X014146Y029491D01*
X014175Y029325D01*
X014176Y029323D01*
X014176Y029320D01*
X014250Y028990D01*
X014251Y028988D01*
X014251Y028986D01*
X014341Y028660D01*
X014343Y028658D01*
X014343Y028655D01*
X014448Y028335D01*
X014450Y028332D01*
X014450Y028330D01*
X014510Y028172D01*
X014512Y028170D01*
X014513Y028167D01*
X014544Y028097D01*
X014545Y028097D01*
X014545Y028096D01*
X014610Y027958D01*
X014610Y027958D01*
X014610Y027957D01*
X014677Y027820D01*
X014678Y027820D01*
X014678Y027819D01*
X014747Y027683D01*
X014747Y027683D01*
X014747Y027682D01*
X014783Y027615D01*
X014790Y027605D01*
X014796Y027595D01*
X014839Y027545D01*
X014840Y027545D01*
X014840Y027544D01*
X014928Y027446D01*
X014929Y027445D01*
X014929Y027445D01*
X015019Y027347D01*
X015019Y027347D01*
X015020Y027346D01*
X015110Y027249D01*
X015111Y027249D01*
X015111Y027249D01*
X015157Y027201D01*
X015157Y027201D01*
X015157Y027201D01*
X015203Y027153D01*
X015203Y027153D01*
X015203Y027153D01*
X015296Y027059D01*
X015296Y027058D01*
X015297Y027058D01*
X015390Y026965D01*
X015390Y026964D01*
X015391Y026964D01*
X015485Y026872D01*
X015486Y026872D01*
X015486Y026871D01*
X015534Y026826D01*
X015534Y026826D01*
X015534Y026826D01*
X015626Y026738D01*
X015627Y026738D01*
X015627Y026737D01*
X015814Y026565D01*
X015815Y026564D01*
X015816Y026564D01*
X016006Y026395D01*
X016007Y026394D01*
X016007Y026394D01*
X016201Y026228D01*
X016201Y026228D01*
X016202Y026227D01*
X016300Y026146D01*
X016300Y026146D01*
X016388Y026074D01*
X016389Y026073D01*
X016389Y026073D01*
X016568Y025930D01*
X016568Y025929D01*
X016569Y025929D01*
X016749Y025789D01*
X016750Y025788D01*
X016751Y025788D01*
X016933Y025650D01*
X016934Y025650D01*
X016934Y025649D01*
X017027Y025582D01*
X017027Y025582D01*
X017028Y025581D01*
X017114Y025520D01*
X017115Y025520D01*
X017115Y025519D01*
X017289Y025401D01*
X017290Y025400D01*
X017291Y025399D01*
X017467Y025284D01*
X017468Y025284D01*
X017469Y025283D01*
X017647Y025171D01*
X017648Y025171D01*
X017649Y025170D01*
X017739Y025116D01*
X017739Y025116D01*
X017788Y025086D01*
X017788Y025086D01*
X017788Y025086D01*
X017886Y025028D01*
X017886Y025028D01*
X017886Y025028D01*
X017984Y024971D01*
X017984Y024971D01*
X017985Y024971D01*
X018083Y024915D01*
X018083Y024914D01*
X018084Y024914D01*
X018133Y024887D01*
X018133Y024887D01*
X018133Y024887D01*
X018237Y024829D01*
X018237Y024828D01*
X018238Y024828D01*
X018447Y024715D01*
X018448Y024715D01*
X018448Y024714D01*
X018659Y024605D01*
X018659Y024604D01*
X018660Y024604D01*
X018872Y024497D01*
X018873Y024497D01*
X018873Y024497D01*
X018980Y024445D01*
X019257Y024310D01*
X019259Y024310D01*
X019260Y024308D01*
X019824Y024059D01*
X019825Y024059D01*
X019827Y024058D01*
X020399Y023828D01*
X020401Y023828D01*
X020402Y023827D01*
X020982Y023618D01*
X020984Y023618D01*
X020985Y023617D01*
X021157Y023562D01*
X021165Y023561D01*
X021172Y023558D01*
X021185Y023559D01*
X021197Y023557D01*
X021204Y023560D01*
X021212Y023560D01*
X021223Y023565D01*
X021235Y023568D01*
X021241Y023573D01*
X021248Y023577D01*
X021257Y023586D01*
X021266Y023593D01*
X021299Y023597D01*
X021321Y023595D01*
X021638Y023278D01*
X021621Y023191D01*
X021638Y023103D01*
X021688Y023029D01*
X021762Y022979D01*
X021850Y022962D01*
X021938Y022979D01*
X022012Y023029D01*
X022041Y023072D01*
X022104Y023079D01*
X022347Y022837D01*
Y021868D01*
X022338Y021862D01*
X022288Y021788D01*
X022271Y021700D01*
X022288Y021612D01*
X022338Y021538D01*
X022412Y021488D01*
X022500Y021471D01*
X022588Y021488D01*
X022603Y021498D01*
X022647Y021475D01*
Y021368D01*
X022638Y021362D01*
X022588Y021288D01*
X022571Y021200D01*
X022552Y021174D01*
X022540Y021172D01*
X022524Y021167D01*
X022508Y021162D01*
X022506Y021160D01*
X022503Y021159D01*
X022490Y021148D01*
X022477Y021137D01*
X022475Y021134D01*
X022473Y021133D01*
X022466Y021117D01*
X022458Y021102D01*
X022349Y020752D01*
X022349Y020752D01*
X022349Y020752D01*
X022290Y020556D01*
X022290Y020556D01*
X022290Y020556D01*
X022237Y020377D01*
X022237Y020377D01*
X022237Y020376D01*
X022190Y020210D01*
X022190Y020210D01*
X022189Y020209D01*
X022146Y020052D01*
X022146Y020052D01*
X022146Y020052D01*
X022131Y019995D01*
X022131Y019995D01*
X022131Y019994D01*
X022101Y019881D01*
X022101Y019881D01*
X022101Y019880D01*
X022072Y019767D01*
X022072Y019766D01*
X022072Y019766D01*
X022044Y019652D01*
X022044Y019651D01*
X022044Y019651D01*
X022030Y019594D01*
X022030Y019594D01*
X022030Y019594D01*
X021993Y019435D01*
X021993Y019435D01*
X021993Y019435D01*
X021987Y019408D01*
X021987Y019407D01*
X021987Y019407D01*
X021975Y019352D01*
X021975Y019352D01*
X021975Y019352D01*
X021963Y019297D01*
X021963Y019297D01*
X021963Y019296D01*
X021955Y019261D01*
X021955Y019260D01*
X021955Y019260D01*
X021946Y019214D01*
X021908Y019032D01*
X021908Y019032D01*
X021906Y019022D01*
X021902Y019002D01*
X021897Y018982D01*
X021893Y018962D01*
X021890Y018951D01*
X021890Y018951D01*
X021890Y018950D01*
X021888Y018940D01*
X021883Y018921D01*
X021878Y018901D01*
X021873Y018882D01*
X021870Y018872D01*
X021870Y018872D01*
X021870Y018872D01*
X021861Y018839D01*
X021841Y018774D01*
X021819Y018710D01*
X021795Y018646D01*
X021782Y018614D01*
X021782Y018614D01*
X021782Y018614D01*
X021777Y018601D01*
X021767Y018576D01*
X021757Y018554D01*
X021757Y018554D01*
X021757Y018554D01*
X021756Y018551D01*
X021745Y018526D01*
X021739Y018513D01*
X021739Y018513D01*
X021733Y018500D01*
X021720Y018473D01*
X021706Y018447D01*
X021691Y018420D01*
X021684Y018407D01*
X021684Y018407D01*
X021683Y018407D01*
X021679Y018400D01*
X021673Y018388D01*
X021673Y018388D01*
X021673Y018388D01*
X021672Y018387D01*
X021672Y018387D01*
X021672Y018387D01*
X021671Y018386D01*
X021663Y018372D01*
X021654Y018358D01*
X021649Y018351D01*
X021649Y018351D01*
X021649Y018351D01*
X021640Y018336D01*
X021621Y018307D01*
X021601Y018279D01*
X021581Y018250D01*
X021570Y018236D01*
X021560Y018222D01*
X021539Y018195D01*
X021517Y018168D01*
X021495Y018142D01*
X021484Y018129D01*
X021484Y018128D01*
X021484Y018128D01*
X021478Y018122D01*
X021471Y018114D01*
X021471Y018114D01*
X021471Y018114D01*
X021468Y018110D01*
X021457Y018098D01*
X021446Y018087D01*
X021441Y018081D01*
X021440Y018080D01*
X021440Y018080D01*
X021435Y018074D01*
X021425Y018064D01*
X021414Y018053D01*
X021404Y018043D01*
X021398Y018037D01*
X021398Y018037D01*
X021397Y018037D01*
X021393Y018032D01*
X021383Y018023D01*
X021373Y018014D01*
X021363Y018005D01*
X021358Y018000D01*
X021358Y018000D01*
X021357Y018000D01*
X021348Y017992D01*
X021329Y017976D01*
X021311Y017961D01*
X021292Y017945D01*
X021282Y017938D01*
X021282Y017938D01*
X021281Y017937D01*
X021278Y017934D01*
X021270Y017928D01*
X021263Y017923D01*
X021255Y017917D01*
X021251Y017914D01*
X021251Y017914D01*
X021250Y017913D01*
X021247Y017911D01*
X021240Y017906D01*
X021234Y017901D01*
X021227Y017896D01*
X021224Y017894D01*
X021223Y017894D01*
X021223Y017893D01*
X021215Y017888D01*
X021199Y017876D01*
X021183Y017866D01*
X021166Y017855D01*
X021158Y017850D01*
X021158Y017850D01*
X021158Y017850D01*
X021125Y017829D01*
X021125Y017829D01*
X021124Y017829D01*
X021124Y017828D01*
X021123Y017828D01*
X021122Y017827D01*
X021119Y017825D01*
X021118Y017824D01*
X021116Y017824D01*
X021113Y017821D01*
X021112Y017820D01*
X021111Y017820D01*
X021107Y017817D01*
X021107Y017817D01*
X021085Y017803D01*
X021084Y017801D01*
X021082Y017800D01*
X021039Y017770D01*
X021038Y017768D01*
X021036Y017767D01*
X020995Y017735D01*
X020994Y017733D01*
X020992Y017732D01*
X020952Y017698D01*
X020951Y017697D01*
X020949Y017696D01*
X020930Y017678D01*
X020911Y017660D01*
X020909Y017658D01*
X020907Y017657D01*
X020871Y017620D01*
X020869Y017618D01*
X020867Y017616D01*
X020833Y017577D01*
X020832Y017575D01*
X020830Y017573D01*
X020798Y017533D01*
X020796Y017530D01*
X020794Y017528D01*
X020779Y017507D01*
X020763Y017485D01*
X020762Y017482D01*
X020760Y017480D01*
X020730Y017433D01*
X020729Y017431D01*
X020727Y017429D01*
X020700Y017380D01*
X020699Y017378D01*
X020697Y017376D01*
X020672Y017326D01*
X020671Y017323D01*
X020670Y017321D01*
X020658Y017296D01*
X020652Y017282D01*
X020652Y017281D01*
X020651Y017280D01*
X020639Y017251D01*
X020639Y017250D01*
X020638Y017249D01*
X020626Y017220D01*
X020626Y017218D01*
X020626Y017217D01*
X020615Y017188D01*
X020614Y017187D01*
X020614Y017186D01*
X020609Y017171D01*
X020603Y017155D01*
X020603Y017154D01*
X020603Y017153D01*
X020592Y017121D01*
X020592Y017120D01*
X020591Y017119D01*
X020581Y017086D01*
X020581Y017085D01*
X020580Y017084D01*
X020579Y017079D01*
X020579Y017079D01*
X020579Y017079D01*
X020566Y017034D01*
X020566Y017033D01*
X020566Y017032D01*
X020554Y016987D01*
X020554Y016987D01*
X020554Y016986D01*
X020551Y016976D01*
X020551Y016975D01*
X020551Y016975D01*
X020542Y016938D01*
X020542Y016937D01*
X020542Y016936D01*
X020533Y016899D01*
X020533Y016898D01*
X020533Y016897D01*
X020529Y016878D01*
Y016878D01*
X020525Y016858D01*
X020525Y016857D01*
X020525Y016857D01*
X020517Y016815D01*
X020517Y016814D01*
X020516Y016814D01*
X020509Y016772D01*
X020509Y016771D01*
X020509Y016771D01*
X020502Y016729D01*
X020502Y016728D01*
X020501Y016728D01*
X020498Y016707D01*
X020498Y016706D01*
X020498Y016706D01*
X020491Y016658D01*
X020491Y016656D01*
X020490Y016655D01*
X020478Y016557D01*
X020479Y016556D01*
X020478Y016554D01*
X020469Y016456D01*
X020469Y016455D01*
X020469Y016453D01*
X020463Y016356D01*
X020463Y016354D01*
X020463Y016353D01*
X020461Y016303D01*
X020461Y016303D01*
X020461Y016303D01*
X020460Y016254D01*
X020460Y016253D01*
X020460Y016253D01*
X020459Y016219D01*
X020459Y016218D01*
X020459Y016218D01*
X020458Y016162D01*
X020458Y016161D01*
X020458Y016161D01*
X020458Y016105D01*
X020458Y016104D01*
X020458Y016104D01*
X020459Y016076D01*
X020459Y016046D01*
X020459Y016045D01*
X020459Y016045D01*
X020460Y015985D01*
X020460Y015984D01*
X020460Y015983D01*
X020462Y015923D01*
X020463Y015923D01*
X020462Y015922D01*
X020465Y015862D01*
X020465Y015862D01*
X020465Y015861D01*
X020467Y015831D01*
X020469Y015799D01*
X020469Y015798D01*
X020469Y015798D01*
X020473Y015733D01*
X020473Y015733D01*
X020473Y015732D01*
X020478Y015668D01*
X020478Y015667D01*
X020478Y015667D01*
X020484Y015602D01*
X020484Y015602D01*
X020484Y015601D01*
X020487Y015569D01*
X020487Y015569D01*
X020487Y015569D01*
X020490Y015535D01*
X020490Y015534D01*
X020490Y015534D01*
X020498Y015465D01*
X020498Y015464D01*
X020498Y015464D01*
X020506Y015395D01*
X020506Y015395D01*
X020506Y015394D01*
X020514Y015326D01*
X020515Y015325D01*
X020515Y015325D01*
X020519Y015290D01*
X020519Y015290D01*
X020519Y015290D01*
X020524Y015254D01*
X020524Y015253D01*
X020524Y015253D01*
X020535Y015180D01*
X020535Y015180D01*
X020535Y015179D01*
X020546Y015106D01*
X020546Y015106D01*
X020546Y015106D01*
X020558Y015033D01*
X020558Y015032D01*
X020558Y015032D01*
X020564Y014996D01*
X020564Y014996D01*
Y014996D01*
X020570Y014957D01*
X020570Y014957D01*
X020570Y014956D01*
X020584Y014879D01*
X020584Y014879D01*
X020584Y014878D01*
X020599Y014801D01*
X020599Y014801D01*
X020599Y014801D01*
X020614Y014724D01*
X020614Y014723D01*
X020614Y014723D01*
X020622Y014685D01*
X020622Y014685D01*
Y014685D01*
X020630Y014644D01*
X020630Y014644D01*
X020630Y014643D01*
X020647Y014562D01*
X020647Y014562D01*
X020647Y014562D01*
X020665Y014481D01*
X020665Y014480D01*
X020665Y014480D01*
X020683Y014399D01*
X020684Y014399D01*
X020684Y014399D01*
X020693Y014358D01*
X020693Y014358D01*
X020693Y014358D01*
X020703Y014316D01*
X020703Y014315D01*
X020703Y014315D01*
X020724Y014230D01*
X020724Y014230D01*
X020724Y014229D01*
X020745Y014145D01*
X020745Y014144D01*
X020745Y014144D01*
X020767Y014059D01*
X020767Y014059D01*
X020767Y014059D01*
X020778Y014016D01*
X020779Y014016D01*
X020779Y014016D01*
X020783Y013998D01*
X020783Y013998D01*
X020783Y013998D01*
X020793Y013962D01*
X020793Y013962D01*
X020793Y013961D01*
X020803Y013926D01*
X020803Y013925D01*
X020803Y013925D01*
X020806Y013916D01*
X020806Y013916D01*
X020806Y013916D01*
X020819Y013871D01*
X020819Y013871D01*
X020819Y013871D01*
X020843Y013787D01*
X020843Y013787D01*
X020843Y013787D01*
X020869Y013699D01*
X020869Y013699D01*
X020869Y013698D01*
X020950Y013432D01*
X020950Y013432D01*
X020950Y013431D01*
X020976Y013350D01*
X020976Y013349D01*
X020976Y013349D01*
X021000Y013275D01*
X021000Y013275D01*
X021000Y013275D01*
X021021Y013211D01*
X021082Y013025D01*
X021104Y012956D01*
X021125Y012890D01*
X021134Y012859D01*
X021143Y012829D01*
X021148Y012814D01*
X021152Y012800D01*
X021156Y012786D01*
X021160Y012771D01*
X021164Y012757D01*
X021172Y012729D01*
X021176Y012714D01*
X021180Y012699D01*
X021182Y012692D01*
X021184Y012684D01*
X021184Y012683D01*
X021185Y012682D01*
X021186Y012677D01*
X021189Y012667D01*
X021191Y012657D01*
X021193Y012647D01*
X021194Y012644D01*
X021196Y012639D01*
X021196Y012635D01*
X021204Y012607D01*
X021205Y012606D01*
X021205Y012606D01*
X021211Y012587D01*
X021211Y012586D01*
X021212Y012584D01*
X021213Y012579D01*
X021214Y012577D01*
X021214Y012575D01*
X021215Y012573D01*
X021216Y012570D01*
X021216Y012567D01*
X021216Y012565D01*
X021217Y012563D01*
X021217Y012560D01*
X021217Y012557D01*
X021218Y012555D01*
X021218Y012552D01*
X021218Y012551D01*
X021218Y012551D01*
X021218Y012550D01*
X021218Y012549D01*
X021219Y012547D01*
X021219Y012542D01*
X021220Y012537D01*
X021220Y012531D01*
X021220Y012529D01*
X021221Y012526D01*
X021221Y012524D01*
X021221Y012519D01*
X021222Y012511D01*
X021223Y012503D01*
X021223Y012494D01*
X021223Y012490D01*
X021223Y012488D01*
X021223Y012486D01*
X021224Y012480D01*
X021224Y012468D01*
X021225Y012456D01*
X021225Y012445D01*
X021225Y012438D01*
X021225Y012437D01*
X021225Y012436D01*
X021225Y012428D01*
X021225Y012413D01*
X021226Y012398D01*
X021225Y012383D01*
X021225Y012376D01*
X021226Y012373D01*
X021226Y012373D01*
X021226Y012372D01*
X021226Y012370D01*
X021226Y012370D01*
X021226Y012370D01*
X021226Y012370D01*
X021226Y012370D01*
X021226Y012369D01*
X021226Y012368D01*
X021226Y012368D01*
X021226Y012368D01*
Y012368D01*
X021226Y012368D01*
X021226Y012368D01*
X021226Y012367D01*
X021226Y012367D01*
X021226Y012366D01*
X021225Y012365D01*
Y012365D01*
X021226Y012365D01*
X021225Y012364D01*
X021225Y012337D01*
X021225Y012328D01*
X021225Y012328D01*
X021225Y012328D01*
X021223Y012282D01*
X021219Y012228D01*
X021216Y012196D01*
X021214Y012194D01*
X021171Y012173D01*
X021165Y012173D01*
X021153Y012182D01*
X021127Y012197D01*
X021123Y012198D01*
X021109Y012205D01*
X021035Y012245D01*
X020887Y012290D01*
X020733Y012305D01*
X020579Y012290D01*
X020551Y012281D01*
X020514Y012322D01*
X020525Y012410D01*
X020512Y012509D01*
X020512D01*
X020507Y012534D01*
X020503Y012545D01*
X020501Y012554D01*
X020500Y012557D01*
X020489Y012595D01*
X020488Y012597D01*
X020488Y012600D01*
X020474Y012648D01*
X020473Y012650D01*
X020472Y012652D01*
X020456Y012707D01*
X020455Y012708D01*
X020455Y012709D01*
X020436Y012769D01*
X020435Y012771D01*
X020435Y012772D01*
X020414Y012836D01*
X020413Y012838D01*
X020413Y012839D01*
X020368Y012976D01*
X020317Y013131D01*
X020290Y013217D01*
X020262Y013306D01*
X020263Y013308D01*
X020263Y013308D01*
X020157Y013651D01*
X020154Y013673D01*
X020130Y013756D01*
X020110Y013833D01*
X020110Y013834D01*
X020110Y013834D01*
X020110Y013834D01*
X019999Y014266D01*
X019876Y014882D01*
X019832Y015197D01*
X019832Y015197D01*
X019832D01*
X019828Y015199D01*
X019777Y015679D01*
X019773Y015794D01*
X019774Y015794D01*
X019774D01*
X019772Y015843D01*
X019761Y016114D01*
X019770Y016336D01*
X019770Y016336D01*
X019772Y016385D01*
X019779Y016543D01*
X019809Y016770D01*
X019816Y016819D01*
X019816Y016819D01*
X019837Y016962D01*
X019907Y017242D01*
X019911Y017244D01*
X019911D01*
X019946Y017368D01*
X020047Y017611D01*
X020050Y017612D01*
X020050D01*
X020050Y017612D01*
X020127Y017769D01*
X020233Y017926D01*
X020233Y017926D01*
X020276Y017991D01*
X020443Y018181D01*
X020633Y018348D01*
X020730Y018413D01*
X020730Y018413D01*
X020758Y018432D01*
X020771Y018442D01*
X020830Y018485D01*
X020832Y018486D01*
X020832Y018486D01*
X020870Y018514D01*
X020889Y018530D01*
X020915Y018550D01*
X020918Y018554D01*
X020959Y018588D01*
X020979Y018612D01*
X020991Y018626D01*
X020990Y018625D01*
X020990Y018625D01*
X020989Y018625D01*
X020989Y018625D01*
X020989Y018625D01*
X020989Y018625D01*
X021048Y018697D01*
X021084Y018764D01*
X021091Y018773D01*
X021099Y018791D01*
X021113Y018818D01*
X021110Y018819D01*
X021137Y018883D01*
X021153Y018923D01*
X021155Y018929D01*
X021159Y018943D01*
X021160Y018947D01*
X021161Y018951D01*
X021168Y018977D01*
X021188Y019036D01*
X021191Y019052D01*
X021202Y019101D01*
X021216Y019149D01*
X021222Y019171D01*
X021227Y019197D01*
X021227Y019198D01*
X021268Y019374D01*
X021268Y019374D01*
X021268Y019375D01*
X021319Y019597D01*
X021319Y019601D01*
X021397Y019920D01*
X021397Y019920D01*
X021397Y019920D01*
X021405Y019969D01*
X021524Y020401D01*
X021524Y020401D01*
X021524Y020401D01*
X021523Y020403D01*
X021572Y020575D01*
X021627Y020760D01*
X021688Y020961D01*
X021755Y021182D01*
X021831Y021425D01*
X021836Y021449D01*
X021896Y021638D01*
X021896Y021638D01*
X021896Y021638D01*
X021897Y021640D01*
X021924Y021735D01*
X021924Y021738D01*
X021925Y021740D01*
X021949Y021828D01*
X021950Y021830D01*
X021951Y021833D01*
X021967Y021896D01*
X021971Y021912D01*
X021978Y021951D01*
X021987Y021977D01*
X021989Y021991D01*
X021999Y022033D01*
X021999Y022034D01*
X022001Y022046D01*
X022003Y022059D01*
X022014Y022107D01*
X022014Y022107D01*
X022014Y022109D01*
X022016Y022124D01*
X022014Y022125D01*
X022016Y022148D01*
X022021Y022182D01*
X022020Y022187D01*
X022024Y022215D01*
X022009Y022324D01*
X021981Y022391D01*
X021967Y022427D01*
X021960Y022435D01*
X021960Y022435D01*
X021902Y022510D01*
X021819Y022575D01*
X021790Y022586D01*
X021778Y022593D01*
X021777Y022594D01*
X021774Y022595D01*
X021743Y022612D01*
X021711Y022621D01*
X021686Y022632D01*
X021670Y022640D01*
X021616Y022660D01*
X021614Y022660D01*
X021612Y022661D01*
X021546Y022684D01*
X021545Y022684D01*
X021543Y022685D01*
X021468Y022711D01*
X021467Y022711D01*
X021466Y022712D01*
X021383Y022740D01*
X021382Y022740D01*
X021381Y022740D01*
X021291Y022770D01*
X021289Y022770D01*
X021288Y022771D01*
X021139Y022819D01*
X021092Y022835D01*
X021092Y022835D01*
X021092Y022835D01*
X020832Y022915D01*
X020055Y023196D01*
X019293Y023512D01*
X018546Y023862D01*
X017852Y024228D01*
X017815Y024251D01*
X017814Y024252D01*
X017809Y024254D01*
X017809Y024254D01*
X017660Y024335D01*
X017395Y024498D01*
X017395Y024498D01*
X017353Y024524D01*
X017052Y024708D01*
X017002Y024742D01*
X017003Y024745D01*
X017003Y024745D01*
X016963Y024772D01*
X016676Y024963D01*
X016637Y024994D01*
X016637Y024994D01*
X016534Y025065D01*
X015969Y025498D01*
X015427Y025961D01*
X014933Y026429D01*
X014899Y026466D01*
X014899Y026467D01*
X014898Y026467D01*
X014864Y026501D01*
X014478Y026909D01*
X014186Y027255D01*
X014186Y027256D01*
Y027256D01*
X014031Y027442D01*
X013873Y027656D01*
X013873Y027656D01*
X013843Y027696D01*
X013616Y028013D01*
X013607Y028027D01*
X013604Y028036D01*
X013604Y028037D01*
X013590Y028056D01*
X013564Y028098D01*
X013367Y028414D01*
X013344Y028458D01*
X013344Y028458D01*
X013258Y028603D01*
X013154Y028812D01*
X013132Y028855D01*
X013132D01*
X013130Y028856D01*
X013059Y028994D01*
X013028Y029064D01*
X013028Y029064D01*
X012998Y029134D01*
X012998Y029134D01*
X012986Y029163D01*
X012979Y029183D01*
X012972Y029205D01*
X012968Y029225D01*
X012969Y029273D01*
X012973Y029323D01*
X012974Y029332D01*
X012974Y029332D01*
X013020Y029790D01*
X013159Y030796D01*
X013337Y031796D01*
X013555Y032789D01*
X013757Y033561D01*
X013771Y033608D01*
X013771Y033608D01*
X013891Y034045D01*
X014178Y034939D01*
X014416Y035589D01*
X014417Y035589D01*
X014417D01*
X014417Y035589D01*
X014649Y036186D01*
X014654Y036198D01*
X014666Y036219D01*
X014926Y036843D01*
X014940Y036893D01*
X014953Y036944D01*
X014953Y036944D01*
X014953Y036945D01*
X014954Y036997D01*
X014954Y037049D01*
X014916Y037351D01*
X014762Y038602D01*
X014694Y039190D01*
X014571Y040328D01*
X014408Y042057D01*
X014357Y042667D01*
X014306Y043304D01*
X014307Y043305D01*
X014307Y043305D01*
X014307Y043305D01*
X014275Y043767D01*
X014270Y043980D01*
X014270D01*
X014270Y043981D01*
X014256Y044406D01*
X014245Y044861D01*
X014235Y045791D01*
X014233Y045800D01*
X014231Y045953D01*
X014235Y046214D01*
X014235Y046216D01*
X014240Y046600D01*
X014241Y046601D01*
X014241Y046601D01*
X014241Y046601D01*
X014247Y046866D01*
X014250Y046916D01*
X014252Y046964D01*
X014259Y047132D01*
X014261Y047134D01*
X014261Y047134D01*
X014261Y047134D01*
X014305Y047579D01*
X014324Y047692D01*
X014323Y047693D01*
X014332Y047761D01*
X014365Y047927D01*
X014365D01*
X014374Y047977D01*
X014409Y048134D01*
X014409Y048134D01*
X014409Y048134D01*
X014420Y048183D01*
X014457Y048310D01*
X014472Y048357D01*
X014489Y048408D01*
X014507Y048455D01*
X014535Y048522D01*
X014558Y048567D01*
X014578Y048604D01*
X014604Y048646D01*
X014612Y048656D01*
X014631Y048680D01*
X014661Y048706D01*
X014676Y048714D01*
X014706Y048724D01*
X014742Y048722D01*
D02*
G37*
%LPC*%
G36*
X028820Y020419D02*
X028302D01*
Y020159D01*
X028820D01*
Y020419D01*
D02*
G37*
G36*
X028152D02*
X027635D01*
Y020159D01*
X028152D01*
Y020419D01*
D02*
G37*
G36*
X030318Y020419D02*
X029800D01*
Y020159D01*
X030318D01*
Y020419D01*
D02*
G37*
G36*
Y020829D02*
X029800D01*
Y020569D01*
X030318D01*
Y020829D01*
D02*
G37*
G36*
X030985D02*
X030468D01*
Y020569D01*
X030985D01*
Y020829D01*
D02*
G37*
G36*
Y020419D02*
X030468D01*
Y020159D01*
X030985D01*
Y020419D01*
D02*
G37*
G36*
X028152Y020829D02*
X027635D01*
Y020569D01*
X028152D01*
Y020829D01*
D02*
G37*
G36*
X028820D02*
X028302D01*
Y020569D01*
X028820D01*
Y020829D01*
D02*
G37*
G36*
X030318Y019435D02*
X029800D01*
Y019175D01*
X030318D01*
Y019435D01*
D02*
G37*
G36*
X030985D02*
X030468D01*
Y019175D01*
X030985D01*
Y019435D01*
D02*
G37*
G36*
X028820Y019435D02*
X028302D01*
Y019175D01*
X028820D01*
Y019435D01*
D02*
G37*
G36*
X028152D02*
X027635D01*
Y019175D01*
X028152D01*
Y019435D01*
D02*
G37*
G36*
Y019845D02*
X027635D01*
Y019585D01*
X028152D01*
Y019845D01*
D02*
G37*
G36*
X030318D02*
X029800D01*
Y019585D01*
X030318D01*
Y019845D01*
D02*
G37*
G36*
X030985D02*
X030468D01*
Y019585D01*
X030985D01*
Y019845D01*
D02*
G37*
G36*
X028820D02*
X028302D01*
Y019585D01*
X028820D01*
Y019845D01*
D02*
G37*
G36*
X036100Y018879D02*
X036012Y018862D01*
X035938Y018812D01*
X035888Y018738D01*
X035871Y018650D01*
X035888Y018562D01*
X035938Y018488D01*
X035947Y018482D01*
Y015769D01*
X035912Y015762D01*
X035838Y015712D01*
X035788Y015638D01*
X035771Y015550D01*
X035788Y015462D01*
X035838Y015388D01*
X035912Y015338D01*
X036000Y015321D01*
X036088Y015338D01*
X036162Y015388D01*
X036212Y015462D01*
X036229Y015550D01*
X036226Y015568D01*
X036241Y015591D01*
X036253Y015650D01*
Y016225D01*
X036297Y016248D01*
X036312Y016238D01*
X036400Y016221D01*
X036488Y016238D01*
X036562Y016288D01*
X036612Y016362D01*
X036629Y016450D01*
X036612Y016538D01*
X036562Y016612D01*
X036553Y016618D01*
Y017732D01*
X036562Y017738D01*
X036612Y017812D01*
X036629Y017900D01*
X036612Y017988D01*
X036562Y018062D01*
X036488Y018112D01*
X036400Y018129D01*
X036312Y018112D01*
X036297Y018102D01*
X036253Y018125D01*
Y018482D01*
X036262Y018488D01*
X036312Y018562D01*
X036329Y018650D01*
X036312Y018738D01*
X036262Y018812D01*
X036188Y018862D01*
X036100Y018879D01*
D02*
G37*
G36*
X028446Y011863D02*
X028369Y011848D01*
X028303Y011804D01*
X028260Y011739D01*
X028244Y011661D01*
X028260Y011584D01*
X028303Y011519D01*
X028369Y011475D01*
X028446Y011460D01*
X028523Y011475D01*
X028589Y011519D01*
X028632Y011584D01*
X028648Y011661D01*
X028632Y011739D01*
X028589Y011804D01*
X028523Y011848D01*
X028446Y011863D01*
D02*
G37*
G36*
X035225Y012105D02*
X035206Y012103D01*
X035118Y012066D01*
X035042Y012008D01*
X034984Y011932D01*
X034948Y011844D01*
X034945Y011825D01*
X035225D01*
Y012105D01*
D02*
G37*
G36*
X035375D02*
Y011825D01*
X035655D01*
X035652Y011844D01*
X035616Y011932D01*
X035558Y012008D01*
X035482Y012066D01*
X035394Y012103D01*
X035375Y012105D01*
D02*
G37*
G36*
X035225Y011675D02*
X034945D01*
X034948Y011656D01*
X034984Y011568D01*
X035042Y011492D01*
X035118Y011434D01*
X035206Y011398D01*
X035225Y011395D01*
Y011675D01*
D02*
G37*
G36*
X035655D02*
X035375D01*
Y011395D01*
X035394Y011398D01*
X035482Y011434D01*
X035558Y011492D01*
X035616Y011568D01*
X035652Y011656D01*
X035655Y011675D01*
D02*
G37*
G36*
X030080Y011863D02*
X030003Y011848D01*
X029937Y011804D01*
X029894Y011739D01*
X029878Y011661D01*
X029894Y011584D01*
X029937Y011519D01*
X030003Y011475D01*
X030080Y011460D01*
X030157Y011475D01*
X030223Y011519D01*
X030266Y011584D01*
X030282Y011661D01*
X030266Y011739D01*
X030223Y011804D01*
X030157Y011848D01*
X030080Y011863D01*
D02*
G37*
G36*
X035300Y012965D02*
X035206Y012953D01*
X035118Y012916D01*
X035042Y012858D01*
X034984Y012782D01*
X034948Y012694D01*
X034935Y012600D01*
X034948Y012506D01*
X034984Y012418D01*
X035042Y012342D01*
X035118Y012284D01*
X035206Y012248D01*
X035300Y012235D01*
X035394Y012248D01*
X035482Y012284D01*
X035558Y012342D01*
X035616Y012418D01*
X035652Y012506D01*
X035665Y012600D01*
X035652Y012694D01*
X035616Y012782D01*
X035558Y012858D01*
X035482Y012916D01*
X035394Y012953D01*
X035300Y012965D01*
D02*
G37*
G36*
X037699Y014854D02*
Y014626D01*
X037624D01*
Y014551D01*
X037396D01*
X037400Y014534D01*
X037452Y014455D01*
X037489Y014430D01*
Y014370D01*
X037452Y014345D01*
X037400Y014266D01*
X037396Y014249D01*
X037624D01*
X037851D01*
X037848Y014266D01*
X037795Y014345D01*
X037762Y014367D01*
X037760Y014417D01*
X037799Y014452D01*
X038170D01*
X038238Y014465D01*
X038296Y014504D01*
X038335Y014562D01*
X038348Y014630D01*
X038335Y014698D01*
X038296Y014756D01*
X038238Y014795D01*
X038170Y014808D01*
X037779D01*
X037716Y014850D01*
X037699Y014854D01*
D02*
G37*
G36*
X037549Y014854D02*
X037531Y014850D01*
X037452Y014798D01*
X037400Y014719D01*
X037396Y014701D01*
X037549D01*
Y014854D01*
D02*
G37*
G36*
X025000Y016229D02*
X024912Y016212D01*
X024838Y016162D01*
X024788Y016088D01*
X024771Y016000D01*
X024773Y015989D01*
X023637Y014853D01*
X023368D01*
X023362Y014862D01*
X023288Y014912D01*
X023200Y014929D01*
X023112Y014912D01*
X023038Y014862D01*
X022988Y014788D01*
X022971Y014700D01*
X022988Y014612D01*
X023038Y014538D01*
X023112Y014488D01*
X023200Y014471D01*
X023288Y014488D01*
X023362Y014538D01*
X023368Y014547D01*
X023700D01*
X023759Y014559D01*
X023808Y014592D01*
X024989Y015773D01*
X025000Y015771D01*
X025088Y015788D01*
X025162Y015838D01*
X025212Y015912D01*
X025229Y016000D01*
X025212Y016088D01*
X025162Y016162D01*
X025088Y016212D01*
X025000Y016229D01*
D02*
G37*
G36*
X033700Y015327D02*
X033628Y015318D01*
X033561Y015290D01*
X033504Y015246D01*
X033460Y015189D01*
X033432Y015122D01*
X033423Y015050D01*
X033432Y014978D01*
X033460Y014911D01*
X033504Y014854D01*
X033561Y014810D01*
X033628Y014782D01*
X033700Y014773D01*
X033772Y014782D01*
X033839Y014810D01*
X033886Y014846D01*
X035526D01*
X035754Y014617D01*
X035762Y014558D01*
X035790Y014491D01*
X035834Y014434D01*
X035891Y014390D01*
X035958Y014362D01*
X036030Y014353D01*
X036102Y014362D01*
X036169Y014390D01*
X036226Y014434D01*
X036240Y014452D01*
X036410D01*
X036442Y014430D01*
Y014370D01*
X036405Y014345D01*
X036352Y014266D01*
X036334Y014174D01*
X036352Y014081D01*
X036402Y014007D01*
Y013880D01*
X036384Y013866D01*
X036340Y013809D01*
X036312Y013742D01*
X036303Y013670D01*
X036312Y013598D01*
X036340Y013531D01*
X036384Y013474D01*
X036441Y013430D01*
X036508Y013402D01*
X036580Y013393D01*
X036652Y013402D01*
X036719Y013430D01*
X036776Y013474D01*
X036820Y013531D01*
X036848Y013598D01*
X036857Y013670D01*
X036848Y013742D01*
X036820Y013809D01*
X036776Y013866D01*
X036758Y013880D01*
Y014018D01*
X036800Y014081D01*
X036819Y014174D01*
X036800Y014266D01*
X036748Y014345D01*
X036711Y014370D01*
Y014430D01*
X036748Y014455D01*
X036800Y014534D01*
X036819Y014626D01*
X036800Y014719D01*
X036748Y014798D01*
X036669Y014850D01*
X036576Y014869D01*
X036484Y014850D01*
X036421Y014808D01*
X036240D01*
X036226Y014826D01*
X036169Y014870D01*
X036102Y014898D01*
X036043Y014906D01*
X035754Y015194D01*
X035688Y015238D01*
X035610Y015254D01*
X033886D01*
X033839Y015290D01*
X033772Y015318D01*
X033700Y015327D01*
D02*
G37*
G36*
X037851Y014099D02*
X037624D01*
X037396D01*
X037400Y014081D01*
X037442Y014018D01*
Y013670D01*
X037455Y013602D01*
X037494Y013544D01*
X037552Y013505D01*
X037620Y013492D01*
X037688Y013505D01*
X037746Y013544D01*
X037785Y013602D01*
X037798Y013670D01*
Y014007D01*
X037848Y014081D01*
X037851Y014099D01*
D02*
G37*
G36*
X027650Y014579D02*
X027562Y014562D01*
X027488Y014512D01*
X027438Y014438D01*
X027421Y014350D01*
X027423Y014339D01*
X027192Y014108D01*
X027159Y014059D01*
X027147Y014000D01*
Y012000D01*
X027159Y011941D01*
X027192Y011892D01*
X027965Y011118D01*
X028006Y011135D01*
X028021Y011121D01*
X028021Y011121D01*
X028057Y011096D01*
X028100Y011088D01*
X028100Y011088D01*
X030600D01*
X030600Y011088D01*
X030643Y011096D01*
X030679Y011121D01*
X030864Y011305D01*
X030905Y011288D01*
X030989Y011373D01*
X031000Y011371D01*
X031088Y011388D01*
X031162Y011438D01*
X031212Y011512D01*
X031229Y011600D01*
X031212Y011688D01*
X031162Y011762D01*
X031088Y011812D01*
X031000Y011829D01*
X030912Y011812D01*
X030910Y011810D01*
Y011762D01*
X030867Y011733D01*
X030826Y011672D01*
X030811Y011600D01*
X030816Y011575D01*
X030554Y011312D01*
X028146D01*
X027960Y011499D01*
Y011556D01*
X027453Y012063D01*
Y013937D01*
X027639Y014123D01*
X027650Y014121D01*
X027738Y014138D01*
X027812Y014188D01*
X027862Y014262D01*
X027879Y014350D01*
X027862Y014438D01*
X027812Y014512D01*
X027738Y014562D01*
X027650Y014579D01*
D02*
G37*
G36*
X037375Y032377D02*
X037025D01*
X036953Y032368D01*
X036886Y032340D01*
X036829Y032296D01*
X036785Y032239D01*
X036757Y032172D01*
X036748Y032100D01*
X036757Y032028D01*
X036785Y031961D01*
X036829Y031904D01*
X036853Y031885D01*
Y031822D01*
X036829Y031804D01*
X036785Y031747D01*
X036757Y031680D01*
X036748Y031608D01*
X036757Y031536D01*
X036785Y031469D01*
X036829Y031412D01*
X036853Y031393D01*
Y031330D01*
X036829Y031312D01*
X036785Y031254D01*
X036758Y031191D01*
X037642D01*
X037615Y031254D01*
X037571Y031312D01*
X037547Y031330D01*
Y031393D01*
X037571Y031412D01*
X037615Y031469D01*
X037643Y031536D01*
X037652Y031608D01*
X037643Y031680D01*
X037615Y031747D01*
X037571Y031804D01*
X037547Y031822D01*
Y031885D01*
X037571Y031904D01*
X037615Y031961D01*
X037643Y032028D01*
X037652Y032100D01*
X037643Y032172D01*
X037615Y032239D01*
X037571Y032296D01*
X037514Y032340D01*
X037447Y032368D01*
X037375Y032377D01*
D02*
G37*
G36*
X016100Y033629D02*
X016012Y033612D01*
X015938Y033562D01*
X015888Y033488D01*
X015871Y033400D01*
X015888Y033312D01*
X015938Y033238D01*
X015953Y033227D01*
Y033177D01*
X015938Y033167D01*
X015888Y033093D01*
X015871Y033005D01*
X015888Y032917D01*
X015938Y032843D01*
X015993Y032805D01*
Y032749D01*
X015938Y032712D01*
X015888Y032638D01*
X015871Y032550D01*
X015888Y032462D01*
X015938Y032388D01*
X016012Y032338D01*
X016100Y032321D01*
X016188Y032338D01*
X016262Y032388D01*
X016312Y032462D01*
X016329Y032550D01*
X016312Y032638D01*
X016262Y032712D01*
X016207Y032749D01*
Y032805D01*
X016262Y032843D01*
X016312Y032917D01*
X016329Y033005D01*
X016312Y033093D01*
X016262Y033167D01*
X016247Y033177D01*
Y033227D01*
X016262Y033238D01*
X016312Y033312D01*
X016329Y033400D01*
X016312Y033488D01*
X016262Y033562D01*
X016188Y033612D01*
X016100Y033629D01*
D02*
G37*
G36*
X029350Y036712D02*
X029231Y036697D01*
X029121Y036651D01*
X029026Y036578D01*
X028953Y036483D01*
X028907Y036373D01*
X028892Y036254D01*
X028907Y036135D01*
X028953Y036025D01*
X029026Y035930D01*
X029121Y035857D01*
X029231Y035811D01*
X029350Y035796D01*
X029469Y035811D01*
X029579Y035857D01*
X029674Y035930D01*
X029747Y036025D01*
X029793Y036135D01*
X029808Y036254D01*
X029793Y036373D01*
X029747Y036483D01*
X029674Y036578D01*
X029579Y036651D01*
X029469Y036697D01*
X029350Y036712D01*
D02*
G37*
G36*
X030246Y030648D02*
X029995D01*
Y030475D01*
X030246D01*
Y030648D01*
D02*
G37*
G36*
X031523Y033253D02*
X031435Y033235D01*
X031361Y033185D01*
X031311Y033111D01*
X031294Y033023D01*
X031311Y032935D01*
X031345Y032885D01*
Y031188D01*
X031311Y031138D01*
X031294Y031050D01*
X031311Y030962D01*
X031361Y030888D01*
X031435Y030838D01*
X031523Y030821D01*
X031611Y030838D01*
X031685Y030888D01*
X031735Y030962D01*
X031753Y031050D01*
X031735Y031138D01*
X031702Y031188D01*
Y032885D01*
X031735Y032935D01*
X031753Y033023D01*
X031735Y033111D01*
X031685Y033185D01*
X031611Y033235D01*
X031523Y033253D01*
D02*
G37*
G36*
X033177D02*
X033089Y033235D01*
X033015Y033185D01*
X032965Y033111D01*
X032947Y033023D01*
X032965Y032935D01*
X032998Y032885D01*
Y031188D01*
X032965Y031138D01*
X032947Y031050D01*
X032965Y030962D01*
X033015Y030888D01*
X033089Y030838D01*
X033177Y030821D01*
X033265Y030838D01*
X033339Y030888D01*
X033389Y030962D01*
X033406Y031050D01*
X033389Y031138D01*
X033355Y031188D01*
Y032885D01*
X033389Y032935D01*
X033406Y033023D01*
X033389Y033111D01*
X033339Y033185D01*
X033265Y033235D01*
X033177Y033253D01*
D02*
G37*
G36*
X029350Y039704D02*
X029231Y039689D01*
X029121Y039643D01*
X029026Y039570D01*
X028953Y039475D01*
X028907Y039365D01*
X028892Y039246D01*
X028907Y039127D01*
X028953Y039017D01*
X029026Y038922D01*
X029121Y038849D01*
X029231Y038803D01*
X029350Y038788D01*
X029469Y038803D01*
X029579Y038849D01*
X029674Y038922D01*
X029747Y039017D01*
X029793Y039127D01*
X029808Y039246D01*
X029793Y039365D01*
X029747Y039475D01*
X029674Y039570D01*
X029579Y039643D01*
X029469Y039689D01*
X029350Y039704D01*
D02*
G37*
G36*
X039724Y043801D02*
X039652Y043792D01*
X039585Y043764D01*
X039528Y043720D01*
X039280Y043472D01*
X039236Y043415D01*
X039208Y043348D01*
X039199Y043276D01*
X039208Y043204D01*
X039236Y043138D01*
X039280Y043080D01*
X039338Y043036D01*
X039404Y043008D01*
X039476Y042999D01*
X039506Y043003D01*
X039551Y042958D01*
X039547Y042928D01*
X039556Y042856D01*
X039584Y042790D01*
X039628Y042732D01*
X039686Y042688D01*
X039752Y042660D01*
X039824Y042651D01*
X039854Y042655D01*
X039899Y042610D01*
X039895Y042580D01*
X039904Y042509D01*
X039931Y042445D01*
X040243Y042757D01*
X040555Y043069D01*
X040491Y043096D01*
X040420Y043105D01*
X040390Y043101D01*
X040345Y043146D01*
X040349Y043176D01*
X040340Y043248D01*
X040312Y043314D01*
X040268Y043372D01*
X040210Y043416D01*
X040144Y043444D01*
X040072Y043453D01*
X040042Y043449D01*
X039997Y043494D01*
X040001Y043524D01*
X039992Y043596D01*
X039964Y043662D01*
X039920Y043720D01*
X039862Y043764D01*
X039796Y043792D01*
X039724Y043801D01*
D02*
G37*
G36*
X018235Y043273D02*
X018209Y043210D01*
X018199Y043138D01*
X018203Y043108D01*
X018159Y043063D01*
X018129Y043067D01*
X018057Y043058D01*
X017990Y043030D01*
X017933Y042986D01*
X017889Y042928D01*
X017861Y042862D01*
X017851Y042790D01*
X017855Y042760D01*
X017811Y042715D01*
X017781Y042719D01*
X017709Y042710D01*
X017642Y042682D01*
X017585Y042638D01*
X017541Y042580D01*
X017513Y042514D01*
X017503Y042442D01*
X017513Y042370D01*
X017541Y042303D01*
X017585Y042246D01*
X017832Y041998D01*
X017890Y041954D01*
X017956Y041926D01*
X018028Y041917D01*
X018100Y041926D01*
X018167Y041954D01*
X018224Y041998D01*
X018268Y042056D01*
X018296Y042123D01*
X018306Y042194D01*
X018302Y042224D01*
X018346Y042269D01*
X018376Y042265D01*
X018448Y042274D01*
X018515Y042302D01*
X018572Y042346D01*
X018616Y042404D01*
X018644Y042470D01*
X018654Y042542D01*
X018650Y042572D01*
X018694Y042617D01*
X018724Y042613D01*
X018796Y042622D01*
X018860Y042649D01*
X018547Y042961D01*
X018235Y043273D01*
D02*
G37*
G36*
X018825Y043763D02*
X018753Y043754D01*
X018686Y043726D01*
X018629Y043682D01*
X018584Y043624D01*
X018557Y043558D01*
X018547Y043486D01*
X018551Y043456D01*
X018507Y043411D01*
X018477Y043415D01*
X018405Y043406D01*
X018341Y043379D01*
X018653Y043067D01*
X018966Y042755D01*
X018992Y042818D01*
X019002Y042890D01*
X018998Y042920D01*
X019042Y042965D01*
X019072Y042961D01*
X019144Y042970D01*
X019211Y042998D01*
X019268Y043042D01*
X019312Y043100D01*
X019340Y043166D01*
X019350Y043238D01*
X019340Y043310D01*
X019312Y043377D01*
X019268Y043434D01*
X019021Y043682D01*
X018963Y043726D01*
X018896Y043754D01*
X018825Y043763D01*
D02*
G37*
G36*
X021075Y039439D02*
X021072Y039438D01*
X021006Y039394D01*
X020962Y039328D01*
X020946Y039250D01*
Y039175D01*
X021075D01*
Y039439D01*
D02*
G37*
G36*
X021750Y039454D02*
X021672Y039438D01*
X021606Y039394D01*
X021594D01*
X021528Y039438D01*
X021525Y039439D01*
Y039100D01*
X021375D01*
Y039439D01*
X021372Y039438D01*
X021306Y039394D01*
X021294D01*
X021228Y039438D01*
X021225Y039439D01*
Y039100D01*
X021150D01*
Y039025D01*
X020946D01*
Y038950D01*
X020962Y038872D01*
X021006Y038806D01*
X021009Y038804D01*
X020993Y038754D01*
X020900D01*
X020822Y038738D01*
X020756Y038694D01*
X020712Y038628D01*
X020696Y038550D01*
X020712Y038472D01*
X020756Y038406D01*
X020822Y038362D01*
X020900Y038346D01*
X021025D01*
X021052Y038296D01*
X021044Y038283D01*
X021041Y038267D01*
X021006Y038244D01*
X020962Y038178D01*
X020946Y038100D01*
Y037800D01*
X020962Y037722D01*
X021006Y037656D01*
X021072Y037612D01*
X021150Y037596D01*
X021228Y037612D01*
X021247Y037624D01*
X021297Y037598D01*
Y037550D01*
X021309Y037491D01*
X021342Y037442D01*
X021992Y036792D01*
X022041Y036759D01*
X022100Y036747D01*
X024737D01*
X031297Y030187D01*
Y028550D01*
X031309Y028491D01*
X031342Y028442D01*
X033297Y026487D01*
Y026068D01*
X033288Y026062D01*
X033238Y025988D01*
X033221Y025900D01*
X033238Y025812D01*
X033288Y025738D01*
X033362Y025688D01*
X033450Y025671D01*
X033538Y025688D01*
X033612Y025738D01*
X033662Y025812D01*
X033679Y025900D01*
X033662Y025988D01*
X033612Y026062D01*
X033603Y026068D01*
Y026550D01*
X033591Y026609D01*
X033558Y026658D01*
X031603Y028613D01*
Y030250D01*
X031591Y030309D01*
X031558Y030358D01*
X024908Y037008D01*
X024859Y037041D01*
X024800Y037053D01*
X022163D01*
X021662Y037554D01*
X021673Y037608D01*
X021676Y037611D01*
X021750Y037596D01*
X021828Y037612D01*
X021894Y037656D01*
X021938Y037722D01*
X021954Y037800D01*
Y038100D01*
X021938Y038178D01*
X021894Y038244D01*
X021859Y038267D01*
X021856Y038283D01*
X021848Y038296D01*
X021875Y038346D01*
X022000D01*
X022078Y038362D01*
X022144Y038406D01*
X022188Y038472D01*
X022204Y038550D01*
X022188Y038628D01*
X022144Y038694D01*
X022078Y038738D01*
X022000Y038754D01*
X021907D01*
X021891Y038804D01*
X021894Y038806D01*
X021938Y038872D01*
X021954Y038950D01*
Y039250D01*
X021938Y039328D01*
X021894Y039394D01*
X021828Y039438D01*
X021750Y039454D01*
D02*
G37*
G36*
X040661Y042963D02*
X040349Y042651D01*
X040037Y042339D01*
X040100Y042312D01*
X040172Y042303D01*
X040202Y042307D01*
X040247Y042262D01*
X040243Y042232D01*
X040252Y042161D01*
X040280Y042094D01*
X040324Y042036D01*
X040382Y041992D01*
X040448Y041964D01*
X040520Y041955D01*
X040592Y041964D01*
X040659Y041992D01*
X040716Y042036D01*
X040964Y042284D01*
X041008Y042341D01*
X041036Y042408D01*
X041045Y042480D01*
X041036Y042552D01*
X041008Y042618D01*
X040964Y042676D01*
X040906Y042720D01*
X040839Y042748D01*
X040768Y042757D01*
X040738Y042753D01*
X040693Y042798D01*
X040697Y042828D01*
X040688Y042900D01*
X040661Y042963D01*
D02*
G37*
G36*
X037642Y031041D02*
X036758D01*
X036785Y030977D01*
X036829Y030920D01*
X036853Y030901D01*
Y030838D01*
X036829Y030820D01*
X036785Y030762D01*
X036757Y030695D01*
X036748Y030624D01*
X036757Y030552D01*
X036785Y030485D01*
X036829Y030427D01*
X036886Y030383D01*
X036953Y030356D01*
X037025Y030346D01*
X037047D01*
Y028018D01*
X037038Y028012D01*
X036988Y027938D01*
X036971Y027850D01*
X036988Y027762D01*
X037038Y027688D01*
X037112Y027638D01*
X037200Y027621D01*
X037288Y027638D01*
X037362Y027688D01*
X037412Y027762D01*
X037429Y027850D01*
X037412Y027938D01*
X037362Y028012D01*
X037353Y028018D01*
Y030346D01*
X037375D01*
X037447Y030356D01*
X037514Y030383D01*
X037571Y030427D01*
X037615Y030485D01*
X037643Y030552D01*
X037652Y030624D01*
X037643Y030695D01*
X037615Y030762D01*
X037571Y030820D01*
X037547Y030838D01*
Y030901D01*
X037571Y030920D01*
X037615Y030977D01*
X037642Y031041D01*
D02*
G37*
G36*
X029006Y029125D02*
X028354D01*
Y028952D01*
X028527D01*
Y028770D01*
X028539Y028712D01*
X028572Y028662D01*
X028621Y028629D01*
X028680Y028617D01*
X028738Y028629D01*
X028788Y028662D01*
X028821Y028712D01*
X028833Y028770D01*
Y028952D01*
X029006D01*
Y029125D01*
D02*
G37*
G36*
X029845Y030648D02*
X029594D01*
Y030475D01*
X029845D01*
Y030648D01*
D02*
G37*
G36*
X028605D02*
X028354D01*
Y030475D01*
X028605D01*
Y030648D01*
D02*
G37*
G36*
X029006D02*
X028755D01*
Y030475D01*
X029006D01*
Y030648D01*
D02*
G37*
G36*
X029845Y029125D02*
X029594D01*
Y028952D01*
X029845D01*
Y029125D01*
D02*
G37*
G36*
X030246D02*
X029995D01*
Y028952D01*
X030246D01*
Y029125D01*
D02*
G37*
G36*
X022342Y031609D02*
X021900D01*
X021458D01*
X021485Y031546D01*
X021529Y031488D01*
X021553Y031470D01*
Y031407D01*
X021529Y031388D01*
X021485Y031331D01*
X021457Y031264D01*
X021448Y031192D01*
X021457Y031120D01*
X021485Y031053D01*
X021529Y030996D01*
X021553Y030978D01*
Y030915D01*
X021529Y030896D01*
X021485Y030839D01*
X021457Y030772D01*
X021448Y030700D01*
X021457Y030628D01*
X021485Y030561D01*
X021529Y030504D01*
X021586Y030460D01*
X021653Y030432D01*
X021725Y030423D01*
X022075D01*
X022147Y030432D01*
X022214Y030460D01*
X022271Y030504D01*
X022315Y030561D01*
X022343Y030628D01*
X022352Y030700D01*
X022343Y030772D01*
X022315Y030839D01*
X022271Y030896D01*
X022247Y030915D01*
Y030978D01*
X022271Y030996D01*
X022315Y031053D01*
X022343Y031120D01*
X022352Y031192D01*
X022343Y031264D01*
X022315Y031331D01*
X022271Y031388D01*
X022247Y031407D01*
Y031470D01*
X022271Y031488D01*
X022315Y031546D01*
X022342Y031609D01*
D02*
G37*
%LPD*%
D10*
X030604Y041800D02*
G03*
X030604Y041800I-001204J000000D01*
G01*
D11*
X022393Y011116D02*
G03*
X023331Y010775I002309J004890D01*
G01*
X038806Y010501D02*
G03*
X039116Y011201I-000195J000505D01*
G01*
X037766Y011234D02*
G03*
X037682Y011158I000816J-000984D01*
G01*
X037388Y010915D02*
G03*
X037682Y011158I-003596J004657D01*
G01*
X037096Y010741D02*
G03*
X037388Y010915I-001186J002320D01*
G01*
X036791Y010856D02*
G03*
X036926Y010491I000148J-000152D01*
G01*
X038094Y011497D02*
G03*
X037764Y011529I-000211J-000474D01*
G01*
X038475Y011250D02*
G03*
X038094Y011497I-001028J-001166D01*
G01*
X036797Y010850D02*
G03*
X037088Y011024I-001186J002320D01*
G01*
Y011024D02*
G03*
X037382Y011267I-003596J004657D01*
G01*
X037586Y011431D02*
G03*
X037382Y011267I000695J-001072D01*
G01*
X037764Y011529D02*
G03*
X037586Y011431I000203J-000580D01*
G01*
X038646Y010743D02*
G03*
X038818Y011226I-000063J000295D01*
G01*
X038091Y011781D02*
G03*
X037516Y011681I-000195J-000583D01*
G01*
D02*
G03*
X037312Y011517I000695J-001072D01*
G01*
X036449Y010952D02*
G03*
X036662Y011069I-001321J002662D01*
G01*
X037018Y011274D02*
G03*
X037312Y011517I-003596J004657D01*
G01*
X038818Y011226D02*
G03*
X038214Y011717I-001251J-000923D01*
G01*
D02*
G03*
X038091Y011781I-001780J-003244D01*
G01*
X036662Y011069D02*
G03*
X037018Y011274I-001122J002352D01*
G01*
X036572Y011299D02*
G03*
X036928Y011504I-001122J002352D01*
G01*
X038384Y011897D02*
G03*
X038017Y012073I-001780J-003244D01*
G01*
X039116Y011201D02*
G03*
X038384Y011897I-001379J-000718D01*
G01*
X037222Y011747D02*
G03*
X037508Y012013I-004532J005142D01*
G01*
X036928Y011504D02*
G03*
X037222Y011747I-003596J004657D01*
G01*
X036173Y011097D02*
G03*
X036572Y011299I-001135J002746D01*
G01*
X038019Y012079D02*
G03*
X037508Y012013I-000185J-000581D01*
G01*
X034767Y010655D02*
G03*
X036173Y011097I-000903J005332D01*
G01*
X021058Y012032D02*
G03*
X020547Y012097I-000326J-000516D01*
G01*
X021994Y011317D02*
G03*
X022393Y011116I001534J002545D01*
G01*
X021344Y011766D02*
G03*
X021638Y011523I003890J004414D01*
G01*
X021058Y012032D02*
G03*
X021344Y011766I004817J004875D01*
G01*
X020183Y011916D02*
G03*
X019450Y011220I000647J-001414D01*
G01*
X020549Y012092D02*
G03*
X020183Y011916I001414J-003420D01*
G01*
X021638Y011523D02*
G03*
X021994Y011317I001478J002146D01*
G01*
X021548Y011293D02*
G03*
X021904Y011087I001478J002146D01*
G01*
X020475Y011800D02*
G03*
X020353Y011736I001658J-003308D01*
G01*
D02*
G03*
X019748Y011245I000647J-001414D01*
G01*
X021254Y011536D02*
G03*
X021548Y011293I003890J004414D01*
G01*
X021904Y011087D02*
G03*
X022151Y010954I001534J002545D01*
G01*
X021254Y011536D02*
G03*
X021050Y011700I-000900J-000907D01*
G01*
D02*
G03*
X020475Y011800I-000380J-000482D01*
G01*
X019748Y011245D02*
G03*
X019920Y010762I000235J-000188D01*
G01*
X020980Y011450D02*
G03*
X020803Y011547I-000380J-000482D01*
G01*
X021184Y011286D02*
G03*
X020980Y011450I-000900J-000907D01*
G01*
X021184Y011286D02*
G03*
X021478Y011043I003890J004414D01*
G01*
Y011043D02*
G03*
X021770Y010869I001478J002146D01*
G01*
X020473Y011516D02*
G03*
X020091Y011269I000647J-001414D01*
G01*
X020803Y011547D02*
G03*
X020473Y011516I-000118J-000505D01*
G01*
X021640Y010510D02*
G03*
X021775Y010874I-000013J000212D01*
G01*
X022049Y010515D02*
G03*
X022000Y011030I-000328J000228D01*
G01*
X021178Y010934D02*
G03*
X021470Y010760I001478J002146D01*
G01*
X020885Y011177D02*
G03*
X021178Y010934I003890J004414D01*
G01*
X019450Y011220D02*
G03*
X019760Y010520I000505J-000195D01*
G01*
X020885Y011177D02*
G03*
X020680Y011270I-000282J-000347D01*
G01*
X020658Y010982D02*
G03*
X020290Y011040I-000457J-001697D01*
G01*
X020091Y011269D02*
G03*
X020090Y011060I000104J-000105D01*
G01*
D02*
G03*
X020290Y011040I000110J000090D01*
G01*
X037880Y011250D02*
G03*
X037766Y011234I000000J-000415D01*
G01*
X038436Y010991D02*
G03*
X038475Y011250I-000033J000137D01*
G01*
X038260Y011030D02*
G03*
X038436Y010991I000126J000151D01*
G01*
X037870Y010980D02*
G03*
X038260Y011030I000090J000844D01*
G01*
X036460Y010910D02*
G03*
X036510Y010490I000646J-000136D01*
G01*
X037096Y010741D02*
X038646Y010741D01*
X036926Y010491D02*
X038806Y010491D01*
X019760Y010510D02*
X021640Y010510D01*
X019920Y010760D02*
X021470Y010760D01*
X036580Y013670D02*
Y014170D01*
X036030Y014630D02*
X036573D01*
X033177Y031050D02*
Y033023D01*
X031523Y031050D02*
Y033023D01*
X037627Y014630D02*
X038170D01*
X037620Y013670D02*
Y014170D01*
D12*
X030393Y018526D02*
D03*
D13*
Y019510D02*
D03*
Y020494D02*
D03*
X028227Y018526D02*
D03*
Y019510D02*
D03*
Y020494D02*
D03*
D14*
X036576Y014174D02*
D03*
X037624D02*
D03*
Y014626D02*
D03*
X036576D02*
D03*
X030080Y011661D02*
D03*
X028446Y011661D02*
D03*
D15*
X028483Y029800D02*
D03*
X030117D02*
D03*
D16*
X028680Y030400D02*
D03*
X029920Y029200D02*
D03*
X028680D02*
D03*
X029920Y030400D02*
D03*
D17*
X021716Y038924D02*
D03*
X021450Y038924D02*
D03*
X021184Y038924D02*
D03*
X021716Y038176D02*
D03*
X021450Y038176D02*
D03*
X021184Y038176D02*
D03*
D18*
X021450Y038550D02*
D03*
D19*
X020250Y037750D02*
Y037950D01*
X019250Y036750D02*
X020250Y037750D01*
X019250Y034550D02*
Y036750D01*
X019550Y034350D02*
Y036650D01*
X019250Y034050D02*
X019550Y034350D01*
X019250Y032650D02*
Y034050D01*
X019750Y036850D02*
X020900D01*
X019550Y036650D02*
X019750Y036850D01*
X033253Y012432D02*
Y012447D01*
X032835Y012865D02*
X033253Y012447D01*
X018600Y033100D02*
Y033150D01*
X030600Y011200D02*
X031000Y011600D01*
X027300Y014000D02*
X027650Y014350D01*
X027300Y012000D02*
Y014000D01*
Y012000D02*
X028100Y011200D01*
X030600D01*
X023700Y014700D02*
X025000Y016000D01*
X023200Y014700D02*
X023700D01*
X036400Y016450D02*
Y017900D01*
X027650Y029050D02*
Y029550D01*
X027900Y029800D01*
X028371D01*
Y029912D01*
X016400Y034050D02*
Y034550D01*
Y034050D02*
X018400Y032050D01*
X016850Y033900D02*
X018700Y032050D01*
Y028950D02*
Y032050D01*
X016850Y033900D02*
Y034600D01*
X028680Y028770D02*
Y029200D01*
X030800Y027450D02*
X031500Y026750D01*
X021450Y037550D02*
Y037950D01*
Y037550D02*
X022100Y036900D01*
X024800D01*
X031450Y030250D01*
Y028550D02*
Y030250D01*
Y028550D02*
X033450Y026550D01*
X019000Y034300D02*
X019250Y034550D01*
X018950Y032400D02*
X019000Y032350D01*
X018950Y032400D02*
Y033500D01*
X019000Y033550D01*
Y034300D01*
X030550Y025250D02*
Y026750D01*
X031500Y026700D02*
Y026750D01*
X030250Y025271D02*
Y026600D01*
X036100Y015650D02*
Y018650D01*
X036000Y015550D02*
X036100Y015650D01*
X036000Y015500D02*
Y015550D01*
X037200Y027850D02*
Y030624D01*
X033450Y025900D02*
Y026550D01*
X031150Y025550D02*
Y026750D01*
X031500Y025550D02*
Y026700D01*
X031950Y025650D02*
Y026050D01*
X030450Y021900D02*
Y024150D01*
X031950Y025650D01*
X030250Y024300D02*
X031500Y025550D01*
X030150Y021650D02*
X030180Y021680D01*
X030050Y024450D02*
X031150Y025550D01*
X029850Y024550D02*
X030550Y025250D01*
X028500Y021950D02*
X029650Y023100D01*
Y024671D01*
X030250Y025271D01*
X029300Y021850D02*
Y022400D01*
X029850Y022950D01*
Y024550D01*
X029900Y021900D02*
Y022700D01*
X030050Y022850D01*
Y024450D01*
X030180Y021680D02*
Y022630D01*
X030250Y022700D01*
Y024300D01*
X032800Y021700D02*
X032835Y021665D01*
Y012865D02*
Y021665D01*
X022750Y023650D02*
Y029250D01*
Y023650D02*
X023900Y022500D01*
Y021150D02*
Y022500D01*
X019000Y026700D02*
Y032350D01*
Y026700D02*
X022800Y022900D01*
Y021200D02*
Y022900D01*
X018400Y027000D02*
Y032050D01*
Y027000D02*
X022500Y022900D01*
Y021700D02*
Y022900D01*
X018150Y026982D02*
X021850Y023282D01*
Y023191D02*
Y023282D01*
X018150Y026982D02*
Y028650D01*
X019250Y026750D02*
Y032650D01*
Y026750D02*
X023200Y022800D01*
Y021250D02*
Y022800D01*
D20*
X036250Y013000D02*
X038900D01*
X035750Y013500D02*
X036250Y013000D01*
X035300Y013500D02*
X035750D01*
D21*
X041648Y019252D02*
X042596Y020200D01*
X030167Y029850D02*
X030750D01*
X030117Y029800D02*
X030167Y029850D01*
X029450Y029800D02*
X030117D01*
X029300Y029650D02*
X029450Y029800D01*
X029300Y028450D02*
Y029650D01*
X028250Y027400D02*
X029300Y028450D01*
X033700Y015050D02*
X035610D01*
X036030Y014630D01*
D22*
X021150Y037950D02*
D03*
X021750D02*
D03*
X021450D02*
D03*
X021750Y039100D02*
D03*
X021450D02*
D03*
X021150D02*
D03*
D23*
X029350Y036254D02*
D03*
Y039246D02*
D03*
D24*
X035300Y013500D02*
D03*
Y012600D02*
D03*
Y011750D02*
D03*
D25*
X021800Y038550D02*
D03*
X021100D02*
D03*
D26*
X037200Y030624D02*
D03*
Y031116D02*
D03*
Y031608D02*
D03*
Y032100D02*
D03*
X021900Y032176D02*
D03*
Y031684D02*
D03*
Y031192D02*
D03*
Y030700D02*
D03*
D27*
X040644Y042356D02*
D03*
X040296Y042704D02*
D03*
X039948Y043052D02*
D03*
X039600Y043400D02*
D03*
X042344Y018556D02*
D03*
X041996Y018904D02*
D03*
X041648Y019252D02*
D03*
X041300Y019600D02*
D03*
D28*
X018948Y043362D02*
D03*
X018600Y043014D02*
D03*
X018252Y042666D02*
D03*
X017904Y042318D02*
D03*
D29*
X019200Y041600D02*
D03*
X018800Y040800D02*
D03*
X020400Y039200D02*
D03*
X018400Y041600D02*
D03*
X020900Y033950D02*
D03*
Y034550D02*
D03*
Y035150D02*
D03*
Y035750D02*
D03*
Y036300D02*
D03*
X020500D02*
D03*
X020100D02*
D03*
X022130Y010910D02*
D03*
X023330Y010770D02*
D03*
X036460Y010910D02*
D03*
X034770Y010640D02*
D03*
X020290Y011040D02*
D03*
X020680Y011270D02*
D03*
X037880Y011250D02*
D03*
X038260Y011030D02*
D03*
X033253Y012432D02*
D03*
X016100Y033400D02*
D03*
Y033005D02*
D03*
Y032550D02*
D03*
X016400Y034550D02*
D03*
X017300Y034600D02*
D03*
X017750D02*
D03*
X018300Y034100D02*
D03*
X018600Y033150D02*
D03*
X018300Y032900D02*
D03*
X042100Y017500D02*
D03*
X041800Y016900D02*
D03*
X040000Y015100D02*
D03*
X031400Y014100D02*
D03*
Y013600D02*
D03*
X031750Y022700D02*
D03*
X032200D02*
D03*
Y022300D02*
D03*
X031750D02*
D03*
X027650Y014350D02*
D03*
X026100Y014300D02*
D03*
X027600Y012600D02*
D03*
X031000Y011600D02*
D03*
X026700Y011300D02*
D03*
Y011700D02*
D03*
X027100Y011300D02*
D03*
X031500Y011000D02*
D03*
X031900D02*
D03*
X032300D02*
D03*
X028400Y012200D02*
D03*
X028000D02*
D03*
X025000Y016000D02*
D03*
X023300Y016200D02*
D03*
X023200Y014700D02*
D03*
X025400Y018300D02*
D03*
X025100Y018600D02*
D03*
X024700Y018700D02*
D03*
X024300D02*
D03*
X023900D02*
D03*
X023700Y018300D02*
D03*
Y017800D02*
D03*
Y017300D02*
D03*
X023900Y016900D02*
D03*
X024300D02*
D03*
X024700D02*
D03*
X025100Y017000D02*
D03*
X025400Y017300D02*
D03*
X025800Y021500D02*
D03*
Y022100D02*
D03*
X026300Y021000D02*
D03*
X036400Y016450D02*
D03*
Y017900D02*
D03*
X033300Y017435D02*
D03*
X014850Y027200D02*
D03*
X014450Y027650D02*
D03*
X014200Y028300D02*
D03*
X033250Y042500D02*
D03*
Y041750D02*
D03*
X035500D02*
D03*
Y042500D02*
D03*
X028500Y023400D02*
D03*
Y022600D02*
D03*
Y023000D02*
D03*
X015250Y026800D02*
D03*
X027650Y029050D02*
D03*
X026894Y030694D02*
D03*
Y031206D02*
D03*
X016950Y032250D02*
D03*
X017350D02*
D03*
X018000Y031750D02*
D03*
X017500Y036300D02*
D03*
X019250Y034550D02*
D03*
Y032650D02*
D03*
X020150Y038650D02*
D03*
X020250Y037950D02*
D03*
X020900Y036850D02*
D03*
X018700Y028950D02*
D03*
X016850Y034600D02*
D03*
X028500Y021950D02*
D03*
X032550Y030150D02*
D03*
Y029850D02*
D03*
X032150D02*
D03*
Y030150D02*
D03*
X031523Y033023D02*
D03*
X033177D02*
D03*
X032665Y031465D02*
D03*
X030750Y029850D02*
D03*
X031523Y031050D02*
D03*
X033177D02*
D03*
X028680Y028770D02*
D03*
X033050Y028550D02*
D03*
X040600Y029800D02*
D03*
X039800Y030356D02*
D03*
X039200D02*
D03*
X042268Y044332D02*
D03*
X017249Y046149D02*
D03*
X017568Y045268D02*
D03*
X018068Y044768D02*
D03*
X017850Y029856D02*
D03*
X043200Y027900D02*
D03*
X017000Y029450D02*
D03*
X041818Y043882D02*
D03*
X042949Y044751D02*
D03*
X027500Y024100D02*
D03*
X027900D02*
D03*
X032600Y014100D02*
D03*
Y013600D02*
D03*
X030800Y027450D02*
D03*
X027100Y024100D02*
D03*
X027300Y023800D02*
D03*
X027750D02*
D03*
X022750Y029250D02*
D03*
X018600Y032580D02*
D03*
X018380Y033490D02*
D03*
X018700Y033850D02*
D03*
X021580Y012570D02*
D03*
X033100Y019900D02*
D03*
X030550Y026750D02*
D03*
X031150D02*
D03*
X031500Y026700D02*
D03*
X030250Y026600D02*
D03*
X030800Y021900D02*
D03*
X036100Y018650D02*
D03*
X036000Y015550D02*
D03*
X037200Y027850D02*
D03*
X031950Y026050D02*
D03*
X033450Y025900D02*
D03*
X031150Y021900D02*
D03*
X033450Y022750D02*
D03*
Y022350D02*
D03*
X033050D02*
D03*
Y022750D02*
D03*
X029300Y021850D02*
D03*
X029900Y021900D02*
D03*
X030150Y021650D02*
D03*
X030450Y021900D02*
D03*
X032800Y021700D02*
D03*
X023900Y021150D02*
D03*
X022800Y021200D02*
D03*
X023200Y021250D02*
D03*
X022500Y021700D02*
D03*
X033100Y020450D02*
D03*
Y020950D02*
D03*
X030250Y016690D02*
D03*
X029800Y016700D02*
D03*
X021850Y023191D02*
D03*
X018150Y028650D02*
D03*
X014400Y030400D02*
D03*
X014800Y032800D02*
D03*
X015600Y034400D02*
D03*
Y036000D02*
D03*
Y042400D02*
D03*
Y044000D02*
D03*
X015200Y044800D02*
D03*
X016400Y026400D02*
D03*
X016000Y027200D02*
D03*
Y035200D02*
D03*
X016400Y036000D02*
D03*
X016000Y036800D02*
D03*
X016400Y037600D02*
D03*
Y040800D02*
D03*
X016000Y041600D02*
D03*
X016400Y042400D02*
D03*
X016000Y043200D02*
D03*
X016400Y044000D02*
D03*
X017200Y026400D02*
D03*
X016800Y027200D02*
D03*
Y035200D02*
D03*
Y036800D02*
D03*
X017200Y037600D02*
D03*
Y039200D02*
D03*
X016800Y040000D02*
D03*
X017200Y040800D02*
D03*
X016800Y041600D02*
D03*
X017200Y042400D02*
D03*
X016800Y043200D02*
D03*
Y046400D02*
D03*
X017600Y025600D02*
D03*
X018000Y026400D02*
D03*
X017600Y027200D02*
D03*
X018000Y036000D02*
D03*
X017600Y036800D02*
D03*
X018000Y037600D02*
D03*
X017600Y038400D02*
D03*
X018000Y039200D02*
D03*
X017600Y040000D02*
D03*
X018000Y040800D02*
D03*
X017600Y041600D02*
D03*
X018000Y044000D02*
D03*
Y045600D02*
D03*
X017600Y046400D02*
D03*
X018800Y024800D02*
D03*
X018400Y025600D02*
D03*
Y040000D02*
D03*
X018800Y042400D02*
D03*
Y044000D02*
D03*
Y045600D02*
D03*
X019600Y024800D02*
D03*
Y029600D02*
D03*
X019200Y040000D02*
D03*
X019600Y040800D02*
D03*
Y042400D02*
D03*
Y044000D02*
D03*
X019200Y044800D02*
D03*
X020400Y026400D02*
D03*
X020000Y027200D02*
D03*
X020400Y029600D02*
D03*
X020000Y030400D02*
D03*
Y032000D02*
D03*
X020400Y040800D02*
D03*
X020000Y041600D02*
D03*
X020400Y042400D02*
D03*
Y044000D02*
D03*
X020000Y044800D02*
D03*
X021200Y013600D02*
D03*
Y015200D02*
D03*
X020800Y016000D02*
D03*
X021200Y016800D02*
D03*
X020800Y025600D02*
D03*
X021200Y026400D02*
D03*
X020800Y027200D02*
D03*
X021200Y029600D02*
D03*
X020800Y030400D02*
D03*
Y032000D02*
D03*
X021200Y040800D02*
D03*
X020800Y041600D02*
D03*
X021200Y042400D02*
D03*
Y044000D02*
D03*
X021600Y014400D02*
D03*
X022000Y018400D02*
D03*
Y024800D02*
D03*
X021600Y025600D02*
D03*
X022000Y026400D02*
D03*
X021600Y027200D02*
D03*
X022000Y029600D02*
D03*
X021600Y035200D02*
D03*
X022000Y036000D02*
D03*
X021600Y036800D02*
D03*
Y040000D02*
D03*
X022000Y040800D02*
D03*
Y042400D02*
D03*
X022400Y012800D02*
D03*
Y014400D02*
D03*
Y024000D02*
D03*
Y025600D02*
D03*
Y027200D02*
D03*
Y030400D02*
D03*
Y035200D02*
D03*
Y038400D02*
D03*
Y040000D02*
D03*
Y041600D02*
D03*
X022800Y042400D02*
D03*
X023200Y011200D02*
D03*
X023600Y012000D02*
D03*
X023200Y012800D02*
D03*
Y024000D02*
D03*
Y025600D02*
D03*
X023600Y026400D02*
D03*
X023200Y027200D02*
D03*
Y030400D02*
D03*
X023600Y036000D02*
D03*
Y037600D02*
D03*
Y039200D02*
D03*
Y040800D02*
D03*
X023200Y041600D02*
D03*
X023600Y042400D02*
D03*
X024400Y012000D02*
D03*
Y021600D02*
D03*
X024000Y025600D02*
D03*
X024400Y026400D02*
D03*
X024000Y027200D02*
D03*
X024400Y032800D02*
D03*
X024000Y035200D02*
D03*
X024400Y036000D02*
D03*
Y037600D02*
D03*
X024000Y038400D02*
D03*
X024400Y039200D02*
D03*
X024000Y040000D02*
D03*
X024400Y040800D02*
D03*
X025200Y013600D02*
D03*
Y021600D02*
D03*
X024800Y025600D02*
D03*
X025200Y026400D02*
D03*
X024800Y027200D02*
D03*
Y032000D02*
D03*
X025200Y032800D02*
D03*
X024800Y035200D02*
D03*
X025200Y036000D02*
D03*
Y037600D02*
D03*
X024800Y038400D02*
D03*
X025200Y039200D02*
D03*
X024800Y040000D02*
D03*
X025200Y040800D02*
D03*
X025600Y011200D02*
D03*
X026000Y012000D02*
D03*
Y015200D02*
D03*
Y020000D02*
D03*
X025600Y020800D02*
D03*
Y025600D02*
D03*
X026000Y026400D02*
D03*
X025600Y027200D02*
D03*
Y032000D02*
D03*
X026000Y032800D02*
D03*
X025600Y035200D02*
D03*
Y036800D02*
D03*
X026000Y037600D02*
D03*
X025600Y038400D02*
D03*
X026000Y039200D02*
D03*
X025600Y040000D02*
D03*
X026000Y040800D02*
D03*
X026400Y030400D02*
D03*
Y032000D02*
D03*
X026800Y034400D02*
D03*
Y036000D02*
D03*
X026400Y036800D02*
D03*
X026800Y037600D02*
D03*
X026400Y038400D02*
D03*
X026800Y039200D02*
D03*
X026400Y040000D02*
D03*
X026800Y042400D02*
D03*
X027200Y030400D02*
D03*
X027600Y031200D02*
D03*
X027200Y032000D02*
D03*
Y035200D02*
D03*
X027600Y036000D02*
D03*
X027200Y036800D02*
D03*
X027600Y037600D02*
D03*
X027200Y038400D02*
D03*
X027600Y039200D02*
D03*
X027200Y040000D02*
D03*
X027600Y042400D02*
D03*
X028400Y032800D02*
D03*
Y034400D02*
D03*
X028000Y035200D02*
D03*
X028400Y036000D02*
D03*
X028000Y036800D02*
D03*
X028400Y037600D02*
D03*
X028000Y038400D02*
D03*
X028400Y039200D02*
D03*
Y040800D02*
D03*
X028000Y041600D02*
D03*
X028800Y014400D02*
D03*
Y033600D02*
D03*
X029200Y034400D02*
D03*
X028800Y035200D02*
D03*
Y036800D02*
D03*
X029200Y037600D02*
D03*
X028800Y038400D02*
D03*
X030000Y031200D02*
D03*
Y032800D02*
D03*
X029600Y033600D02*
D03*
X030000Y034400D02*
D03*
X029600Y035200D02*
D03*
Y036800D02*
D03*
X030000Y037600D02*
D03*
X029600Y038400D02*
D03*
X030000Y039200D02*
D03*
X030400Y012800D02*
D03*
X030800Y013600D02*
D03*
X030400Y014400D02*
D03*
Y027200D02*
D03*
X030800Y028000D02*
D03*
X030400Y028800D02*
D03*
Y030400D02*
D03*
Y032000D02*
D03*
X030800Y032800D02*
D03*
X030400Y033600D02*
D03*
X030800Y036000D02*
D03*
X030400Y036800D02*
D03*
X030800Y040800D02*
D03*
Y042400D02*
D03*
X031200Y012800D02*
D03*
Y033600D02*
D03*
Y035200D02*
D03*
X031600Y036000D02*
D03*
X031200Y036800D02*
D03*
X031600Y037600D02*
D03*
X031200Y038400D02*
D03*
X031600Y040800D02*
D03*
X031200Y041600D02*
D03*
X031600Y042400D02*
D03*
X032400Y024800D02*
D03*
X032000Y033600D02*
D03*
X032400Y034400D02*
D03*
X032000Y035200D02*
D03*
X032400Y039200D02*
D03*
X032000Y040000D02*
D03*
X032400Y040800D02*
D03*
X032000Y041600D02*
D03*
X032400Y042400D02*
D03*
X033200Y013600D02*
D03*
Y021600D02*
D03*
Y024800D02*
D03*
X032800Y025600D02*
D03*
X033200Y029600D02*
D03*
X032800Y033600D02*
D03*
Y035200D02*
D03*
X033200Y036000D02*
D03*
X032800Y036800D02*
D03*
X033200Y039200D02*
D03*
X032800Y040000D02*
D03*
X033200Y040800D02*
D03*
X032800Y041600D02*
D03*
X033600Y012800D02*
D03*
X034000Y023200D02*
D03*
Y028000D02*
D03*
X033600Y028800D02*
D03*
X034000Y029600D02*
D03*
X033600Y030400D02*
D03*
X034000Y031200D02*
D03*
Y032800D02*
D03*
X033600Y035200D02*
D03*
X034000Y037600D02*
D03*
X033600Y038400D02*
D03*
X034000Y039200D02*
D03*
X033600Y040000D02*
D03*
X034000Y040800D02*
D03*
X033600Y041600D02*
D03*
X034800Y023200D02*
D03*
X034400Y024000D02*
D03*
X034800Y028000D02*
D03*
X034400Y028800D02*
D03*
X034800Y029600D02*
D03*
X034400Y030400D02*
D03*
X034800Y031200D02*
D03*
X034400Y032000D02*
D03*
X034800Y032800D02*
D03*
Y037600D02*
D03*
X034400Y038400D02*
D03*
X034800Y039200D02*
D03*
X034400Y040000D02*
D03*
X034800Y040800D02*
D03*
X035600Y018400D02*
D03*
X035200Y024000D02*
D03*
Y028800D02*
D03*
X035600Y029600D02*
D03*
X035200Y030400D02*
D03*
X035600Y031200D02*
D03*
Y032800D02*
D03*
Y034400D02*
D03*
X035200Y035200D02*
D03*
X035600Y036000D02*
D03*
X035200Y036800D02*
D03*
X035600Y037600D02*
D03*
X035200Y038400D02*
D03*
X035600Y039200D02*
D03*
X035200Y040000D02*
D03*
X035600Y040800D02*
D03*
X036400Y012000D02*
D03*
Y018400D02*
D03*
Y024800D02*
D03*
Y026400D02*
D03*
Y029600D02*
D03*
X036000Y030400D02*
D03*
X036400Y031200D02*
D03*
X036000Y032000D02*
D03*
X036400Y032800D02*
D03*
X036000Y033600D02*
D03*
X036400Y034400D02*
D03*
X036000Y035200D02*
D03*
X036400Y036000D02*
D03*
X036000Y036800D02*
D03*
X036400Y037600D02*
D03*
X036000Y038400D02*
D03*
X036400Y039200D02*
D03*
X036000Y040000D02*
D03*
X036400Y040800D02*
D03*
X036000Y041600D02*
D03*
X036400Y042400D02*
D03*
X037200Y013600D02*
D03*
X036800Y017600D02*
D03*
Y024000D02*
D03*
X037200Y024800D02*
D03*
X036800Y025600D02*
D03*
X037200Y026400D02*
D03*
X036800Y027200D02*
D03*
Y033600D02*
D03*
Y035200D02*
D03*
Y036800D02*
D03*
Y038400D02*
D03*
Y040000D02*
D03*
X037200Y040800D02*
D03*
X036800Y041600D02*
D03*
X037200Y042400D02*
D03*
Y044000D02*
D03*
X038000Y015200D02*
D03*
X037600Y024000D02*
D03*
X038000Y024800D02*
D03*
X037600Y025600D02*
D03*
X038000Y026400D02*
D03*
X037600Y027200D02*
D03*
X038000Y029600D02*
D03*
Y031200D02*
D03*
Y032800D02*
D03*
X037600Y033600D02*
D03*
X038000Y034400D02*
D03*
X037600Y035200D02*
D03*
X038000Y036000D02*
D03*
X037600Y036800D02*
D03*
X038000Y037600D02*
D03*
X037600Y038400D02*
D03*
X038000Y039200D02*
D03*
X037600Y040000D02*
D03*
X038000Y040800D02*
D03*
X037600Y041600D02*
D03*
X038000Y042400D02*
D03*
Y044000D02*
D03*
X038800Y013600D02*
D03*
Y024800D02*
D03*
X038400Y025600D02*
D03*
X038800Y026400D02*
D03*
X038400Y027200D02*
D03*
X038800Y029600D02*
D03*
X038400Y030400D02*
D03*
Y032000D02*
D03*
X038800Y032800D02*
D03*
X038400Y033600D02*
D03*
X038800Y034400D02*
D03*
X038400Y035200D02*
D03*
X038800Y036000D02*
D03*
X038400Y036800D02*
D03*
X038800Y037600D02*
D03*
X038400Y038400D02*
D03*
X038800Y039200D02*
D03*
X038400Y041600D02*
D03*
X038800Y042400D02*
D03*
Y044000D02*
D03*
X038400Y044800D02*
D03*
X039200Y014400D02*
D03*
X039600Y024800D02*
D03*
X039200Y025600D02*
D03*
X039600Y026400D02*
D03*
X039200Y027200D02*
D03*
X039600Y029600D02*
D03*
Y032800D02*
D03*
X039200Y033600D02*
D03*
X039600Y034400D02*
D03*
X039200Y035200D02*
D03*
X039600Y036000D02*
D03*
X039200Y036800D02*
D03*
X039600Y037600D02*
D03*
X039200Y038400D02*
D03*
X039600Y039200D02*
D03*
X039200Y040000D02*
D03*
X039600Y040800D02*
D03*
X039200Y041600D02*
D03*
X039600Y042400D02*
D03*
Y044000D02*
D03*
X039200Y044800D02*
D03*
X039600Y045600D02*
D03*
X040000Y025600D02*
D03*
X040400Y026400D02*
D03*
X040000Y027200D02*
D03*
X040400Y032800D02*
D03*
X040000Y033600D02*
D03*
X040400Y034400D02*
D03*
X040000Y035200D02*
D03*
X040400Y036000D02*
D03*
X040000Y036800D02*
D03*
X040400Y037600D02*
D03*
X040000Y038400D02*
D03*
X040400Y039200D02*
D03*
X040000Y040000D02*
D03*
X040400Y040800D02*
D03*
X040000Y044800D02*
D03*
X040400Y045600D02*
D03*
X040800Y016000D02*
D03*
Y025600D02*
D03*
X041200Y026400D02*
D03*
X040800Y027200D02*
D03*
Y033600D02*
D03*
X041200Y034400D02*
D03*
X040800Y035200D02*
D03*
X041200Y036000D02*
D03*
X040800Y036800D02*
D03*
X041200Y037600D02*
D03*
X040800Y038400D02*
D03*
X041200Y039200D02*
D03*
X040800Y040000D02*
D03*
X041200Y040800D02*
D03*
X040800Y041600D02*
D03*
X041200Y042400D02*
D03*
X040800Y043200D02*
D03*
Y046400D02*
D03*
X042000Y026400D02*
D03*
X041600Y027200D02*
D03*
X042000Y028000D02*
D03*
X041600Y032000D02*
D03*
Y033600D02*
D03*
X042000Y034400D02*
D03*
X041600Y035200D02*
D03*
X042000Y036000D02*
D03*
X041600Y036800D02*
D03*
X042000Y037600D02*
D03*
X041600Y038400D02*
D03*
Y040000D02*
D03*
X042000Y040800D02*
D03*
X041600Y041600D02*
D03*
X042000Y042400D02*
D03*
X041600Y043200D02*
D03*
X042400Y027200D02*
D03*
X042800Y028000D02*
D03*
X042400Y033600D02*
D03*
X042800Y034400D02*
D03*
X042400Y035200D02*
D03*
X042800Y036000D02*
D03*
X042400Y036800D02*
D03*
Y041600D02*
D03*
X042800Y042400D02*
D03*
X042400Y043200D02*
D03*
X042800Y044000D02*
D03*
X043200Y033600D02*
D03*
Y035200D02*
D03*
X024050Y011600D02*
D03*
X030400Y013300D02*
D03*
Y013900D02*
D03*
X030050Y014700D02*
D03*
X028450Y013300D02*
D03*
Y013900D02*
D03*
Y012750D02*
D03*
X034500Y017450D02*
D03*
D30*
X029400Y041800D02*
D03*
D31*
X036030Y014630D02*
D03*
X036580Y013670D02*
D03*
X037620D02*
D03*
X038170Y014630D02*
D03*
X033700Y015050D02*
D03*
D32*
X013800Y031700D02*
D03*
X015450Y046200D02*
D03*
X042700Y047000D02*
D03*
X044450Y032850D02*
D03*
M02*
