  0
SECTION
  2
HEADER
  9
$ACADVER
  1
AC1014
  9
$HANDSEED
  5
FFFF
  9
$MEASUREMENT
 70
     1
  0
ENDSEC
  0
SECTION
  2
TABLES
  0
TABLE
  2
VPORT
  5
8
330
0
100
AcDbSymbolTable
 70
     4
  0
VPORT
  5
2E
330
8
100
AcDbSymbolTableRecord
100
AcDbViewportTableRecord
  2
*ACTIVE
 70
     0
 10
0.0
 20
0.0
 11
1.0
 21
1.0
 12
210.0
 22
148.5
 13
0.0
 23
0.0
 14
10.0
 24
10.0
 15
10.0
 25
10.0
 16
0.0
 26
0.0
 36
1.0
 17
0.0
 27
0.0
 37
0.0
 40
341.0
 41
1.24
 42
50.0
 43
0.0
 44
0.0
 50
0.0
 51
0.0
 71
     0
 72
   100
 73
     1
 74
     3
 75
     0
 76
     0
 77
     0
 78
     0
  0
ENDTAB
  0
TABLE
  2
LTYPE
  5
5
330
0
100
AcDbSymbolTable
 70
     1
  0
LTYPE
  5
14
330
5
100
AcDbSymbolTableRecord
100
AcDbLinetypeTableRecord
  2
BYBLOCK
 70
     0
  3

 72
    65
 73
     0
 40
0.0
  0
LTYPE
  5
15
330
5
100
AcDbSymbolTableRecord
100
AcDbLinetypeTableRecord
  2
BYLAYER
 70
     0
  3

 72
    65
 73
     0
 40
0.0
  0
LTYPE
  5
16
330
5
100
AcDbSymbolTableRecord
100
AcDbLinetypeTableRecord
  2
CONTINUOUS
 70
     0
  3
Solid line
 72
    65
 73
     0
 40
0.0
  0
ENDTAB
  0
TABLE
  2
LAYER
  5
2
100
AcDbSymbolTable
 70
4
  0
LAYER
  5
50
100
AcDbSymbolTableRecord
100
AcDbLayerTableRecord
  2
0
 70
0
  6
CONTINUOUS
  0
LAYER
  5
51
100
AcDbSymbolTableRecord
100
AcDbLayerTableRecord
  2
Layer_1
 70
0
  6
CONTINUOUS
  0
LAYER
  5
52
100
AcDbSymbolTableRecord
100
AcDbLayerTableRecord
  2
Layer_3_board_outline
 70
0
  6
CONTINUOUS
  0
LAYER
  5
53
100
AcDbSymbolTableRecord
100
AcDbLayerTableRecord
  2
Layer_3_silkscreen
 70
0
  6
CONTINUOUS
  0
ENDTAB
  0
TABLE
  2
STYLE
  5
3
330
0
100
AcDbSymbolTable
 70
     1
  0
STYLE
  5
11
330
3
100
AcDbSymbolTableRecord
100
AcDbTextStyleTableRecord
  2
STANDARD
 70
     0
 40
0.0
 41
1.0
 50
0.0
 71
     0
 42
2.5
  3
txt
  4

  0
ENDTAB
  0
TABLE
  2
VIEW
  5
6
330
0
100
AcDbSymbolTable
 70
     0
  0
ENDTAB
  0
TABLE
  2
UCS
  5
7
330
0
100
AcDbSymbolTable
 70
     0
  0
ENDTAB
  0
TABLE
  2
APPID
  5
9
330
0
100
AcDbSymbolTable
 70
     2
  0
APPID
  5
12
330
9
100
AcDbSymbolTableRecord
100
AcDbRegAppTableRecord
  2
ACAD
 70
     0
  0
ENDTAB
  0
TABLE
  2
DIMSTYLE
  5
A
330
0
100
AcDbSymbolTable
 70
     1
  0
DIMSTYLE
105
27
330
A
100
AcDbSymbolTableRecord
100
AcDbDimStyleTableRecord
  2
ISO-25
 70
     0
  3

  4

  5

  6

  7

 40
1.0
 41
2.5
 42
0.625
 43
3.75
 44
1.25
 45
0.0
 46
0.0
 47
0.0
 48
0.0
140
2.5
141
2.5
142
0.0
143
0.03937007874016
144
1.0
145
0.0
146
1.0
147
0.625
 71
     0
 72
     0
 73
     0
 74
     0
 75
     0
 76
     0
 77
     1
 78
     8
170
     0
171
     3
172
     1
173
     0
174
     0
175
     0
176
     0
177
     0
178
     0
270
     2
271
     2
272
     2
273
     2
274
     3
340
11
275
     0
280
     0
281
     0
282
     0
283
     0
284
     8
285
     0
286
     0
287
     3
288
     0
  0
ENDTAB
  0
TABLE
  2
BLOCK_RECORD
  5
1
330
0
100
AcDbSymbolTable
 70
     1
  0
BLOCK_RECORD
  5
1F
330
1
100
AcDbSymbolTableRecord
100
AcDbBlockTableRecord
  2
*MODEL_SPACE
  0
BLOCK_RECORD
  5
1B
330
1
100
AcDbSymbolTableRecord
100
AcDbBlockTableRecord
  2
*PAPER_SPACE
  0
ENDTAB
  0
ENDSEC
  0
SECTION
  2
BLOCKS
  0
BLOCK
  5
20
330
1F
100
AcDbEntity
  8
0
100
AcDbBlockBegin
  2
*MODEL_SPACE
 70
     0
 10
0.0
 20
0.0
 30
0.0
  3
*MODEL_SPACE
  1

  0
ENDBLK
  5
21
330
1F
100
AcDbEntity
  8
0
100
AcDbBlockEnd
  0
BLOCK
  5
1C
330
1B
100
AcDbEntity
 67
     1
  8
0
100
AcDbBlockBegin
  2
*PAPER_SPACE
  1

  0
ENDBLK
  5
1D
330
1B
100
AcDbEntity
 67
     1
  8
0
100
AcDbBlockEnd
  0
ENDSEC
  0
SECTION
  2
ENTITIES
  0
SPLINE
  5
100
100
AcDbEntity
  8
Layer_3_board_outline
 62
1
100
AcDbSpline
 70
8
 71
3
 72
8
 73
4
 74
0
 40
0
 40
0
 40
0
 40
0
 40
1
 40
1
 40
1
 40
1
 10
22.554340
 20
2.091498
 30
0.0
 10
22.874318
 20
3.763877
 30
0.0
 10
23.735243
 20
4.966904
 30
0.0
 10
25.053552
 20
5.583813
 30
0.0
  0
SPLINE
  5
101
100
AcDbEntity
  8
Layer_3_board_outline
 62
1
100
AcDbSpline
 70
8
 71
3
 72
8
 73
4
 74
0
 40
0
 40
0
 40
0
 40
0
 40
1
 40
1
 40
1
 40
1
 10
25.053552
 20
5.583813
 30
0.0
 10
25.424905
 20
5.757594
 30
0.0
 10
25.728740
 20
5.956378
 30
0.0
 10
25.728740
 20
6.025564
 30
0.0
  0
SPLINE
  5
102
100
AcDbEntity
  8
Layer_3_board_outline
 62
1
100
AcDbSpline
 70
8
 71
3
 72
8
 73
4
 74
0
 40
0
 40
0
 40
0
 40
0
 40
1
 40
1
 40
1
 40
1
 10
25.728740
 20
6.025564
 30
0.0
 10
25.728740
 20
6.094750
 30
0.0
 10
25.563219
 20
6.640358
 30
0.0
 10
25.360914
 20
7.238029
 30
0.0
  0
SPLINE
  5
103
100
AcDbEntity
  8
Layer_3_board_outline
 62
1
100
AcDbSpline
 70
8
 71
3
 72
8
 73
4
 74
0
 40
0
 40
0
 40
0
 40
0
 40
1
 40
1
 40
1
 40
1
 10
25.360914
 20
7.238029
 30
0.0
 10
25.158610
 20
7.835701
 30
0.0
 10
24.856413
 20
8.839621
 30
0.0
 10
24.689368
 20
9.468960
 30
0.0
  0
SPLINE
  5
104
100
AcDbEntity
  8
Layer_3_board_outline
 62
1
100
AcDbSpline
 70
8
 71
3
 72
8
 73
4
 74
0
 40
0
 40
0
 40
0
 40
0
 40
1
 40
1
 40
1
 40
1
 10
24.689368
 20
9.468960
 30
0.0
 10
22.990708
 20
15.868606
 30
0.0
 10
23.662401
 20
20.172796
 30
0.0
 10
26.679496
 20
22.221666
 30
0.0
  0
SPLINE
  5
105
100
AcDbEntity
  8
Layer_3_board_outline
 62
1
100
AcDbSpline
 70
8
 71
3
 72
8
 73
4
 74
0
 40
0
 40
0
 40
0
 40
0
 40
1
 40
1
 40
1
 40
1
 10
26.679496
 20
22.221666
 30
0.0
 10
27.343971
 20
22.672904
 30
0.0
 10
27.270864
 20
22.510347
 30
0.0
 10
27.751072
 20
24.604318
 30
0.0
  0
SPLINE
  5
106
100
AcDbEntity
  8
Layer_3_board_outline
 62
1
100
AcDbSpline
 70
8
 71
3
 72
8
 73
4
 74
0
 40
0
 40
0
 40
0
 40
0
 40
1
 40
1
 40
1
 40
1
 10
27.751072
 20
24.604318
 30
0.0
 10
28.084222
 20
26.057038
 30
0.0
 10
28.392222
 20
27.156319
 30
0.0
 10
29.073625
 20
29.324632
 30
0.0
  0
SPLINE
  5
107
100
AcDbEntity
  8
Layer_3_board_outline
 62
1
100
AcDbSpline
 70
8
 71
3
 72
8
 73
4
 74
0
 40
0
 40
0
 40
0
 40
0
 40
1
 40
1
 40
1
 40
1
 10
29.073625
 20
29.324632
 30
0.0
 10
29.359095
 20
30.233034
 30
0.0
 10
29.554162
 20
31.010322
 30
0.0
 10
29.507110
 20
31.051942
 30
0.0
  0
SPLINE
  5
108
100
AcDbEntity
  8
Layer_3_board_outline
 62
1
100
AcDbSpline
 70
8
 71
3
 72
8
 73
4
 74
0
 40
0
 40
0
 40
0
 40
0
 40
1
 40
1
 40
1
 40
1
 10
29.507110
 20
31.051942
 30
0.0
 10
29.460057
 20
31.093562
 30
0.0
 10
28.719404
 20
31.350065
 30
0.0
 10
27.861213
 20
31.621954
 30
0.0
  0
SPLINE
  5
109
100
AcDbEntity
  8
Layer_3_board_outline
 62
1
100
AcDbSpline
 70
8
 71
3
 72
8
 73
4
 74
0
 40
0
 40
0
 40
0
 40
0
 40
1
 40
1
 40
1
 40
1
 10
27.861213
 20
31.621954
 30
0.0
 10
23.642576
 20
32.958473
 30
0.0
 10
19.354445
 20
35.039594
 30
0.0
 10
16.262640
 20
37.250989
 30
0.0
  0
SPLINE
  5
10a
100
AcDbEntity
  8
Layer_3_board_outline
 62
1
100
AcDbSpline
 70
8
 71
3
 72
8
 73
4
 74
0
 40
0
 40
0
 40
0
 40
0
 40
1
 40
1
 40
1
 40
1
 10
16.262640
 20
37.250989
 30
0.0
 10
12.098574
 20
40.229312
 30
0.0
 10
8.784186
 20
43.887051
 30
0.0
 10
7.033061
 20
47.436693
 30
0.0
  0
SPLINE
  5
10b
100
AcDbEntity
  8
Layer_3_board_outline
 62
1
100
AcDbSpline
 70
8
 71
3
 72
8
 73
4
 74
0
 40
0
 40
0
 40
0
 40
0
 40
1
 40
1
 40
1
 40
1
 10
7.033061
 20
47.436693
 30
0.0
 10
6.489107
 20
48.539324
 30
0.0
 10
6.470578
 20
48.604702
 30
0.0
 10
6.531713
 20
49.205775
 30
0.0
  0
SPLINE
  5
10c
100
AcDbEntity
  8
Layer_3_board_outline
 62
1
100
AcDbSpline
 70
8
 71
3
 72
8
 73
4
 74
0
 40
0
 40
0
 40
0
 40
0
 40
1
 40
1
 40
1
 40
1
 10
6.531713
 20
49.205775
 30
0.0
 10
7.175858
 20
55.539092
 30
0.0
 10
8.674164
 20
61.631435
 30
0.0
 10
10.905279
 20
66.989376
 30
0.0
  0
SPLINE
  5
10d
100
AcDbEntity
  8
Layer_3_board_outline
 62
1
100
AcDbSpline
 70
8
 71
3
 72
8
 73
4
 74
0
 40
0
 40
0
 40
0
 40
0
 40
1
 40
1
 40
1
 40
1
 10
11.468519
 20
69.345144
 30
0.0
 10
10.762407
 20
74.922248
 30
0.0
 10
10.351180
 20
78.936711
 30
0.0
 10
9.913897
 20
84.521611
 30
0.0
  0
SPLINE
  5
10e
100
AcDbEntity
  8
Layer_3_board_outline
 62
1
100
AcDbSpline
 70
8
 71
3
 72
8
 73
4
 74
0
 40
0
 40
0
 40
0
 40
0
 40
1
 40
1
 40
1
 40
1
 10
9.913897
 20
84.521611
 30
0.0
 10
9.734929
 20
86.807357
 30
0.0
 10
9.666512
 20
92.814899
 30
0.0
 10
9.801352
 20
94.403804
 30
0.0
  0
SPLINE
  5
10f
100
AcDbEntity
  8
Layer_3_board_outline
 62
1
100
AcDbSpline
 70
8
 71
3
 72
8
 73
4
 74
0
 40
0
 40
0
 40
0
 40
0
 40
1
 40
1
 40
1
 40
1
 10
9.801352
 20
94.403804
 30
0.0
 10
10.029920
 20
97.097144
 30
0.0
 10
10.512328
 20
98.664406
 30
0.0
 10
11.269532
 20
99.173676
 30
0.0
  0
SPLINE
  5
110
100
AcDbEntity
  8
Layer_3_board_outline
 62
1
100
AcDbSpline
 70
8
 71
3
 72
8
 73
4
 74
0
 40
0
 40
0
 40
0
 40
0
 40
1
 40
1
 40
1
 40
1
 10
11.269532
 20
99.173676
 30
0.0
 10
11.601946
 20
99.397247
 30
0.0
 10
11.707074
 20
99.413118
 30
0.0
 10
12.478233
 20
99.356153
 30
0.0
  0
SPLINE
  5
111
100
AcDbEntity
  8
Layer_3_board_outline
 62
1
100
AcDbSpline
 70
8
 71
3
 72
8
 73
4
 74
0
 40
0
 40
0
 40
0
 40
0
 40
1
 40
1
 40
1
 40
1
 10
12.478233
 20
99.356153
 30
0.0
 10
17.256815
 20
99.003159
 30
0.0
 10
24.956174
 20
95.335275
 30
0.0
 10
35.309580
 20
88.479570
 30
0.0
  0
LWPOLYLINE
  5
112
100
AcDbEntity
  8
Layer_3_board_outline
 62
1
100
AcDbPolyline
 90
3
 70
1
 10
10.905279
 20
66.989376
 30
0.0
 10
11.565916
 20
68.575870
 30
0.0
 10
11.468519
 20
69.345144
 30
0.0
  0
SPLINE
  5
113
100
AcDbEntity
  8
Layer_3_board_outline
 62
1
100
AcDbSpline
 70
8
 71
3
 72
8
 73
4
 74
0
 40
0
 40
0
 40
0
 40
0
 40
1
 40
1
 40
1
 40
1
 10
62.780049
 20
88.611344
 30
0.0
 10
67.619549
 20
91.790215
 30
0.0
 10
70.977768
 20
93.778896
 30
0.0
 10
74.671600
 20
95.653322
 30
0.0
  0
SPLINE
  5
114
100
AcDbEntity
  8
Layer_3_board_outline
 62
1
100
AcDbSpline
 70
8
 71
3
 72
8
 73
4
 74
0
 40
0
 40
0
 40
0
 40
0
 40
1
 40
1
 40
1
 40
1
 10
74.671600
 20
95.653322
 30
0.0
 10
79.312960
 20
98.008572
 30
0.0
 10
83.102275
 20
99.286048
 30
0.0
 10
85.574518
 20
99.328981
 30
0.0
  0
LWPOLYLINE
  5
115
100
AcDbEntity
  8
Layer_3_board_outline
 62
1
100
AcDbPolyline
 90
5
 70
1
 10
35.309580
 20
88.479570
 30
0.0
 10
37.516572
 20
87.018165
 30
0.0
 10
48.935587
 20
87.018165
 30
0.0
 10
60.354599
 20
87.018165
 30
0.0
 10
62.780049
 20
88.611344
 30
0.0
  0
SPLINE
  5
116
100
AcDbEntity
  8
Layer_3_board_outline
 62
1
100
AcDbSpline
 70
8
 71
3
 72
8
 73
4
 74
0
 40
0
 40
0
 40
0
 40
0
 40
1
 40
1
 40
1
 40
1
 10
86.894020
 20
98.914114
 30
0.0
 10
87.939337
 20
97.796151
 30
0.0
 10
88.385000
 20
94.009848
 30
0.0
 10
88.151152
 20
88.233632
 30
0.0
  0
SPLINE
  5
117
100
AcDbEntity
  8
Layer_3_board_outline
 62
1
100
AcDbSpline
 70
8
 71
3
 72
8
 73
4
 74
0
 40
0
 40
0
 40
0
 40
0
 40
1
 40
1
 40
1
 40
1
 10
88.151152
 20
88.233632
 30
0.0
 10
87.944115
 20
83.119660
 30
0.0
 10
87.363992
 20
76.622167
 30
0.0
 10
86.579832
 20
70.634530
 30
0.0
  0
SPLINE
  5
118
100
AcDbEntity
  8
Layer_3_board_outline
 62
1
100
AcDbSpline
 70
8
 71
3
 72
8
 73
4
 74
0
 40
0
 40
0
 40
0
 40
0
 40
1
 40
1
 40
1
 40
1
 10
86.579832
 20
70.634530
 30
0.0
 10
86.467438
 20
69.776340
 30
0.0
 10
86.375194
 20
68.923729
 30
0.0
 10
86.374841
 20
68.739839
 30
0.0
  0
SPLINE
  5
119
100
AcDbEntity
  8
Layer_3_board_outline
 62
1
100
AcDbSpline
 70
8
 71
3
 72
8
 73
4
 74
0
 40
0
 40
0
 40
0
 40
0
 40
1
 40
1
 40
1
 40
1
 10
86.374841
 20
68.739839
 30
0.0
 10
86.374528
 20
68.555950
 30
0.0
 10
86.681254
 20
67.668103
 30
0.0
 10
87.056549
 20
66.766847
 30
0.0
  0
SPLINE
  5
11a
100
AcDbEntity
  8
Layer_3_board_outline
 62
1
100
AcDbSpline
 70
8
 71
3
 72
8
 73
4
 74
0
 40
0
 40
0
 40
0
 40
0
 40
1
 40
1
 40
1
 40
1
 10
87.056549
 20
66.766847
 30
0.0
 10
89.065720
 20
61.941892
 30
0.0
 10
90.602016
 20
55.875010
 30
0.0
 10
91.219154
 20
50.328572
 30
0.0
  0
LWPOLYLINE
  5
11b
100
AcDbEntity
  8
Layer_3_board_outline
 62
1
100
AcDbPolyline
 90
3
 70
1
 10
85.574518
 20
99.328981
 30
0.0
 10
86.491225
 20
99.344900
 30
0.0
 10
86.894020
 20
98.914114
 30
0.0
  0
SPLINE
  5
11c
100
AcDbEntity
  8
Layer_3_board_outline
 62
1
100
AcDbSpline
 70
8
 71
3
 72
8
 73
4
 74
0
 40
0
 40
0
 40
0
 40
0
 40
1
 40
1
 40
1
 40
1
 10
91.158584
 20
48.163894
 30
0.0
 10
91.028469
 20
47.843309
 30
0.0
 10
90.597775
 20
47.033784
 30
0.0
 10
90.201485
 20
46.364946
 30
0.0
  0
SPLINE
  5
11d
100
AcDbEntity
  8
Layer_3_board_outline
 62
1
100
AcDbSpline
 70
8
 71
3
 72
8
 73
4
 74
0
 40
0
 40
0
 40
0
 40
0
 40
1
 40
1
 40
1
 40
1
 10
90.201485
 20
46.364946
 30
0.0
 10
88.361154
 20
43.258932
 30
0.0
 10
85.363691
 20
40.037497
 30
0.0
 10
82.139624
 20
37.700695
 30
0.0
  0
SPLINE
  5
11e
100
AcDbEntity
  8
Layer_3_board_outline
 62
1
100
AcDbSpline
 70
8
 71
3
 72
8
 73
4
 74
0
 40
0
 40
0
 40
0
 40
0
 40
1
 40
1
 40
1
 40
1
 10
82.139624
 20
37.700695
 30
0.0
 10
81.555597
 20
37.277390
 30
0.0
 10
80.788822
 20
36.720405
 30
0.0
 10
80.435681
 20
36.462948
 30
0.0
  0
SPLINE
  5
11f
100
AcDbEntity
  8
Layer_3_board_outline
 62
1
100
AcDbSpline
 70
8
 71
3
 72
8
 73
4
 74
0
 40
0
 40
0
 40
0
 40
0
 40
1
 40
1
 40
1
 40
1
 10
80.435681
 20
36.462948
 30
0.0
 10
79.381071
 20
35.694086
 30
0.0
 10
78.286838
 20
35.037787
 30
0.0
 10
76.864555
 20
34.321054
 30
0.0
  0
SPLINE
  5
120
100
AcDbEntity
  8
Layer_3_board_outline
 62
1
100
AcDbSpline
 70
8
 71
3
 72
8
 73
4
 74
0
 40
0
 40
0
 40
0
 40
0
 40
1
 40
1
 40
1
 40
1
 10
76.864555
 20
34.321054
 30
0.0
 10
75.175900
 20
33.426657
 30
0.0
 10
73.439741
 20
32.681931
 30
0.0
 10
71.652174
 20
32.055407
 30
0.0
  0
LWPOLYLINE
  5
121
100
AcDbEntity
  8
Layer_3_board_outline
 62
1
100
AcDbPolyline
 90
3
 70
1
 10
91.219154
 20
50.328572
 30
0.0
 10
91.395157
 20
48.746766
 30
0.0
 10
91.158584
 20
48.163894
 30
0.0
  0
SPLINE
  5
122
100
AcDbEntity
  8
Layer_3_board_outline
 62
1
100
AcDbSpline
 70
8
 71
3
 72
8
 73
4
 74
0
 40
0
 40
0
 40
0
 40
0
 40
1
 40
1
 40
1
 40
1
 10
70.405260
 20
31.663220
 30
0.0
 10
69.719460
 20
31.447517
 30
0.0
 10
68.924297
 20
31.233847
 30
0.0
 10
68.638233
 20
31.188396
 30
0.0
  0
SPLINE
  5
123
100
AcDbEntity
  8
Layer_3_board_outline
 62
1
100
AcDbSpline
 70
8
 71
3
 72
8
 73
4
 74
0
 40
0
 40
0
 40
0
 40
0
 40
1
 40
1
 40
1
 40
1
 10
68.638233
 20
31.188396
 30
0.0
 10
67.930353
 20
31.066509
 30
0.0
 10
68.559582
 20
29.719320
 30
0.0
 10
68.939994
 20
28.679023
 30
0.0
  0
SPLINE
  5
124
100
AcDbEntity
  8
Layer_3_board_outline
 62
1
100
AcDbSpline
 70
8
 71
3
 72
8
 73
4
 74
0
 40
0
 40
0
 40
0
 40
0
 40
1
 40
1
 40
1
 40
1
 10
68.939994
 20
28.679023
 30
0.0
 10
68.968323
 20
28.455474
 30
0.0
 10
69.224795
 20
27.818256
 30
0.0
 10
69.364242
 20
27.360097
 30
0.0
  0
SPLINE
  5
125
100
AcDbEntity
  8
Layer_3_board_outline
 62
1
100
AcDbSpline
 70
8
 71
3
 72
8
 73
4
 74
0
 40
0
 40
0
 40
0
 40
0
 40
1
 40
1
 40
1
 40
1
 10
69.364242
 20
27.360097
 30
0.0
 10
69.503688
 20
26.901938
 30
0.0
 10
69.809703
 20
25.731678
 30
0.0
 10
70.044272
 20
24.759520
 30
0.0
  0
SPLINE
  5
126
100
AcDbEntity
  8
Layer_3_board_outline
 62
1
100
AcDbSpline
 70
8
 71
3
 72
8
 73
4
 74
0
 40
0
 40
0
 40
0
 40
0
 40
1
 40
1
 40
1
 40
1
 10
70.044272
 20
24.759520
 30
0.0
 10
70.278840
 20
23.787362
 30
0.0
 10
70.495628
 20
22.906783
 30
0.0
 10
70.526020
 20
22.802673
 30
0.0
  0
SPLINE
  5
127
100
AcDbEntity
  8
Layer_3_board_outline
 62
1
100
AcDbSpline
 70
8
 71
3
 72
8
 73
4
 74
0
 40
0
 40
0
 40
0
 40
0
 40
1
 40
1
 40
1
 40
1
 10
70.526020
 20
22.802673
 30
0.0
 10
70.556395
 20
22.698563
 30
0.0
 10
70.822846
 20
22.457039
 30
0.0
 10
71.118092
 20
22.265952
 30
0.0
  0
SPLINE
  5
128
100
AcDbEntity
  8
Layer_3_board_outline
 62
1
100
AcDbSpline
 70
8
 71
3
 72
8
 73
4
 74
0
 40
0
 40
0
 40
0
 40
0
 40
1
 40
1
 40
1
 40
1
 10
71.118092
 20
22.265952
 30
0.0
 10
72.674416
 20
21.258676
 30
0.0
 10
73.587332
 20
19.701381
 30
0.0
 10
73.953768
 20
17.428726
 30
0.0
  0
SPLINE
  5
129
100
AcDbEntity
  8
Layer_3_board_outline
 62
1
100
AcDbSpline
 70
8
 71
3
 72
8
 73
4
 74
0
 40
0
 40
0
 40
0
 40
0
 40
1
 40
1
 40
1
 40
1
 10
73.953768
 20
17.428726
 30
0.0
 10
74.041223
 20
16.886305
 30
0.0
 10
74.132569
 20
16.422716
 30
0.0
 10
74.156758
 20
16.398530
 30
0.0
  0
SPLINE
  5
12a
100
AcDbEntity
  8
Layer_3_board_outline
 62
1
100
AcDbSpline
 70
8
 71
3
 72
8
 73
4
 74
0
 40
0
 40
0
 40
0
 40
0
 40
1
 40
1
 40
1
 40
1
 10
74.156758
 20
16.398530
 30
0.0
 10
74.315567
 20
16.239722
 30
0.0
 10
75.062400
 20
19.008573
 30
0.0
 10
75.233740
 20
20.391383
 30
0.0
  0
SPLINE
  5
12b
100
AcDbEntity
  8
Layer_3_board_outline
 62
1
100
AcDbSpline
 70
8
 71
3
 72
8
 73
4
 74
0
 40
0
 40
0
 40
0
 40
0
 40
1
 40
1
 40
1
 40
1
 10
75.233740
 20
20.391383
 30
0.0
 10
75.297538
 20
20.906297
 30
0.0
 10
75.391425
 20
21.985863
 30
0.0
 10
75.442376
 20
22.790415
 30
0.0
  0
SPLINE
  5
12c
100
AcDbEntity
  8
Layer_3_board_outline
 62
1
100
AcDbSpline
 70
8
 71
3
 72
8
 73
4
 74
0
 40
0
 40
0
 40
0
 40
0
 40
1
 40
1
 40
1
 40
1
 10
75.442376
 20
22.790415
 30
0.0
 10
75.512283
 20
23.894367
 30
0.0
 10
75.597485
 20
24.432891
 30
0.0
 10
75.789671
 20
24.985517
 30
0.0
  0
SPLINE
  5
12d
100
AcDbEntity
  8
Layer_3_board_outline
 62
1
100
AcDbSpline
 70
8
 71
3
 72
8
 73
4
 74
0
 40
0
 40
0
 40
0
 40
0
 40
1
 40
1
 40
1
 40
1
 10
75.789671
 20
24.985517
 30
0.0
 10
76.322241
 20
26.516928
 30
0.0
 10
77.268331
 20
27.537619
 30
0.0
 10
78.863608
 20
28.301842
 30
0.0
  0
SPLINE
  5
12e
100
AcDbEntity
  8
Layer_3_board_outline
 62
1
100
AcDbSpline
 70
8
 71
3
 72
8
 73
4
 74
0
 40
0
 40
0
 40
0
 40
0
 40
1
 40
1
 40
1
 40
1
 10
78.863608
 20
28.301842
 30
0.0
 10
79.784941
 20
28.743209
 30
0.0
 10
79.874955
 20
28.765241
 30
0.0
 10
80.756922
 20
28.765241
 30
0.0
  0
SPLINE
  5
12f
100
AcDbEntity
  8
Layer_3_board_outline
 62
1
100
AcDbSpline
 70
8
 71
3
 72
8
 73
4
 74
0
 40
0
 40
0
 40
0
 40
0
 40
1
 40
1
 40
1
 40
1
 10
80.756922
 20
28.765241
 30
0.0
 10
81.642439
 20
28.765241
 30
0.0
 10
81.726732
 20
28.744367
 30
0.0
 10
82.685458
 20
28.287234
 30
0.0
  0
SPLINE
  5
130
100
AcDbEntity
  8
Layer_3_board_outline
 62
1
100
AcDbSpline
 70
8
 71
3
 72
8
 73
4
 74
0
 40
0
 40
0
 40
0
 40
0
 40
1
 40
1
 40
1
 40
1
 10
82.685458
 20
28.287234
 30
0.0
 10
84.018375
 20
27.651705
 30
0.0
 10
84.844356
 20
26.859281
 30
0.0
 10
85.424631
 20
25.659348
 30
0.0
  0
SPLINE
  5
131
100
AcDbEntity
  8
Layer_3_board_outline
 62
1
100
AcDbSpline
 70
8
 71
3
 72
8
 73
4
 74
0
 40
0
 40
0
 40
0
 40
0
 40
1
 40
1
 40
1
 40
1
 10
85.424631
 20
25.659348
 30
0.0
 10
85.954788
 20
24.563048
 30
0.0
 10
86.108326
 20
23.661539
 30
0.0
 10
86.030434
 20
22.102341
 30
0.0
  0
SPLINE
  5
132
100
AcDbEntity
  8
Layer_3_board_outline
 62
1
100
AcDbSpline
 70
8
 71
3
 72
8
 73
4
 74
0
 40
0
 40
0
 40
0
 40
0
 40
1
 40
1
 40
1
 40
1
 10
86.030434
 20
22.102341
 30
0.0
 10
85.853147
 20
18.553438
 30
0.0
 10
84.473302
 20
15.102840
 30
0.0
 10
82.019869
 20
12.073053
 30
0.0
  0
SPLINE
  5
133
100
AcDbEntity
  8
Layer_3_board_outline
 62
1
100
AcDbSpline
 70
8
 71
3
 72
8
 73
4
 74
0
 40
0
 40
0
 40
0
 40
0
 40
1
 40
1
 40
1
 40
1
 10
82.019869
 20
12.073053
 30
0.0
 10
81.160341
 20
11.011609
 30
0.0
 10
79.567310
 20
9.455985
 30
0.0
 10
78.288645
 20
8.429451
 30
0.0
  0
SPLINE
  5
134
100
AcDbEntity
  8
Layer_3_board_outline
 62
1
100
AcDbSpline
 70
8
 71
3
 72
8
 73
4
 74
0
 40
0
 40
0
 40
0
 40
0
 40
1
 40
1
 40
1
 40
1
 10
78.288645
 20
8.429451
 30
0.0
 10
77.210664
 20
7.564027
 30
0.0
 10
75.046020
 20
6.075298
 30
0.0
 10
74.125451
 20
5.566219
 30
0.0
  0
SPLINE
  5
135
100
AcDbEntity
  8
Layer_3_board_outline
 62
1
100
AcDbSpline
 70
8
 71
3
 72
8
 73
4
 74
0
 40
0
 40
0
 40
0
 40
0
 40
1
 40
1
 40
1
 40
1
 10
74.125451
 20
5.566219
 30
0.0
 10
73.882297
 20
5.431755
 30
0.0
 10
73.683353
 20
5.277080
 30
0.0
 10
73.683353
 20
5.222499
 30
0.0
  0
SPLINE
  5
136
100
AcDbEntity
  8
Layer_3_board_outline
 62
1
100
AcDbSpline
 70
8
 71
3
 72
8
 73
4
 74
0
 40
0
 40
0
 40
0
 40
0
 40
1
 40
1
 40
1
 40
1
 10
73.683353
 20
5.222499
 30
0.0
 10
73.683353
 20
5.167915
 30
0.0
 10
73.867938
 20
4.923006
 30
0.0
 10
74.093540
 20
4.678254
 30
0.0
  0
SPLINE
  5
137
100
AcDbEntity
  8
Layer_3_board_outline
 62
1
100
AcDbSpline
 70
8
 71
3
 72
8
 73
4
 74
0
 40
0
 40
0
 40
0
 40
0
 40
1
 40
1
 40
1
 40
1
 10
74.093540
 20
4.678254
 30
0.0
 10
74.319145
 20
4.433505
 30
0.0
 10
74.643985
 20
3.955408
 30
0.0
 10
74.815408
 20
3.615821
 30
0.0
  0
SPLINE
  5
138
100
AcDbEntity
  8
Layer_3_board_outline
 62
1
100
AcDbSpline
 70
8
 71
3
 72
8
 73
4
 74
0
 40
0
 40
0
 40
0
 40
0
 40
1
 40
1
 40
1
 40
1
 10
74.815408
 20
3.615821
 30
0.0
 10
75.173012
 20
2.907414
 30
0.0
 10
75.480233
 20
1.542503
 30
0.0
 10
75.432386
 20
0.874730
 30
0.0
  0
LWPOLYLINE
  5
139
100
AcDbEntity
  8
Layer_3_board_outline
 62
1
100
AcDbPolyline
 90
2
 70
1
 10
71.652174
 20
32.055407
 30
0.0
 10
70.405260
 20
31.663220
 30
0.0
  0
SPLINE
  5
13a
100
AcDbEntity
  8
Layer_3_board_outline
 62
1
100
AcDbSpline
 70
8
 71
3
 72
8
 73
4
 74
0
 40
0
 40
0
 40
0
 40
0
 40
1
 40
1
 40
1
 40
1
 10
48.969391
 20
0.392739
 30
0.0
 10
34.432711
 20
0.378314
 30
0.0
 10
22.507766
 20
0.397836
 30
0.0
 10
22.431486
 20
0.474134
 30
0.0
  0
SPLINE
  5
13b
100
AcDbEntity
  8
Layer_3_board_outline
 62
1
100
AcDbSpline
 70
8
 71
3
 72
8
 73
4
 74
0
 40
0
 40
0
 40
0
 40
0
 40
1
 40
1
 40
1
 40
1
 10
22.431486
 20
0.474134
 30
0.0
 10
22.355207
 20
0.550431
 30
0.0
 10
22.390199
 20
1.233613
 30
0.0
 10
22.554340
 20
2.091498
 30
0.0
  0
LWPOLYLINE
  5
13c
100
AcDbEntity
  8
Layer_3_board_outline
 62
1
100
AcDbPolyline
 90
3
 70
1
 10
75.432386
 20
0.874730
 30
0.0
 10
75.399723
 20
0.418953
 30
0.0
 10
48.969391
 20
0.392739
 30
0.0
  0
SPLINE
  5
13d
100
AcDbEntity
  8
Layer_3_silkscreen
 62
7
100
AcDbSpline
 70
8
 71
3
 72
8
 73
4
 74
0
 40
0
 40
0
 40
0
 40
0
 40
1
 40
1
 40
1
 40
1
 10
50.698840
 20
17.369290
 30
0.0
 10
52.513467
 20
18.607373
 30
0.0
 10
52.752408
 20
18.806873
 30
0.0
 10
52.567304
 20
18.929349
 30
0.0
  0
SPLINE
  5
13e
100
AcDbEntity
  8
Layer_3_silkscreen
 62
7
100
AcDbSpline
 70
8
 71
3
 72
8
 73
4
 74
0
 40
0
 40
0
 40
0
 40
0
 40
1
 40
1
 40
1
 40
1
 10
52.567304
 20
18.929349
 30
0.0
 10
52.488459
 20
18.981512
 30
0.0
 10
52.195326
 20
19.054523
 30
0.0
 10
51.915893
 20
19.091590
 30
0.0
  0
SPLINE
  5
13f
100
AcDbEntity
  8
Layer_3_silkscreen
 62
7
100
AcDbSpline
 70
8
 71
3
 72
8
 73
4
 74
0
 40
0
 40
0
 40
0
 40
0
 40
1
 40
1
 40
1
 40
1
 10
51.915893
 20
19.091590
 30
0.0
 10
51.318770
 20
19.170805
 30
0.0
 10
51.098295
 20
19.244741
 30
0.0
 10
51.098295
 20
19.365769
 30
0.0
  0
SPLINE
  5
140
100
AcDbEntity
  8
Layer_3_silkscreen
 62
7
100
AcDbSpline
 70
8
 71
3
 72
8
 73
4
 74
0
 40
0
 40
0
 40
0
 40
0
 40
1
 40
1
 40
1
 40
1
 10
51.098295
 20
19.365769
 30
0.0
 10
51.098295
 20
19.480275
 30
0.0
 10
51.586951
 20
19.615485
 30
0.0
 10
53.177307
 20
19.941029
 30
0.0
  0
SPLINE
  5
141
100
AcDbEntity
  8
Layer_3_silkscreen
 62
7
100
AcDbSpline
 70
8
 71
3
 72
8
 73
4
 74
0
 40
0
 40
0
 40
0
 40
0
 40
1
 40
1
 40
1
 40
1
 10
53.177307
 20
19.941029
 30
0.0
 10
54.325413
 20
20.176043
 30
0.0
 10
54.530363
 20
20.251287
 30
0.0
 10
54.943338
 20
20.589395
 30
0.0
  0
SPLINE
  5
142
100
AcDbEntity
  8
Layer_3_silkscreen
 62
7
100
AcDbSpline
 70
8
 71
3
 72
8
 73
4
 74
0
 40
0
 40
0
 40
0
 40
0
 40
1
 40
1
 40
1
 40
1
 10
54.943338
 20
20.589395
 30
0.0
 10
55.823146
 20
21.309702
 30
0.0
 10
56.713995
 20
22.190523
 30
0.0
 10
56.656608
 20
22.283374
 30
0.0
  0
SPLINE
  5
143
100
AcDbEntity
  8
Layer_3_silkscreen
 62
7
100
AcDbSpline
 70
8
 71
3
 72
8
 73
4
 74
0
 40
0
 40
0
 40
0
 40
0
 40
1
 40
1
 40
1
 40
1
 10
56.656608
 20
22.283374
 30
0.0
 10
56.625055
 20
22.334431
 30
0.0
 10
55.922940
 20
22.376203
 30
0.0
 10
55.096359
 20
22.376203
 30
0.0
  0
SPLINE
  5
144
100
AcDbEntity
  8
Layer_3_silkscreen
 62
7
100
AcDbSpline
 70
8
 71
3
 72
8
 73
4
 74
0
 40
0
 40
0
 40
0
 40
0
 40
1
 40
1
 40
1
 40
1
 10
55.096359
 20
22.376203
 30
0.0
 10
53.278738
 20
22.376203
 30
0.0
 10
51.098295
 20
22.659283
 30
0.0
 10
51.098295
 20
22.895260
 30
0.0
  0
SPLINE
  5
145
100
AcDbEntity
  8
Layer_3_silkscreen
 62
7
100
AcDbSpline
 70
8
 71
3
 72
8
 73
4
 74
0
 40
0
 40
0
 40
0
 40
0
 40
1
 40
1
 40
1
 40
1
 10
51.098295
 20
22.895260
 30
0.0
 10
51.098295
 20
23.047169
 30
0.0
 10
51.665254
 20
23.183251
 30
0.0
 10
55.207208
 20
23.881508
 30
0.0
  0
SPLINE
  5
146
100
AcDbEntity
  8
Layer_3_silkscreen
 62
7
100
AcDbSpline
 70
8
 71
3
 72
8
 73
4
 74
0
 40
0
 40
0
 40
0
 40
0
 40
1
 40
1
 40
1
 40
1
 10
55.207208
 20
23.881508
 30
0.0
 10
57.095226
 20
24.253711
 30
0.0
 10
58.743661
 20
24.582678
 30
0.0
 10
58.870404
 20
24.612549
 30
0.0
  0
SPLINE
  5
147
100
AcDbEntity
  8
Layer_3_silkscreen
 62
7
100
AcDbSpline
 70
8
 71
3
 72
8
 73
4
 74
0
 40
0
 40
0
 40
0
 40
0
 40
1
 40
1
 40
1
 40
1
 10
58.870404
 20
24.612549
 30
0.0
 10
59.112133
 20
24.669518
 30
0.0
 10
60.252325
 20
25.997551
 30
0.0
 10
60.252325
 20
26.222130
 30
0.0
  0
SPLINE
  5
148
100
AcDbEntity
  8
Layer_3_silkscreen
 62
7
100
AcDbSpline
 70
8
 71
3
 72
8
 73
4
 74
0
 40
0
 40
0
 40
0
 40
0
 40
1
 40
1
 40
1
 40
1
 10
60.252325
 20
26.222130
 30
0.0
 10
60.252325
 20
26.312500
 30
0.0
 10
60.149080
 20
26.332972
 30
0.0
 10
59.914251
 20
26.289166
 30
0.0
  0
SPLINE
  5
149
100
AcDbEntity
  8
Layer_3_silkscreen
 62
7
100
AcDbSpline
 70
8
 71
3
 72
8
 73
4
 74
0
 40
0
 40
0
 40
0
 40
0
 40
1
 40
1
 40
1
 40
1
 10
59.914251
 20
26.289166
 30
0.0
 10
57.299829
 20
25.801458
 30
0.0
 10
53.652025
 20
25.779693
 30
0.0
 10
51.592407
 20
26.239514
 30
0.0
  0
SPLINE
  5
14a
100
AcDbEntity
  8
Layer_3_silkscreen
 62
7
100
AcDbSpline
 70
8
 71
3
 72
8
 73
4
 74
0
 40
0
 40
0
 40
0
 40
0
 40
1
 40
1
 40
1
 40
1
 10
51.592407
 20
26.239514
 30
0.0
 10
50.543618
 20
26.473669
 30
0.0
 10
50.754788
 20
26.539630
 30
0.0
 10
55.723683
 20
27.530015
 30
0.0
  0
SPLINE
  5
14b
100
AcDbEntity
  8
Layer_3_silkscreen
 62
7
100
AcDbSpline
 70
8
 71
3
 72
8
 73
4
 74
0
 40
0
 40
0
 40
0
 40
0
 40
1
 40
1
 40
1
 40
1
 10
55.723683
 20
27.530015
 30
0.0
 10
57.895761
 20
27.962950
 30
0.0
 10
59.721366
 20
28.357350
 30
0.0
 10
59.780582
 20
28.406459
 30
0.0
  0
SPLINE
  5
14c
100
AcDbEntity
  8
Layer_3_silkscreen
 62
7
100
AcDbSpline
 70
8
 71
3
 72
8
 73
4
 74
0
 40
0
 40
0
 40
0
 40
0
 40
1
 40
1
 40
1
 40
1
 10
59.780582
 20
28.406459
 30
0.0
 10
59.839795
 20
28.455571
 30
0.0
 10
60.286135
 20
28.569871
 30
0.0
 10
60.772441
 20
28.660459
 30
0.0
  0
SPLINE
  5
14d
100
AcDbEntity
  8
Layer_3_silkscreen
 62
7
100
AcDbSpline
 70
8
 71
3
 72
8
 73
4
 74
0
 40
0
 40
0
 40
0
 40
0
 40
1
 40
1
 40
1
 40
1
 10
60.772441
 20
28.660459
 30
0.0
 10
61.414081
 20
28.779977
 30
0.0
 10
61.699439
 20
28.883302
 30
0.0
 10
61.812672
 20
29.037104
 30
0.0
  0
SPLINE
  5
14e
100
AcDbEntity
  8
Layer_3_silkscreen
 62
7
100
AcDbSpline
 70
8
 71
3
 72
8
 73
4
 74
0
 40
0
 40
0
 40
0
 40
0
 40
1
 40
1
 40
1
 40
1
 10
61.812672
 20
29.037104
 30
0.0
 10
61.898490
 20
29.153673
 30
0.0
 10
62.041868
 20
29.347013
 30
0.0
 10
62.131284
 20
29.466754
 30
0.0
  0
SPLINE
  5
14f
100
AcDbEntity
  8
Layer_3_silkscreen
 62
7
100
AcDbSpline
 70
8
 71
3
 72
8
 73
4
 74
0
 40
0
 40
0
 40
0
 40
0
 40
1
 40
1
 40
1
 40
1
 10
62.131284
 20
29.466754
 30
0.0
 10
62.265227
 20
29.646117
 30
0.0
 10
62.525535
 20
29.717206
 30
0.0
 10
63.609381
 20
29.870430
 30
0.0
  0
SPLINE
  5
150
100
AcDbEntity
  8
Layer_3_silkscreen
 62
7
100
AcDbSpline
 70
8
 71
3
 72
8
 73
4
 74
0
 40
0
 40
0
 40
0
 40
0
 40
1
 40
1
 40
1
 40
1
 10
63.609381
 20
29.870430
 30
0.0
 10
65.335827
 20
30.254205
 30
0.0
 10
66.537696
 20
30.537200
 30
0.0
 10
68.097451
 20
30.906107
 30
0.0
  0
SPLINE
  5
151
100
AcDbEntity
  8
Layer_3_silkscreen
 62
7
100
AcDbSpline
 70
8
 71
3
 72
8
 73
4
 74
0
 40
0
 40
0
 40
0
 40
0
 40
1
 40
1
 40
1
 40
1
 10
68.097451
 20
30.906107
 30
0.0
 10
68.329725
 20
31.035218
 30
0.0
 10
68.366005
 20
31.152128
 30
0.0
 10
68.367718
 20
32.344935
 30
0.0
  0
SPLINE
  5
152
100
AcDbEntity
  8
Layer_3_silkscreen
 62
7
100
AcDbSpline
 70
8
 71
3
 72
8
 73
4
 74
0
 40
0
 40
0
 40
0
 40
0
 40
1
 40
1
 40
1
 40
1
 10
68.367718
 20
32.344935
 30
0.0
 10
68.288840
 20
33.400686
 30
0.0
 10
68.241638
 20
34.024750
 30
0.0
 10
68.143058
 20
34.812441
 30
0.0
  0
SPLINE
  5
153
100
AcDbEntity
  8
Layer_3_silkscreen
 62
7
100
AcDbSpline
 70
8
 71
3
 72
8
 73
4
 74
0
 40
0
 40
0
 40
0
 40
0
 40
1
 40
1
 40
1
 40
1
 10
68.143058
 20
34.812441
 30
0.0
 10
67.821107
 20
37.466791
 30
0.0
 10
66.958309
 20
39.405164
 30
0.0
 10
65.317455
 20
41.160499
 30
0.0
  0
SPLINE
  5
154
100
AcDbEntity
  8
Layer_3_silkscreen
 62
7
100
AcDbSpline
 70
8
 71
3
 72
8
 73
4
 74
0
 40
0
 40
0
 40
0
 40
0
 40
1
 40
1
 40
1
 40
1
 10
65.317455
 20
41.160499
 30
0.0
 10
64.295429
 20
42.253828
 30
0.0
 10
63.416081
 20
42.961548
 30
0.0
 10
61.390112
 20
44.321300
 30
0.0
  0
SPLINE
  5
155
100
AcDbEntity
  8
Layer_3_silkscreen
 62
7
100
AcDbSpline
 70
8
 71
3
 72
8
 73
4
 74
0
 40
0
 40
0
 40
0
 40
0
 40
1
 40
1
 40
1
 40
1
 10
61.390112
 20
44.321300
 30
0.0
 10
57.603054
 20
46.863044
 30
0.0
 10
56.200782
 20
48.342555
 30
0.0
 10
55.261487
 20
50.787539
 30
0.0
  0
SPLINE
  5
156
100
AcDbEntity
  8
Layer_3_silkscreen
 62
7
100
AcDbSpline
 70
8
 71
3
 72
8
 73
4
 74
0
 40
0
 40
0
 40
0
 40
0
 40
1
 40
1
 40
1
 40
1
 10
55.261487
 20
50.787539
 30
0.0
 10
54.656409
 20
52.362554
 30
0.0
 10
54.435522
 20
53.805183
 30
0.0
 10
54.323767
 20
56.911877
 30
0.0
  0
SPLINE
  5
157
100
AcDbEntity
  8
Layer_3_silkscreen
 62
7
100
AcDbSpline
 70
8
 71
3
 72
8
 73
4
 74
0
 40
0
 40
0
 40
0
 40
0
 40
1
 40
1
 40
1
 40
1
 10
54.323767
 20
56.911877
 30
0.0
 10
54.224558
 20
59.669795
 30
0.0
 10
54.045031
 20
60.567158
 30
0.0
 10
53.387475
 20
61.591868
 30
0.0
  0
SPLINE
  5
158
100
AcDbEntity
  8
Layer_3_silkscreen
 62
7
100
AcDbSpline
 70
8
 71
3
 72
8
 73
4
 74
0
 40
0
 40
0
 40
0
 40
0
 40
1
 40
1
 40
1
 40
1
 10
53.387475
 20
61.591868
 30
0.0
 10
52.496043
 20
62.981044
 30
0.0
 10
50.710823
 20
63.688238
 30
0.0
 10
48.488436
 20
63.532561
 30
0.0
  0
SPLINE
  5
159
100
AcDbEntity
  8
Layer_3_silkscreen
 62
7
100
AcDbSpline
 70
8
 71
3
 72
8
 73
4
 74
0
 40
0
 40
0
 40
0
 40
0
 40
1
 40
1
 40
1
 40
1
 10
48.488436
 20
63.532561
 30
0.0
 10
46.828634
 20
63.416294
 30
0.0
 10
45.598139
 20
62.850183
 30
0.0
 10
44.857633
 20
61.862141
 30
0.0
  0
SPLINE
  5
15a
100
AcDbEntity
  8
Layer_3_silkscreen
 62
7
100
AcDbSpline
 70
8
 71
3
 72
8
 73
4
 74
0
 40
0
 40
0
 40
0
 40
0
 40
1
 40
1
 40
1
 40
1
 10
44.857633
 20
61.862141
 30
0.0
 10
44.014314
 20
60.736916
 30
0.0
 10
43.835676
 20
59.932038
 30
0.0
 10
43.712776
 20
56.703831
 30
0.0
  0
SPLINE
  5
15b
100
AcDbEntity
  8
Layer_3_silkscreen
 62
7
100
AcDbSpline
 70
8
 71
3
 72
8
 73
4
 74
0
 40
0
 40
0
 40
0
 40
0
 40
1
 40
1
 40
1
 40
1
 10
43.712776
 20
56.703831
 30
0.0
 10
43.610437
 20
54.015693
 30
0.0
 10
43.456304
 20
52.852325
 30
0.0
 10
43.018529
 20
51.463817
 30
0.0
  0
SPLINE
  5
15c
100
AcDbEntity
  8
Layer_3_silkscreen
 62
7
100
AcDbSpline
 70
8
 71
3
 72
8
 73
4
 74
0
 40
0
 40
0
 40
0
 40
0
 40
1
 40
1
 40
1
 40
1
 10
43.018529
 20
51.463817
 30
0.0
 10
42.505099
 20
49.835369
 30
0.0
 10
41.768276
 20
48.609199
 30
0.0
 10
40.551605
 20
47.358536
 30
0.0
  0
SPLINE
  5
15d
100
AcDbEntity
  8
Layer_3_silkscreen
 62
7
100
AcDbSpline
 70
8
 71
3
 72
8
 73
4
 74
0
 40
0
 40
0
 40
0
 40
0
 40
1
 40
1
 40
1
 40
1
 10
40.551605
 20
47.358536
 30
0.0
 10
39.597449
 20
46.377721
 30
0.0
 10
38.900600
 20
45.832375
 30
0.0
 10
36.743107
 20
44.378064
 30
0.0
  0
SPLINE
  5
15e
100
AcDbEntity
  8
Layer_3_silkscreen
 62
7
100
AcDbSpline
 70
8
 71
3
 72
8
 73
4
 74
0
 40
0
 40
0
 40
0
 40
0
 40
1
 40
1
 40
1
 40
1
 10
36.743107
 20
44.378064
 30
0.0
 10
34.744750
 20
43.031020
 30
0.0
 10
33.716460
 20
42.220390
 30
0.0
 10
32.877356
 20
41.330589
 30
0.0
  0
SPLINE
  5
15f
100
AcDbEntity
  8
Layer_3_silkscreen
 62
7
100
AcDbSpline
 70
8
 71
3
 72
8
 73
4
 74
0
 40
0
 40
0
 40
0
 40
0
 40
1
 40
1
 40
1
 40
1
 10
32.877356
 20
41.330589
 30
0.0
 10
30.777756
 20
39.104126
 30
0.0
 10
29.792673
 20
36.439917
 30
0.0
 10
29.603457
 20
32.476118
 30
0.0
  0
SPLINE
  5
160
100
AcDbEntity
  8
Layer_3_silkscreen
 62
7
100
AcDbSpline
 70
8
 71
3
 72
8
 73
4
 74
0
 40
0
 40
0
 40
0
 40
0
 40
1
 40
1
 40
1
 40
1
 10
29.603457
 20
32.476118
 30
0.0
 10
29.538614
 20
31.117802
 30
0.0
 10
29.546327
 20
31.027722
 30
0.0
 10
29.736178
 20
30.926114
 30
0.0
  0
SPLINE
  5
161
100
AcDbEntity
  8
Layer_3_silkscreen
 62
7
100
AcDbSpline
 70
8
 71
3
 72
8
 73
4
 74
0
 40
0
 40
0
 40
0
 40
0
 40
1
 40
1
 40
1
 40
1
 10
29.736178
 20
30.926114
 30
0.0
 10
29.973851
 20
30.798916
 30
0.0
 10
32.564821
 20
30.186008
 30
0.0
 10
34.194541
 20
29.871466
 30
0.0
  0
SPLINE
  5
162
100
AcDbEntity
  8
Layer_3_silkscreen
 62
7
100
AcDbSpline
 70
8
 71
3
 72
8
 73
4
 74
0
 40
0
 40
0
 40
0
 40
0
 40
1
 40
1
 40
1
 40
1
 10
34.194541
 20
29.871466
 30
0.0
 10
34.823883
 20
29.750003
 30
0.0
 10
35.444091
 20
29.627954
 30
0.0
 10
35.572785
 20
29.600248
 30
0.0
  0
SPLINE
  5
163
100
AcDbEntity
  8
Layer_3_silkscreen
 62
7
100
AcDbSpline
 70
8
 71
3
 72
8
 73
4
 74
0
 40
0
 40
0
 40
0
 40
0
 40
1
 40
1
 40
1
 40
1
 10
35.572785
 20
29.600248
 30
0.0
 10
35.701481
 20
29.572534
 30
0.0
 10
35.923858
 20
29.364403
 30
0.0
 10
36.066959
 20
29.137717
 30
0.0
  0
SPLINE
  5
164
100
AcDbEntity
  8
Layer_3_silkscreen
 62
7
100
AcDbSpline
 70
8
 71
3
 72
8
 73
4
 74
0
 40
0
 40
0
 40
0
 40
0
 40
1
 40
1
 40
1
 40
1
 10
36.066959
 20
29.137717
 30
0.0
 10
36.210062
 20
28.911027
 30
0.0
 10
36.432439
 20
28.702262
 30
0.0
 10
36.561133
 20
28.673794
 30
0.0
  0
SPLINE
  5
165
100
AcDbEntity
  8
Layer_3_silkscreen
 62
7
100
AcDbSpline
 70
8
 71
3
 72
8
 73
4
 74
0
 40
0
 40
0
 40
0
 40
0
 40
1
 40
1
 40
1
 40
1
 10
36.561133
 20
28.673794
 30
0.0
 10
36.689826
 20
28.645326
 30
0.0
 10
38.152620
 20
28.362294
 30
0.0
 10
39.811788
 20
28.044828
 30
0.0
  0
SPLINE
  5
166
100
AcDbEntity
  8
Layer_3_silkscreen
 62
7
100
AcDbSpline
 70
8
 71
3
 72
8
 73
4
 74
0
 40
0
 40
0
 40
0
 40
0
 40
1
 40
1
 40
1
 40
1
 10
39.811788
 20
28.044828
 30
0.0
 10
45.156950
 20
27.022091
 30
0.0
 10
46.849417
 20
26.644969
 30
0.0
 10
46.910015
 20
26.463173
 30
0.0
  0
SPLINE
  5
167
100
AcDbEntity
  8
Layer_3_silkscreen
 62
7
100
AcDbSpline
 70
8
 71
3
 72
8
 73
4
 74
0
 40
0
 40
0
 40
0
 40
0
 40
1
 40
1
 40
1
 40
1
 10
46.910015
 20
26.463173
 30
0.0
 10
46.960849
 20
26.310663
 30
0.0
 10
46.777563
 20
26.258454
 30
0.0
 10
45.533059
 20
26.070952
 30
0.0
  0
SPLINE
  5
168
100
AcDbEntity
  8
Layer_3_silkscreen
 62
7
100
AcDbSpline
 70
8
 71
3
 72
8
 73
4
 74
0
 40
0
 40
0
 40
0
 40
0
 40
1
 40
1
 40
1
 40
1
 10
45.533059
 20
26.070952
 30
0.0
 10
43.693735
 20
25.793832
 30
0.0
 10
40.344671
 20
25.893846
 30
0.0
 10
38.225436
 20
26.289180
 30
0.0
  0
SPLINE
  5
169
100
AcDbEntity
  8
Layer_3_silkscreen
 62
7
100
AcDbSpline
 70
8
 71
3
 72
8
 73
4
 74
0
 40
0
 40
0
 40
0
 40
0
 40
1
 40
1
 40
1
 40
1
 10
38.225436
 20
26.289180
 30
0.0
 10
38.026140
 20
26.326357
 30
0.0
 10
37.887362
 20
26.309246
 30
0.0
 10
37.887362
 20
26.247527
 30
0.0
  0
SPLINE
  5
16a
100
AcDbEntity
  8
Layer_3_silkscreen
 62
7
100
AcDbSpline
 70
8
 71
3
 72
8
 73
4
 74
0
 40
0
 40
0
 40
0
 40
0
 40
1
 40
1
 40
1
 40
1
 10
37.887362
 20
26.247527
 30
0.0
 10
37.887362
 20
26.189931
 30
0.0
 10
38.134555
 20
25.821941
 30
0.0
 10
38.436680
 20
25.429771
 30
0.0
  0
SPLINE
  5
16b
100
AcDbEntity
  8
Layer_3_silkscreen
 62
7
100
AcDbSpline
 70
8
 71
3
 72
8
 73
4
 74
0
 40
0
 40
0
 40
0
 40
0
 40
1
 40
1
 40
1
 40
1
 10
38.436680
 20
25.429771
 30
0.0
 10
39.075129
 20
24.601037
 30
0.0
 10
38.480938
 20
24.797238
 30
0.0
 10
43.446796
 20
23.775432
 30
0.0
  0
SPLINE
  5
16c
100
AcDbEntity
  8
Layer_3_silkscreen
 62
7
100
AcDbSpline
 70
8
 71
3
 72
8
 73
4
 74
0
 40
0
 40
0
 40
0
 40
0
 40
1
 40
1
 40
1
 40
1
 10
43.446796
 20
23.775432
 30
0.0
 10
45.274408
 20
23.399374
 30
0.0
 10
46.807447
 20
23.068372
 30
0.0
 10
46.853551
 20
23.039879
 30
0.0
  0
SPLINE
  5
16d
100
AcDbEntity
  8
Layer_3_silkscreen
 62
7
100
AcDbSpline
 70
8
 71
3
 72
8
 73
4
 74
0
 40
0
 40
0
 40
0
 40
0
 40
1
 40
1
 40
1
 40
1
 10
46.853551
 20
23.039879
 30
0.0
 10
46.992512
 20
22.953999
 30
0.0
 10
46.948355
 20
22.818781
 30
0.0
 10
46.757423
 20
22.745516
 30
0.0
  0
SPLINE
  5
16e
100
AcDbEntity
  8
Layer_3_silkscreen
 62
7
100
AcDbSpline
 70
8
 71
3
 72
8
 73
4
 74
0
 40
0
 40
0
 40
0
 40
0
 40
1
 40
1
 40
1
 40
1
 10
46.757423
 20
22.745516
 30
0.0
 10
46.302713
 20
22.571026
 30
0.0
 10
44.356172
 20
22.379849
 30
0.0
 10
43.016638
 20
22.378122
 30
0.0
  0
SPLINE
  5
16f
100
AcDbEntity
  8
Layer_3_silkscreen
 62
7
100
AcDbSpline
 70
8
 71
3
 72
8
 73
4
 74
0
 40
0
 40
0
 40
0
 40
0
 40
1
 40
1
 40
1
 40
1
 10
43.016638
 20
22.378122
 30
0.0
 10
42.204736
 20
22.376993
 30
0.0
 10
41.515188
 20
22.335343
 30
0.0
 10
41.484310
 20
22.285378
 30
0.0
  0
SPLINE
  5
170
100
AcDbEntity
  8
Layer_3_silkscreen
 62
7
100
AcDbSpline
 70
8
 71
3
 72
8
 73
4
 74
0
 40
0
 40
0
 40
0
 40
0
 40
1
 40
1
 40
1
 40
1
 10
41.484310
 20
22.285378
 30
0.0
 10
41.426652
 20
22.192092
 30
0.0
 10
42.069910
 20
21.554648
 30
0.0
 10
43.099581
 20
20.684709
 30
0.0
  0
SPLINE
  5
171
100
AcDbEntity
  8
Layer_3_silkscreen
 62
7
100
AcDbSpline
 70
8
 71
3
 72
8
 73
4
 74
0
 40
0
 40
0
 40
0
 40
0
 40
1
 40
1
 40
1
 40
1
 10
43.099581
 20
20.684709
 30
0.0
 10
43.657043
 20
20.213726
 30
0.0
 10
43.739641
 20
20.180449
 30
0.0
 10
44.971995
 20
19.930324
 30
0.0
  0
SPLINE
  5
172
100
AcDbEntity
  8
Layer_3_silkscreen
 62
7
100
AcDbSpline
 70
8
 71
3
 72
8
 73
4
 74
0
 40
0
 40
0
 40
0
 40
0
 40
1
 40
1
 40
1
 40
1
 10
44.971995
 20
19.930324
 30
0.0
 10
46.439116
 20
19.632551
 30
0.0
 10
46.937368
 20
19.487043
 30
0.0
 10
46.937368
 20
19.356366
 30
0.0
  0
SPLINE
  5
173
100
AcDbEntity
  8
Layer_3_silkscreen
 62
7
100
AcDbSpline
 70
8
 71
3
 72
8
 73
4
 74
0
 40
0
 40
0
 40
0
 40
0
 40
1
 40
1
 40
1
 40
1
 10
46.937368
 20
19.356366
 30
0.0
 10
46.937368
 20
19.260918
 30
0.0
 10
46.282006
 20
19.049054
 30
0.0
 10
45.983666
 20
19.048058
 30
0.0
  0
SPLINE
  5
174
100
AcDbEntity
  8
Layer_3_silkscreen
 62
7
100
AcDbSpline
 70
8
 71
3
 72
8
 73
4
 74
0
 40
0
 40
0
 40
0
 40
0
 40
1
 40
1
 40
1
 40
1
 10
45.983666
 20
19.048058
 30
0.0
 10
45.748682
 20
19.047493
 30
0.0
 10
45.481045
 20
18.938547
 30
0.0
 10
45.481045
 20
18.843873
 30
0.0
  0
SPLINE
  5
175
100
AcDbEntity
  8
Layer_3_silkscreen
 62
7
100
AcDbSpline
 70
8
 71
3
 72
8
 73
4
 74
0
 40
0
 40
0
 40
0
 40
0
 40
1
 40
1
 40
1
 40
1
 10
45.481045
 20
18.843873
 30
0.0
 10
45.481045
 20
18.765065
 30
0.0
 10
47.357264
 20
17.397721
 30
0.0
 10
48.393691
 20
16.721203
 30
0.0
  0
SPLINE
  5
176
100
AcDbEntity
  8
Layer_3_silkscreen
 62
7
100
AcDbSpline
 70
8
 71
3
 72
8
 73
4
 74
0
 40
0
 40
0
 40
0
 40
0
 40
1
 40
1
 40
1
 40
1
 10
48.393691
 20
16.721203
 30
0.0
 10
48.708361
 20
16.515805
 30
0.0
 10
49.043525
 20
16.364576
 30
0.0
 10
49.138493
 20
16.385139
 30
0.0
  0
SPLINE
  5
177
100
AcDbEntity
  8
Layer_3_silkscreen
 62
7
100
AcDbSpline
 70
8
 71
3
 72
8
 73
4
 74
0
 40
0
 40
0
 40
0
 40
0
 40
1
 40
1
 40
1
 40
1
 10
49.138493
 20
16.385139
 30
0.0
 10
49.233463
 20
16.405713
 30
0.0
 10
49.935618
 20
16.848576
 30
0.0
 10
50.698840
 20
17.369304
 30
0.0
  0
LWPOLYLINE
  5
178
100
AcDbEntity
  8
Layer_3_board_outline
 62
1
100
AcDbPolyline
 90
2
 70
1
 10
22.554340
 20
2.091498
 30
0.0
 10
22.554340
 20
2.091498
 30
0.0
  0
SPLINE
  5
179
100
AcDbEntity
  8
Layer_3_silkscreen
 62
7
100
AcDbSpline
 70
8
 71
3
 72
8
 73
4
 74
0
 40
0
 40
0
 40
0
 40
0
 40
1
 40
1
 40
1
 40
1
 10
28.433339
 20
42.955381
 30
0.0
 10
33.277866
 20
43.756591
 30
0.0
 10
37.042660
 20
47.412300
 30
0.0
 10
37.950205
 20
52.196477
 30
0.0
  0
SPLINE
  5
17a
100
AcDbEntity
  8
Layer_3_silkscreen
 62
7
100
AcDbSpline
 70
8
 71
3
 72
8
 73
4
 74
0
 40
0
 40
0
 40
0
 40
0
 40
1
 40
1
 40
1
 40
1
 10
37.950205
 20
52.196477
 30
0.0
 10
38.148446
 20
53.241524
 30
0.0
 10
38.153247
 20
55.345727
 30
0.0
 10
37.959716
 20
56.357322
 30
0.0
  0
SPLINE
  5
17b
100
AcDbEntity
  8
Layer_3_silkscreen
 62
7
100
AcDbSpline
 70
8
 71
3
 72
8
 73
4
 74
0
 40
0
 40
0
 40
0
 40
0
 40
1
 40
1
 40
1
 40
1
 10
37.959716
 20
56.357322
 30
0.0
 10
36.402854
 20
64.494296
 30
0.0
 10
27.110107
 20
68.411278
 30
0.0
 10
20.258453
 20
63.818575
 30
0.0
  0
SPLINE
  5
17c
100
AcDbEntity
  8
Layer_3_silkscreen
 62
7
100
AcDbSpline
 70
8
 71
3
 72
8
 73
4
 74
0
 40
0
 40
0
 40
0
 40
0
 40
1
 40
1
 40
1
 40
1
 10
20.258453
 20
63.818575
 30
0.0
 10
19.279899
 20
63.162648
 30
0.0
 10
17.818875
 20
61.731630
 30
0.0
 10
17.222222
 20
60.844705
 30
0.0
  0
SPLINE
  5
17d
100
AcDbEntity
  8
Layer_3_silkscreen
 62
7
100
AcDbSpline
 70
8
 71
3
 72
8
 73
4
 74
0
 40
0
 40
0
 40
0
 40
0
 40
1
 40
1
 40
1
 40
1
 10
17.222222
 20
60.844705
 30
0.0
 10
16.266219
 20
59.423604
 30
0.0
 10
15.582240
 20
57.715166
 30
0.0
 10
15.324030
 20
56.103418
 30
0.0
  0
SPLINE
  5
17e
100
AcDbEntity
  8
Layer_3_silkscreen
 62
7
100
AcDbSpline
 70
8
 71
3
 72
8
 73
4
 74
0
 40
0
 40
0
 40
0
 40
0
 40
1
 40
1
 40
1
 40
1
 10
15.324030
 20
56.103418
 30
0.0
 10
15.134611
 20
54.921065
 30
0.0
 10
15.237343
 20
52.555010
 30
0.0
 10
15.526413
 20
51.442269
 30
0.0
  0
SPLINE
  5
17f
100
AcDbEntity
  8
Layer_3_silkscreen
 62
7
100
AcDbSpline
 70
8
 71
3
 72
8
 73
4
 74
0
 40
0
 40
0
 40
0
 40
0
 40
1
 40
1
 40
1
 40
1
 10
15.526413
 20
51.442269
 30
0.0
 10
15.809916
 20
50.350961
 30
0.0
 10
16.593323
 20
48.681639
 30
0.0
 10
17.305303
 20
47.651723
 30
0.0
  0
SPLINE
  5
180
100
AcDbEntity
  8
Layer_3_silkscreen
 62
7
100
AcDbSpline
 70
8
 71
3
 72
8
 73
4
 74
0
 40
0
 40
0
 40
0
 40
0
 40
1
 40
1
 40
1
 40
1
 10
17.305303
 20
47.651723
 30
0.0
 10
17.921766
 20
46.759977
 30
0.0
 10
19.264471
 20
45.430496
 30
0.0
 10
20.167393
 20
44.817822
 30
0.0
  0
SPLINE
  5
181
100
AcDbEntity
  8
Layer_3_silkscreen
 62
7
100
AcDbSpline
 70
8
 71
3
 72
8
 73
4
 74
0
 40
0
 40
0
 40
0
 40
0
 40
1
 40
1
 40
1
 40
1
 10
20.167393
 20
44.817822
 30
0.0
 10
22.594152
 20
43.171146
 30
0.0
 10
25.618170
 20
42.489791
 30
0.0
 10
28.433358
 20
42.955381
 30
0.0
  0
LWPOLYLINE
  5
182
100
AcDbEntity
  8
Layer_3_silkscreen
 62
7
100
AcDbPolyline
 90
2
 70
1
 10
50.698840
 20
17.369304
 30
0.0
 10
50.698840
 20
17.369290
 30
0.0
  0
SPLINE
  5
183
100
AcDbEntity
  8
Layer_3_silkscreen
 62
7
100
AcDbSpline
 70
8
 71
3
 72
8
 73
4
 74
0
 40
0
 40
0
 40
0
 40
0
 40
1
 40
1
 40
1
 40
1
 10
26.575655
 20
46.869149
 30
0.0
 10
23.220293
 20
47.747978
 30
0.0
 10
20.840994
 20
50.614012
 30
0.0
 10
20.659896
 20
53.995091
 30
0.0
  0
SPLINE
  5
184
100
AcDbEntity
  8
Layer_3_silkscreen
 62
7
100
AcDbSpline
 70
8
 71
3
 72
8
 73
4
 74
0
 40
0
 40
0
 40
0
 40
0
 40
1
 40
1
 40
1
 40
1
 10
20.659896
 20
53.995091
 30
0.0
 10
20.532524
 20
56.373112
 30
0.0
 10
21.391296
 20
58.502934
 30
0.0
 10
23.119904
 20
60.096096
 30
0.0
  0
SPLINE
  5
185
100
AcDbEntity
  8
Layer_3_silkscreen
 62
7
100
AcDbSpline
 70
8
 71
3
 72
8
 73
4
 74
0
 40
0
 40
0
 40
0
 40
0
 40
1
 40
1
 40
1
 40
1
 10
23.119904
 20
60.096096
 30
0.0
 10
24.815967
 20
61.659268
 30
0.0
 10
26.743823
 20
62.351559
 30
0.0
 10
29.057479
 20
62.228274
 30
0.0
  0
SPLINE
  5
186
100
AcDbEntity
  8
Layer_3_silkscreen
 62
7
100
AcDbSpline
 70
8
 71
3
 72
8
 73
4
 74
0
 40
0
 40
0
 40
0
 40
0
 40
1
 40
1
 40
1
 40
1
 10
29.057479
 20
62.228274
 30
0.0
 10
30.164114
 20
62.169307
 30
0.0
 10
31.465599
 20
61.857283
 30
0.0
 10
31.751216
 20
61.582461
 30
0.0
  0
SPLINE
  5
187
100
AcDbEntity
  8
Layer_3_silkscreen
 62
7
100
AcDbSpline
 70
8
 71
3
 72
8
 73
4
 74
0
 40
0
 40
0
 40
0
 40
0
 40
1
 40
1
 40
1
 40
1
 10
31.751216
 20
61.582461
 30
0.0
 10
31.874666
 20
61.463684
 30
0.0
 10
31.845052
 20
61.391433
 30
0.0
 10
31.553356
 20
61.099735
 30
0.0
  0
SPLINE
  5
188
100
AcDbEntity
  8
Layer_3_silkscreen
 62
7
100
AcDbSpline
 70
8
 71
3
 72
8
 73
4
 74
0
 40
0
 40
0
 40
0
 40
0
 40
1
 40
1
 40
1
 40
1
 10
31.553356
 20
61.099735
 30
0.0
 10
31.028098
 20
60.574477
 30
0.0
 10
30.722607
 20
59.827345
 30
0.0
 10
30.730780
 20
59.087967
 30
0.0
  0
SPLINE
  5
189
100
AcDbEntity
  8
Layer_3_silkscreen
 62
7
100
AcDbSpline
 70
8
 71
3
 72
8
 73
4
 74
0
 40
0
 40
0
 40
0
 40
0
 40
1
 40
1
 40
1
 40
1
 10
30.730780
 20
59.087967
 30
0.0
 10
30.743028
 20
57.981536
 30
0.0
 10
31.253461
 20
57.104903
 30
0.0
 10
32.184484
 20
56.591431
 30
0.0
  0
SPLINE
  5
18a
100
AcDbEntity
  8
Layer_3_silkscreen
 62
7
100
AcDbSpline
 70
8
 71
3
 72
8
 73
4
 74
0
 40
0
 40
0
 40
0
 40
0
 40
1
 40
1
 40
1
 40
1
 10
32.184484
 20
56.591431
 30
0.0
 10
32.673536
 20
56.321711
 30
0.0
 10
32.856145
 20
56.279699
 30
0.0
 10
33.530469
 20
56.281771
 30
0.0
  0
SPLINE
  5
18b
100
AcDbEntity
  8
Layer_3_silkscreen
 62
7
100
AcDbSpline
 70
8
 71
3
 72
8
 73
4
 74
0
 40
0
 40
0
 40
0
 40
0
 40
1
 40
1
 40
1
 40
1
 10
33.530469
 20
56.281771
 30
0.0
 10
34.400549
 20
56.284593
 30
0.0
 10
34.973082
 20
56.509744
 30
0.0
 10
35.583368
 20
57.089629
 30
0.0
  0
SPLINE
  5
18c
100
AcDbEntity
  8
Layer_3_silkscreen
 62
7
100
AcDbSpline
 70
8
 71
3
 72
8
 73
4
 74
0
 40
0
 40
0
 40
0
 40
0
 40
1
 40
1
 40
1
 40
1
 10
35.583368
 20
57.089629
 30
0.0
 10
35.768452
 20
57.265490
 30
0.0
 10
35.949534
 20
57.379728
 30
0.0
 10
35.985772
 20
57.343494
 30
0.0
  0
SPLINE
  5
18d
100
AcDbEntity
  8
Layer_3_silkscreen
 62
7
100
AcDbSpline
 70
8
 71
3
 72
8
 73
4
 74
0
 40
0
 40
0
 40
0
 40
0
 40
1
 40
1
 40
1
 40
1
 10
35.985772
 20
57.343494
 30
0.0
 10
36.227842
 20
57.101420
 30
0.0
 10
36.469077
 20
55.955841
 30
0.0
 10
36.519098
 20
54.810815
 30
0.0
  0
SPLINE
  5
18e
100
AcDbEntity
  8
Layer_3_silkscreen
 62
7
100
AcDbSpline
 70
8
 71
3
 72
8
 73
4
 74
0
 40
0
 40
0
 40
0
 40
0
 40
1
 40
1
 40
1
 40
1
 10
36.519098
 20
54.810815
 30
0.0
 10
36.585962
 20
53.280273
 30
0.0
 10
36.413226
 20
52.369369
 30
0.0
 10
35.828114
 20
51.167010
 30
0.0
  0
SPLINE
  5
18f
100
AcDbEntity
  8
Layer_3_silkscreen
 62
7
100
AcDbSpline
 70
8
 71
3
 72
8
 73
4
 74
0
 40
0
 40
0
 40
0
 40
0
 40
1
 40
1
 40
1
 40
1
 10
35.828114
 20
51.167010
 30
0.0
 10
34.754569
 20
48.960938
 30
0.0
 10
32.915479
 20
47.454653
 30
0.0
 10
30.575182
 20
46.864648
 30
0.0
  0
SPLINE
  5
190
100
AcDbEntity
  8
Layer_3_silkscreen
 62
7
100
AcDbSpline
 70
8
 71
3
 72
8
 73
4
 74
0
 40
0
 40
0
 40
0
 40
0
 40
1
 40
1
 40
1
 40
1
 10
30.575182
 20
46.864648
 30
0.0
 10
29.468569
 20
46.585665
 30
0.0
 10
27.650182
 20
46.587711
 30
0.0
 10
26.575655
 20
46.869163
 30
0.0
  0
LWPOLYLINE
  5
191
100
AcDbEntity
  8
Layer_3_silkscreen
 62
7
100
AcDbPolyline
 90
2
 70
1
 10
28.433358
 20
42.955381
 30
0.0
 10
28.433339
 20
42.955381
 30
0.0
  0
SPLINE
  5
192
100
AcDbEntity
  8
Layer_3_silkscreen
 62
7
100
AcDbSpline
 70
8
 71
3
 72
8
 73
4
 74
0
 40
0
 40
0
 40
0
 40
0
 40
1
 40
1
 40
1
 40
1
 10
73.805040
 20
43.157187
 30
0.0
 10
76.297810
 20
43.799251
 30
0.0
 10
78.400947
 20
45.142626
 30
0.0
 10
79.978140
 20
47.100247
 30
0.0
  0
SPLINE
  5
193
100
AcDbEntity
  8
Layer_3_silkscreen
 62
7
100
AcDbSpline
 70
8
 71
3
 72
8
 73
4
 74
0
 40
0
 40
0
 40
0
 40
0
 40
1
 40
1
 40
1
 40
1
 10
79.978140
 20
47.100247
 30
0.0
 10
80.855882
 20
48.189701
 30
0.0
 10
81.802755
 20
50.082229
 30
0.0
 10
82.176583
 20
51.494283
 30
0.0
  0
SPLINE
  5
194
100
AcDbEntity
  8
Layer_3_silkscreen
 62
7
100
AcDbSpline
 70
8
 71
3
 72
8
 73
4
 74
0
 40
0
 40
0
 40
0
 40
0
 40
1
 40
1
 40
1
 40
1
 10
82.176583
 20
51.494283
 30
0.0
 10
82.420158
 20
52.414336
 30
0.0
 10
82.452379
 20
52.732810
 30
0.0
 10
82.455518
 20
54.250894
 30
0.0
  0
SPLINE
  5
195
100
AcDbEntity
  8
Layer_3_silkscreen
 62
7
100
AcDbSpline
 70
8
 71
3
 72
8
 73
4
 74
0
 40
0
 40
0
 40
0
 40
0
 40
1
 40
1
 40
1
 40
1
 10
82.455518
 20
54.250894
 30
0.0
 10
82.458650
 20
55.791805
 30
0.0
 10
82.430005
 20
56.078856
 30
0.0
 10
82.174819
 20
57.058698
 30
0.0
  0
SPLINE
  5
196
100
AcDbEntity
  8
Layer_3_silkscreen
 62
7
100
AcDbSpline
 70
8
 71
3
 72
8
 73
4
 74
0
 40
0
 40
0
 40
0
 40
0
 40
1
 40
1
 40
1
 40
1
 10
82.174819
 20
57.058698
 30
0.0
 10
81.050288
 20
61.376634
 30
0.0
 10
77.741724
 20
64.557153
 30
0.0
 10
73.333706
 20
65.557647
 30
0.0
  0
SPLINE
  5
197
100
AcDbEntity
  8
Layer_3_silkscreen
 62
7
100
AcDbSpline
 70
8
 71
3
 72
8
 73
4
 74
0
 40
0
 40
0
 40
0
 40
0
 40
1
 40
1
 40
1
 40
1
 10
73.333706
 20
65.557647
 30
0.0
 10
72.329130
 20
65.785659
 30
0.0
 10
69.750376
 20
65.784404
 30
0.0
 10
68.727873
 20
65.555559
 30
0.0
  0
SPLINE
  5
198
100
AcDbEntity
  8
Layer_3_silkscreen
 62
7
100
AcDbSpline
 70
8
 71
3
 72
8
 73
4
 74
0
 40
0
 40
0
 40
0
 40
0
 40
1
 40
1
 40
1
 40
1
 10
68.727873
 20
65.555559
 30
0.0
 10
66.349984
 20
65.023016
 30
0.0
 10
64.472287
 20
63.969952
 30
0.0
 10
62.793668
 20
62.227500
 30
0.0
  0
SPLINE
  5
199
100
AcDbEntity
  8
Layer_3_silkscreen
 62
7
100
AcDbSpline
 70
8
 71
3
 72
8
 73
4
 74
0
 40
0
 40
0
 40
0
 40
0
 40
1
 40
1
 40
1
 40
1
 10
62.793668
 20
62.227500
 30
0.0
 10
61.802143
 20
61.198268
 30
0.0
 10
61.332099
 20
60.545222
 30
0.0
 10
60.754627
 20
59.394602
 30
0.0
  0
SPLINE
  5
19a
100
AcDbEntity
  8
Layer_3_silkscreen
 62
7
100
AcDbSpline
 70
8
 71
3
 72
8
 73
4
 74
0
 40
0
 40
0
 40
0
 40
0
 40
1
 40
1
 40
1
 40
1
 10
60.754627
 20
59.394602
 30
0.0
 10
57.739732
 20
53.387376
 30
0.0
 10
60.606788
 20
46.008636
 30
0.0
 10
66.893059
 20
43.596540
 30
0.0
  0
SPLINE
  5
19b
100
AcDbEntity
  8
Layer_3_silkscreen
 62
7
100
AcDbSpline
 70
8
 71
3
 72
8
 73
4
 74
0
 40
0
 40
0
 40
0
 40
0
 40
1
 40
1
 40
1
 40
1
 10
66.893059
 20
43.596540
 30
0.0
 10
67.708345
 20
43.283705
 30
0.0
 10
68.783615
 20
43.003780
 30
0.0
 10
69.678491
 20
42.871406
 30
0.0
  0
SPLINE
  5
19c
100
AcDbEntity
  8
Layer_3_silkscreen
 62
7
100
AcDbSpline
 70
8
 71
3
 72
8
 73
4
 74
0
 40
0
 40
0
 40
0
 40
0
 40
1
 40
1
 40
1
 40
1
 10
69.678491
 20
42.871406
 30
0.0
 10
69.850130
 20
42.846034
 30
0.0
 10
70.622501
 20
42.841654
 30
0.0
 10
71.394873
 20
42.861754
 30
0.0
  0
SPLINE
  5
19d
100
AcDbEntity
  8
Layer_3_silkscreen
 62
7
100
AcDbSpline
 70
8
 71
3
 72
8
 73
4
 74
0
 40
0
 40
0
 40
0
 40
0
 40
1
 40
1
 40
1
 40
1
 10
71.394873
 20
42.861754
 30
0.0
 10
72.461713
 20
42.889497
 30
0.0
 10
73.040898
 20
42.960521
 30
0.0
 10
73.805040
 20
43.157340
 30
0.0
  0
LWPOLYLINE
  5
19e
100
AcDbEntity
  8
Layer_3_silkscreen
 62
7
100
AcDbPolyline
 90
2
 70
1
 10
26.575655
 20
46.869163
 30
0.0
 10
26.575655
 20
46.869149
 30
0.0
  0
SPLINE
  5
19f
100
AcDbEntity
  8
Layer_3_silkscreen
 62
7
100
AcDbSpline
 70
8
 71
3
 72
8
 73
4
 74
0
 40
0
 40
0
 40
0
 40
0
 40
1
 40
1
 40
1
 40
1
 10
67.285960
 20
46.803600
 30
0.0
 10
63.271056
 20
47.719676
 30
0.0
 10
60.576068
 20
51.619448
 30
0.0
 10
61.204887
 20
55.603193
 30
0.0
  0
SPLINE
  5
1a0
100
AcDbEntity
  8
Layer_3_silkscreen
 62
7
100
AcDbSpline
 70
8
 71
3
 72
8
 73
4
 74
0
 40
0
 40
0
 40
0
 40
0
 40
1
 40
1
 40
1
 40
1
 10
61.204887
 20
55.603193
 30
0.0
 10
61.329197
 20
56.390734
 30
0.0
 10
61.588896
 20
57.238101
 30
0.0
 10
61.733295
 20
57.327345
 30
0.0
  0
SPLINE
  5
1a1
100
AcDbEntity
  8
Layer_3_silkscreen
 62
7
100
AcDbSpline
 70
8
 71
3
 72
8
 73
4
 74
0
 40
0
 40
0
 40
0
 40
0
 40
1
 40
1
 40
1
 40
1
 10
61.733295
 20
57.327345
 30
0.0
 10
61.788675
 20
57.361567
 30
0.0
 10
62.038103
 20
57.201417
 30
0.0
 10
62.287590
 20
56.971451
 30
0.0
  0
SPLINE
  5
1a2
100
AcDbEntity
  8
Layer_3_silkscreen
 62
7
100
AcDbSpline
 70
8
 71
3
 72
8
 73
4
 74
0
 40
0
 40
0
 40
0
 40
0
 40
1
 40
1
 40
1
 40
1
 10
62.287590
 20
56.971451
 30
0.0
 10
62.756076
 20
56.539618
 30
0.0
 10
63.544077
 20
56.227333
 30
0.0
 10
64.165268
 20
56.227333
 30
0.0
  0
SPLINE
  5
1a3
100
AcDbEntity
  8
Layer_3_silkscreen
 62
7
100
AcDbSpline
 70
8
 71
3
 72
8
 73
4
 74
0
 40
0
 40
0
 40
0
 40
0
 40
1
 40
1
 40
1
 40
1
 10
64.165268
 20
56.227333
 30
0.0
 10
65.165430
 20
56.227333
 30
0.0
 10
66.273776
 20
56.937249
 30
0.0
 10
66.719834
 20
57.863576
 30
0.0
  0
SPLINE
  5
1a4
100
AcDbEntity
  8
Layer_3_silkscreen
 62
7
100
AcDbSpline
 70
8
 71
3
 72
8
 73
4
 74
0
 40
0
 40
0
 40
0
 40
0
 40
1
 40
1
 40
1
 40
1
 10
66.719834
 20
57.863576
 30
0.0
 10
67.215619
 20
58.893184
 30
0.0
 10
66.988439
 20
60.220608
 30
0.0
 10
66.168744
 20
61.083556
 30
0.0
  0
SPLINE
  5
1a5
100
AcDbEntity
  8
Layer_3_silkscreen
 62
7
100
AcDbSpline
 70
8
 71
3
 72
8
 73
4
 74
0
 40
0
 40
0
 40
0
 40
0
 40
1
 40
1
 40
1
 40
1
 10
66.168744
 20
61.083556
 30
0.0
 10
65.993510
 20
61.268037
 30
0.0
 10
65.879492
 20
61.480872
 30
0.0
 10
65.911380
 20
61.563972
 30
0.0
  0
SPLINE
  5
1a6
100
AcDbEntity
  8
Layer_3_silkscreen
 62
7
100
AcDbSpline
 70
8
 71
3
 72
8
 73
4
 74
0
 40
0
 40
0
 40
0
 40
0
 40
1
 40
1
 40
1
 40
1
 10
65.911380
 20
61.563972
 30
0.0
 10
65.942865
 20
61.646029
 30
0.0
 10
66.358651
 20
61.824214
 30
0.0
 10
66.835345
 20
61.959940
 30
0.0
  0
SPLINE
  5
1a7
100
AcDbEntity
  8
Layer_3_silkscreen
 62
7
100
AcDbSpline
 70
8
 71
3
 72
8
 73
4
 74
0
 40
0
 40
0
 40
0
 40
0
 40
1
 40
1
 40
1
 40
1
 10
66.835345
 20
61.959940
 30
0.0
 10
67.564500
 20
62.167546
 30
0.0
 10
67.933178
 20
62.206266
 30
0.0
 10
69.158375
 20
62.203919
 30
0.0
  0
SPLINE
  5
1a8
100
AcDbEntity
  8
Layer_3_silkscreen
 62
7
100
AcDbSpline
 70
8
 71
3
 72
8
 73
4
 74
0
 40
0
 40
0
 40
0
 40
0
 40
1
 40
1
 40
1
 40
1
 10
69.158375
 20
62.203919
 30
0.0
 10
70.529123
 20
62.201153
 30
0.0
 10
70.672768
 20
62.181138
 30
0.0
 10
71.602919
 20
61.860660
 30
0.0
  0
SPLINE
  5
1a9
100
AcDbEntity
  8
Layer_3_silkscreen
 62
7
100
AcDbSpline
 70
8
 71
3
 72
8
 73
4
 74
0
 40
0
 40
0
 40
0
 40
0
 40
1
 40
1
 40
1
 40
1
 10
71.602919
 20
61.860660
 30
0.0
 10
74.313838
 20
60.926686
 30
0.0
 10
76.242254
 20
58.838346
 30
0.0
 10
76.862189
 20
56.165241
 30
0.0
  0
SPLINE
  5
1aa
100
AcDbEntity
  8
Layer_3_silkscreen
 62
7
100
AcDbSpline
 70
8
 71
3
 72
8
 73
4
 74
0
 40
0
 40
0
 40
0
 40
0
 40
1
 40
1
 40
1
 40
1
 10
76.862189
 20
56.165241
 30
0.0
 10
77.121543
 20
55.046933
 30
0.0
 10
77.076963
 20
53.449493
 30
0.0
 10
76.755580
 20
52.344949
 30
0.0
  0
SPLINE
  5
1ab
100
AcDbEntity
  8
Layer_3_silkscreen
 62
7
100
AcDbSpline
 70
8
 71
3
 72
8
 73
4
 74
0
 40
0
 40
0
 40
0
 40
0
 40
1
 40
1
 40
1
 40
1
 10
76.755580
 20
52.344949
 30
0.0
 10
76.443092
 20
51.270980
 30
0.0
 10
76.212584
 20
50.786633
 30
0.0
 10
75.608140
 20
49.933936
 30
0.0
  0
SPLINE
  5
1ac
100
AcDbEntity
  8
Layer_3_silkscreen
 62
7
100
AcDbSpline
 70
8
 71
3
 72
8
 73
4
 74
0
 40
0
 40
0
 40
0
 40
0
 40
1
 40
1
 40
1
 40
1
 10
75.608140
 20
49.933936
 30
0.0
 10
74.645560
 20
48.576009
 30
0.0
 10
73.244747
 20
47.565295
 30
0.0
 10
71.496648
 20
46.967413
 30
0.0
  0
SPLINE
  5
1ad
100
AcDbEntity
  8
Layer_3_silkscreen
 62
7
100
AcDbSpline
 70
8
 71
3
 72
8
 73
4
 74
0
 40
0
 40
0
 40
0
 40
0
 40
1
 40
1
 40
1
 40
1
 10
71.496648
 20
46.967413
 30
0.0
 10
70.635859
 20
46.673007
 30
0.0
 10
68.262918
 20
46.580690
 30
0.0
 10
67.285960
 20
46.803600
 30
0.0
  0
LWPOLYLINE
  5
1ae
100
AcDbEntity
  8
Layer_3_silkscreen
 62
7
100
AcDbPolyline
 90
2
 70
1
 10
73.805040
 20
43.157340
 30
0.0
 10
73.805040
 20
43.157187
 30
0.0
  0
SPLINE
  5
1af
100
AcDbEntity
  8
Layer_3_silkscreen
 62
7
100
AcDbSpline
 70
8
 71
3
 72
8
 73
4
 74
0
 40
0
 40
0
 40
0
 40
0
 40
1
 40
1
 40
1
 40
1
 10
19.117013
 20
79.663716
 30
0.0
 10
20.718517
 20
81.206162
 30
0.0
 10
22.798646
 20
82.747051
 30
0.0
 10
24.636498
 20
83.752367
 30
0.0
  0
SPLINE
  5
1b0
100
AcDbEntity
  8
Layer_3_silkscreen
 62
7
100
AcDbSpline
 70
8
 71
3
 72
8
 73
4
 74
0
 40
0
 40
0
 40
0
 40
0
 40
1
 40
1
 40
1
 40
1
 10
24.636498
 20
83.752367
 30
0.0
 10
25.657385
 20
84.310798
 30
0.0
 10
27.421350
 20
85.145750
 30
0.0
 10
27.580236
 20
85.145750
 30
0.0
  0
SPLINE
  5
1b1
100
AcDbEntity
  8
Layer_3_silkscreen
 62
7
100
AcDbSpline
 70
8
 71
3
 72
8
 73
4
 74
0
 40
0
 40
0
 40
0
 40
0
 40
1
 40
1
 40
1
 40
1
 10
27.580236
 20
85.145750
 30
0.0
 10
27.634944
 20
85.145750
 30
0.0
 10
27.733365
 20
85.210406
 30
0.0
 10
27.798949
 20
85.289432
 30
0.0
  0
SPLINE
  5
1b2
100
AcDbEntity
  8
Layer_3_silkscreen
 62
7
100
AcDbSpline
 70
8
 71
3
 72
8
 73
4
 74
0
 40
0
 40
0
 40
0
 40
0
 40
1
 40
1
 40
1
 40
1
 10
27.798949
 20
85.289432
 30
0.0
 10
27.896327
 20
85.406765
 30
0.0
 10
27.598217
 20
85.595413
 30
0.0
 10
26.173323
 20
86.318159
 30
0.0
  0
SPLINE
  5
1b3
100
AcDbEntity
  8
Layer_3_silkscreen
 62
7
100
AcDbSpline
 70
8
 71
3
 72
8
 73
4
 74
0
 40
0
 40
0
 40
0
 40
0
 40
1
 40
1
 40
1
 40
1
 10
26.173323
 20
86.318159
 30
0.0
 10
23.130605
 20
87.861508
 30
0.0
 10
20.731812
 20
88.679602
 30
0.0
 10
19.243347
 20
88.681586
 30
0.0
  0
SPLINE
  5
1b4
100
AcDbEntity
  8
Layer_3_silkscreen
 62
7
100
AcDbSpline
 70
8
 71
3
 72
8
 73
4
 74
0
 40
0
 40
0
 40
0
 40
0
 40
1
 40
1
 40
1
 40
1
 10
19.243347
 20
88.681586
 30
0.0
 10
18.170301
 20
88.683008
 30
0.0
 10
17.737379
 20
88.331429
 30
0.0
 10
17.308037
 20
87.109877
 30
0.0
  0
SPLINE
  5
1b5
100
AcDbEntity
  8
Layer_3_silkscreen
 62
7
100
AcDbSpline
 70
8
 71
3
 72
8
 73
4
 74
0
 40
0
 40
0
 40
0
 40
0
 40
1
 40
1
 40
1
 40
1
 10
17.308037
 20
87.109877
 30
0.0
 10
16.828258
 20
85.744819
 30
0.0
 10
16.735551
 20
84.776021
 30
0.0
 10
16.736848
 20
81.140862
 30
0.0
  0
SPLINE
  5
1b6
100
AcDbEntity
  8
Layer_3_silkscreen
 62
7
100
AcDbSpline
 70
8
 71
3
 72
8
 73
4
 74
0
 40
0
 40
0
 40
0
 40
0
 40
1
 40
1
 40
1
 40
1
 10
16.736848
 20
81.140862
 30
0.0
 10
16.737469
 20
79.252843
 30
0.0
 10
16.772870
 20
77.618861
 30
0.0
 10
16.815402
 20
77.509793
 30
0.0
  0
SPLINE
  5
1b7
100
AcDbEntity
  8
Layer_3_silkscreen
 62
7
100
AcDbSpline
 70
8
 71
3
 72
8
 73
4
 74
0
 40
0
 40
0
 40
0
 40
0
 40
1
 40
1
 40
1
 40
1
 10
16.815402
 20
77.509793
 30
0.0
 10
16.881804
 20
77.339511
 30
0.0
 10
16.998006
 20
77.427716
 30
0.0
 10
17.637662
 20
78.133932
 30
0.0
  0
SPLINE
  5
1b8
100
AcDbEntity
  8
Layer_3_silkscreen
 62
7
100
AcDbSpline
 70
8
 71
3
 72
8
 73
4
 74
0
 40
0
 40
0
 40
0
 40
0
 40
1
 40
1
 40
1
 40
1
 10
17.637662
 20
78.133932
 30
0.0
 10
18.047372
 20
78.586276
 30
0.0
 10
18.713080
 20
79.274679
 30
0.0
 10
19.117013
 20
79.663716
 30
0.0
  0
LWPOLYLINE
  5
1b9
100
AcDbEntity
  8
Layer_3_silkscreen
 62
7
100
AcDbPolyline
 90
2
 70
1
 10
67.285960
 20
46.803600
 30
0.0
 10
67.285960
 20
46.803600
 30
0.0
  0
SPLINE
  5
1ba
100
AcDbEntity
  8
Layer_3_silkscreen
 62
7
100
AcDbSpline
 70
8
 71
3
 72
8
 73
4
 74
0
 40
0
 40
0
 40
0
 40
0
 40
1
 40
1
 40
1
 40
1
 10
81.070013
 20
77.474048
 30
0.0
 10
81.070295
 20
77.545563
 30
0.0
 10
81.119102
 20
78.516879
 30
0.0
 10
81.177886
 20
79.632527
 30
0.0
  0
SPLINE
  5
1bb
100
AcDbEntity
  8
Layer_3_silkscreen
 62
7
100
AcDbSpline
 70
8
 71
3
 72
8
 73
4
 74
0
 40
0
 40
0
 40
0
 40
0
 40
1
 40
1
 40
1
 40
1
 10
81.177886
 20
79.632527
 30
0.0
 10
81.253381
 20
81.065323
 30
0.0
 10
81.251273
 20
82.149718
 30
0.0
 10
81.170718
 20
83.325346
 30
0.0
  0
SPLINE
  5
1bc
100
AcDbEntity
  8
Layer_3_silkscreen
 62
7
100
AcDbSpline
 70
8
 71
3
 72
8
 73
4
 74
0
 40
0
 40
0
 40
0
 40
0
 40
1
 40
1
 40
1
 40
1
 10
81.170718
 20
83.325346
 30
0.0
 10
80.958924
 20
86.415953
 30
0.0
 10
80.539240
 20
87.888808
 30
0.0
 10
79.700117
 20
88.486316
 30
0.0
  0
SPLINE
  5
1bd
100
AcDbEntity
  8
Layer_3_silkscreen
 62
7
100
AcDbSpline
 70
8
 71
3
 72
8
 73
4
 74
0
 40
0
 40
0
 40
0
 40
0
 40
1
 40
1
 40
1
 40
1
 10
79.700117
 20
88.486316
 30
0.0
 10
79.064812
 20
88.938693
 30
0.0
 10
77.053011
 20
88.614886
 30
0.0
 10
74.619595
 20
87.668586
 30
0.0
  0
SPLINE
  5
1be
100
AcDbEntity
  8
Layer_3_silkscreen
 62
7
100
AcDbSpline
 70
8
 71
3
 72
8
 73
4
 74
0
 40
0
 40
0
 40
0
 40
0
 40
1
 40
1
 40
1
 40
1
 10
74.619595
 20
87.668586
 30
0.0
 10
73.415677
 20
87.200410
 30
0.0
 10
70.122065
 20
85.554021
 30
0.0
 10
70.071818
 20
85.395275
 30
0.0
  0
SPLINE
  5
1bf
100
AcDbEntity
  8
Layer_3_silkscreen
 62
7
100
AcDbSpline
 70
8
 71
3
 72
8
 73
4
 74
0
 40
0
 40
0
 40
0
 40
0
 40
1
 40
1
 40
1
 40
1
 10
70.071818
 20
85.395275
 30
0.0
 10
70.051865
 20
85.332269
 30
0.0
 10
70.259490
 20
85.197994
 30
0.0
 10
70.533181
 20
85.096886
 30
0.0
  0
SPLINE
  5
1c0
100
AcDbEntity
  8
Layer_3_silkscreen
 62
7
100
AcDbSpline
 70
8
 71
3
 72
8
 73
4
 74
0
 40
0
 40
0
 40
0
 40
0
 40
1
 40
1
 40
1
 40
1
 10
70.533181
 20
85.096886
 30
0.0
 10
71.440540
 20
84.761684
 30
0.0
 10
73.822134
 20
83.480583
 30
0.0
 10
75.019439
 20
82.683650
 30
0.0
  0
SPLINE
  5
1c1
100
AcDbEntity
  8
Layer_3_silkscreen
 62
7
100
AcDbSpline
 70
8
 71
3
 72
8
 73
4
 74
0
 40
0
 40
0
 40
0
 40
0
 40
1
 40
1
 40
1
 40
1
 10
75.019439
 20
82.683650
 30
0.0
 10
76.928085
 20
81.413238
 30
0.0
 10
79.215350
 20
79.410273
 30
0.0
 10
80.392877
 20
77.978101
 30
0.0
  0
SPLINE
  5
1c2
100
AcDbEntity
  8
Layer_3_silkscreen
 62
7
100
AcDbSpline
 70
8
 71
3
 72
8
 73
4
 74
0
 40
0
 40
0
 40
0
 40
0
 40
1
 40
1
 40
1
 40
1
 10
80.392877
 20
77.978101
 30
0.0
 10
80.913091
 20
77.345390
 30
0.0
 10
81.068156
 20
77.229964
 30
0.0
 10
81.070021
 20
77.474048
 30
0.0
  0
LWPOLYLINE
  5
1c3
100
AcDbEntity
  8
Layer_3_silkscreen
 62
7
100
AcDbPolyline
 90
2
 70
1
 10
19.117013
 20
79.663716
 30
0.0
 10
19.117013
 20
79.663716
 30
0.0
  0
LWPOLYLINE
  5
1c4
100
AcDbEntity
  8
Layer_3_silkscreen
 62
7
100
AcDbPolyline
 90
2
 70
1
 10
81.070021
 20
77.474048
 30
0.0
 10
81.070013
 20
77.474048
 30
0.0
  0
LWPOLYLINE
  5
1c5
100
AcDbEntity
  8
Layer_3_silkscreen
 62
7
100
AcDbPolyline
 90
2
 70
0
 10
36.482838
 20
18.590299
 30
0.0
 10
40.038017
 20
4.430883
 30
0.0
  0
LWPOLYLINE
  5
1c6
100
AcDbEntity
  8
Layer_3_silkscreen
 62
7
100
AcDbPolyline
 90
2
 70
0
 10
61.277144
 20
18.467707
 30
0.0
 10
57.844560
 20
4.461532
 30
0.0
  0
SPLINE
  5
1c7
100
AcDbEntity
  8
Layer_3_silkscreen
 62
7
100
AcDbSpline
 70
8
 71
3
 72
8
 73
4
 74
0
 40
0
 40
0
 40
0
 40
0
 40
1
 40
1
 40
1
 40
1
 10
36.574784
 20
0.507926
 30
0.0
 10
36.717808
 20
2.397895
 30
0.0
 10
37.780276
 20
4.379803
 30
0.0
 10
40.038017
 20
4.430883
 30
0.0
  0
LWPOLYLINE
  5
1c8
100
AcDbEntity
  8
Layer_3_silkscreen
 62
7
100
AcDbPolyline
 90
2
 70
0
 10
48.806997
 20
15.029428
 30
0.0
 10
48.844632
 20
0.416684
 30
0.0
  0
SPLINE
  5
1c9
100
AcDbEntity
  8
Layer_3_silkscreen
 62
7
100
AcDbSpline
 70
8
 71
3
 72
8
 73
4
 74
0
 40
0
 40
0
 40
0
 40
0
 40
1
 40
1
 40
1
 40
1
 10
57.936503
 20
4.461535
 30
0.0
 10
60.414662
 20
4.235689
 30
0.0
 10
61.146828
 20
2.520232
 30
0.0
 10
61.250441
 20
0.345451
 30
0.0
  0
SPLINE
  5
1ca
100
AcDbEntity
  8
Layer_3_silkscreen
 62
7
100
AcDbSpline
 70
8
 71
3
 72
8
 73
4
 74
0
 40
0
 40
0
 40
0
 40
0
 40
1
 40
1
 40
1
 40
1
 10
36.734369
 20
1.630939
 30
0.0
 10
32.678607
 20
1.978281
 30
0.0
 10
30.056955
 20
3.317338
 30
0.0
 10
27.665935
 20
5.676168
 30
0.0
  0
SPLINE
  5
1cb
100
AcDbEntity
  8
Layer_3_silkscreen
 62
7
100
AcDbSpline
 70
8
 71
3
 72
8
 73
4
 74
0
 40
0
 40
0
 40
0
 40
0
 40
1
 40
1
 40
1
 40
1
 10
27.665935
 20
5.676168
 30
0.0
 10
27.208165
 20
6.018380
 30
0.0
 10
26.403519
 20
6.108928
 30
0.0
 10
25.746524
 20
5.921832
 30
0.0
  0
LWPOLYLINE
  5
1cc
100
AcDbEntity
  8
Layer_3_silkscreen
 62
7
100
AcDbPolyline
 90
2
 70
0
 10
40.038017
 20
4.430883
 30
0.0
 10
57.936503
 20
4.461535
 30
0.0
  0
SPLINE
  5
1cd
100
AcDbEntity
  8
Layer_3_silkscreen
 62
7
100
AcDbSpline
 70
8
 71
3
 72
8
 73
4
 74
0
 40
0
 40
0
 40
0
 40
0
 40
1
 40
1
 40
1
 40
1
 10
38.350204
 20
42.361922
 30
0.0
 10
38.379090
 20
40.657099
 30
0.0
 10
39.543039
 20
38.767757
 30
0.0
 10
43.312972
 20
38.699445
 30
0.0
  0
SPLINE
  5
1ce
100
AcDbEntity
  8
Layer_3_silkscreen
 62
7
100
AcDbSpline
 70
8
 71
3
 72
8
 73
4
 74
0
 40
0
 40
0
 40
0
 40
0
 40
1
 40
1
 40
1
 40
1
 10
43.312972
 20
38.699445
 30
0.0
 10
47.082908
 20
38.631133
 30
0.0
 10
48.636933
 20
43.156544
 30
0.0
 10
49.055915
 20
46.111089
 30
0.0
  0
SPLINE
  5
1cf
100
AcDbEntity
  8
Layer_3_silkscreen
 62
7
100
AcDbSpline
 70
8
 71
3
 72
8
 73
4
 74
0
 40
0
 40
0
 40
0
 40
0
 40
1
 40
1
 40
1
 40
1
 10
49.055915
 20
46.111089
 30
0.0
 10
49.641043
 20
43.012066
 30
0.0
 10
50.608679
 20
38.736732
 30
0.0
 10
54.712167
 20
38.699445
 30
0.0
  0
SPLINE
  5
1d0
100
AcDbEntity
  8
Layer_3_silkscreen
 62
7
100
AcDbSpline
 70
8
 71
3
 72
8
 73
4
 74
0
 40
0
 40
0
 40
0
 40
0
 40
1
 40
1
 40
1
 40
1
 10
54.712167
 20
38.699445
 30
0.0
 10
58.815656
 20
38.662155
 30
0.0
 10
59.653263
 20
40.519849
 30
0.0
 10
59.588250
 20
42.145209
 30
0.0
  0
SPLINE
  5
1d1
100
AcDbEntity
  8
Layer_3_silkscreen
 62
7
100
AcDbSpline
 70
8
 71
3
 72
8
 73
4
 74
0
 40
0
 40
0
 40
0
 40
0
 40
1
 40
1
 40
1
 40
1
 10
61.086484
 20
1.630939
 30
0.0
 10
65.142245
 20
1.978281
 30
0.0
 10
67.763898
 20
3.317338
 30
0.0
 10
70.154921
 20
5.676168
 30
0.0
  0
SPLINE
  5
1d2
100
AcDbEntity
  8
Layer_3_silkscreen
 62
7
100
AcDbSpline
 70
8
 71
3
 72
8
 73
4
 74
0
 40
0
 40
0
 40
0
 40
0
 40
1
 40
1
 40
1
 40
1
 10
70.154921
 20
5.676168
 30
0.0
 10
70.575207
 20
5.990355
 30
0.0
 10
71.286057
 20
6.083353
 30
0.0
 10
71.910234
 20
5.962223
 30
0.0
  0
SPLINE
  5
1d3
100
AcDbEntity
  8
Layer_3_silkscreen
 62
7
100
AcDbSpline
 70
8
 71
3
 72
8
 73
4
 74
0
 40
0
 40
0
 40
0
 40
0
 40
1
 40
1
 40
1
 40
1
 10
71.910234
 20
5.962223
 30
0.0
 10
72.744056
 20
5.800408
 30
0.0
 10
73.307753
 20
5.557883
 30
0.0
 10
73.729328
 20
5.224590
 30
0.0
  0
SPLINE
  5
1d4
100
AcDbEntity
  8
Layer_3_silkscreen
 62
7
100
AcDbSpline
 70
8
 71
3
 72
8
 73
4
 74
0
 40
0
 40
0
 40
0
 40
0
 40
1
 40
1
 40
1
 40
1
 10
35.454167
 20
29.633330
 30
0.0
 10
44.591111
 20
28.574997
 30
0.0
 10
54.693027
 20
28.361191
 30
0.0
 10
63.194971
 20
29.807579
 30
0.0
  0
LWPOLYLINE
  5
1d5
100
AcDbEntity
  8
Layer_3_silkscreen
 62
7
100
AcDbPolyline
 90
4
 70
1
 10
45.819201
 20
49.103610
 30
0.0
 10
52.298973
 20
49.103610
 30
0.0
 10
49.037415
 20
45.842052
 30
0.0
 10
45.819201
 20
49.103610
 30
0.0
  0
ENDSEC
  0
SECTION
  2
OBJECTS
  0
DICTIONARY
  5
C
330
0
100
AcDbDictionary
  3
ACAD_GROUP
350
D
  3
ACAD_MLINESTYLE
350
17
  0
DICTIONARY
  5
D
330
C
100
AcDbDictionary
  0
DICTIONARY
  5
1A
330
C
100
AcDbDictionary
  0
DICTIONARY
  5
17
330
C
100
AcDbDictionary
  3
STANDARD
350
18
  0
DICTIONARY
  5
19
330
C
100
AcDbDictionary
  0
ENDSEC
  0
EOF
